<?xml version="1.0" encoding="UTF-8"?>
<svg width="89px" height="89px" viewBox="0 0 89 89" version="1.1" xmlns="http://www.w3.org/2000/svg" xmlns:xlink="http://www.w3.org/1999/xlink">
    <!-- Generator: Sketch 55.2 (78181) - https://sketchapp.com -->
    <title>Group 34</title>
    <desc>Created with Sketch.</desc>
    <g id="About-" stroke="none" stroke-width="1" fill="none" fill-rule="evenodd">
        <g id="About" transform="translate(-1032.000000, -853.000000)">
            <g id="The-aim-for-WoTT-is-to-do-four-things" transform="translate(93.000000, 456.000000)">
                <g id="Four-Things" transform="translate(252.000000, 396.000000)">
                    <g id="Group-14" transform="translate(558.000000, 1.000000)">
                        <g id="Group-34" transform="translate(129.000000, 0.000000)">
                            <path d="M72.3407692,48.8887308 C70.91,47.3771923 69.3869231,45.9002692 67.7715385,44.4810385 C67.4946154,45.9348846 67.1369231,47.3887308 66.6984615,48.8079615 C66.41,49.7541154 66.0869231,50.6887308 65.7292308,51.6118077 C68.0369231,50.8156538 70.2523077,49.9041154 72.3407692,48.8887308" id="Fill-1" fill="#316DC7"></path>
                            <path d="M65.5515385,30.4987308 C65.1361538,30.5679615 64.7092308,30.6025769 64.2707692,30.6025769 C62.1015385,30.6025769 60.14,29.7256538 58.7207692,28.3064231 C57.6015385,27.1871923 56.8284615,25.7333462 56.54,24.1064231 C52.49,24.7756538 48.5092308,25.8487308 44.6669231,27.3141154 C47.9323077,28.7102692 51.1053846,30.2679615 54.1515385,31.9756538 C58.3746154,34.3525769 62.3669231,37.0179615 66.0130769,39.9141154 C66.2669231,36.8218077 66.1169231,33.6718077 65.5515385,30.4987308" id="Fill-3" fill="#316DC7"></path>
                            <path d="M27.7480769,34.1321923 C31.0826923,31.5475769 34.6942308,29.2975769 38.5019231,27.4283462 C32.975,25.4552692 27.275,24.0014231 21.5980769,23.1937308 C21.5634615,26.0898846 21.7365385,29.0091154 22.1288462,31.9052692 L22.2673077,31.9052692 C24.4019231,31.9052692 26.3288462,32.7475769 27.7480769,34.1321923" id="Fill-5" fill="#316DC7"></path>
                            <path d="M18.6823077,46.7137308 C16.6053846,49.5291154 14.8053846,52.5637308 13.3515385,55.7945 C18.1746154,56.3945 23.7361538,56.7637308 29.6207692,56.7868077 C27.4053846,53.8329615 25.5592308,50.6829615 24.0707692,47.3714231 C23.4938462,47.5098846 22.8938462,47.5906538 22.2707692,47.5906538 C20.9784615,47.5906538 19.7553846,47.2675769 18.6823077,46.7137308" id="Fill-7" fill="#316DC7"></path>
                            <path d="M55.0157692,64.4829615 C57.5196154,61.7021923 59.6773077,58.6560385 61.4080769,55.4021923 C60.0696154,55.7598846 58.7196154,56.0945 57.3465385,56.3945 C49.9965385,58.0098846 42.1503846,58.8291154 34.6157692,59.0483462 C37.1657692,61.7598846 40.1080769,64.1945 43.4773077,66.2829615 C43.7657692,65.8214231 44.1234615,65.3945 44.5042308,65.0021923 C45.9234615,63.5829615 47.885,62.7060385 50.0542308,62.7060385 C51.935,62.7060385 53.6657692,63.3752692 55.0157692,64.4829615" id="Fill-9" fill="#316DC7"></path>
                            <path d="M83.7165385,23.8341154 C81.6165385,19.8418077 78.9396154,16.1956538 75.7780769,13.0341154 C68.5896154,5.85719231 58.955,1.12642308 48.2242308,0.226423077 C50.8203846,2.26873077 53.1511538,4.36873077 55.1934615,6.50334615 C57.9280769,9.34180769 60.2011538,12.2725769 62.0473077,15.2379615 C62.7511538,15.0302692 63.5011538,14.9264231 64.2626923,14.9264231 C66.4319231,14.9264231 68.3934615,15.7918077 69.8126923,17.2110385 C70.8973077,18.3071923 71.6703846,19.7148846 71.9703846,21.2841154 C74.3242308,21.5264231 76.655,21.9187308 78.9626923,22.4725769 C80.5665385,22.8533462 82.1473077,23.3033462 83.7165385,23.8341154" id="Fill-11" fill="#316DC7"></path>
                            <path d="M87.6038462,34.3191154 C87.0038462,31.7460385 86.1846154,29.2652692 85.1692308,26.8768077 C82.9653846,26.0229615 80.7038462,25.3191154 78.4192308,24.7768077 C76.3192308,24.2806538 74.1961538,23.9114231 72.0615385,23.6806538 C71.8423077,25.4691154 71.0230769,27.0960385 69.8115385,28.3075769 C69.2346154,28.8845 68.5538462,29.3806538 67.8153846,29.7498846 C68.5884615,33.7998846 68.6807692,37.8152692 68.2076923,41.7268077 C70.4692308,43.6537308 72.5807692,45.6729615 74.5076923,47.7614231 C80.4730769,44.4383462 85.1461538,40.0421923 87.6038462,34.3191154" id="Fill-13" fill="#4CD7ED"></path>
                            <path d="M84.5611538,63.1871923 C87.2496154,57.4756538 88.7496154,51.0948846 88.7496154,44.3679615 C88.7496154,42.2564231 88.5996154,40.1679615 88.3111538,38.1371923 C85.5303846,42.8448846 81.2842308,46.6064231 76.1034615,49.5602692 C79.7957692,53.8756538 82.6919231,58.4679615 84.5611538,63.1871923" id="Fill-15" fill="#316DC7"></path>
                            <path d="M77.1246154,74.2745 C79.4092308,71.7821923 81.4169231,69.0129615 83.09,66.0475769 C81.3476923,60.7283462 78.1861538,55.5360385 73.9861538,50.7014231 C71.0438462,52.1898846 67.8476923,53.4475769 64.49,54.4975769 C62.4938462,58.7437308 59.8169231,62.7014231 56.6092308,66.2437308 C57.4169231,67.4783462 57.89,68.9552692 57.89,70.5475769 C57.89,71.1360385 57.8323077,71.7129615 57.7053846,72.2552692 C60.4861538,72.9706538 63.4284615,73.5129615 66.5553846,73.8475769 C69.89,74.2168077 73.4092308,74.3668077 77.1246154,74.2745" id="Fill-18" fill="#4CD7ED"></path>
                            <path d="M22.5303846,82.8614231 C28.9919231,86.5537308 36.4688462,88.6537308 44.4534615,88.6537308 C56.1880769,88.6537308 66.8380769,84.0960385 74.765,76.6537308 C71.8111538,76.6537308 68.9957692,76.5037308 66.3073077,76.2037308 C62.9611538,75.8345 59.8111538,75.2460385 56.8457692,74.4729615 C56.4996154,75.0729615 56.0842308,75.6152692 55.5996154,76.0998846 L55.5996154,76.0883462 C54.1688462,77.5191154 52.2188462,78.3960385 50.0496154,78.3960385 C47.8919231,78.3960385 45.9303846,77.5191154 44.5111538,76.0998846 L44.465,76.0537308 C40.7265385,78.2460385 36.665,79.9768077 32.3957692,81.1768077 C29.2111538,82.0537308 25.8996154,82.6306538 22.5303846,82.8614231" id="Fill-20" fill="#316DC7"></path>
                            <path d="M9.27961538,71.2941154 C10.4680769,72.8402692 11.7488462,74.3056538 13.1219231,75.6902692 C14.9334615,77.4902692 16.9065385,79.1518077 18.995,80.6171923 C23.3796154,80.6402692 27.6719231,80.0287308 31.7680769,78.8979615 C35.7488462,77.7787308 39.5565385,76.1633462 43.0757692,74.1325769 C42.5219231,73.0595 42.2103846,71.8364231 42.2103846,70.5556538 C42.2103846,69.8287308 42.3142308,69.1248846 42.4988462,68.4441154 C38.2988462,65.8825769 34.7219231,62.8018077 31.7103846,59.3518077 L31.5026923,59.1095 C24.5680769,59.1787308 17.9911538,58.7633462 12.4065385,58.0364231 L12.3603846,58.1402692 C10.7565385,62.2479615 9.70653846,66.6441154 9.27961538,71.2941154" id="Fill-22" fill="#4CD7ED"></path>
                            <path d="M1.67923077,55.9364231 C2.89076923,60.4133462 4.78307692,64.6018077 7.24076923,68.4095 C7.77153846,64.6595 8.71769231,61.0825769 10.01,57.6902692 C6.77923077,57.1941154 3.95230769,56.6056538 1.67923077,55.9364231" id="Fill-24" fill="#316DC7"></path>
                            <path d="M5.78576923,22.7241154 C2.19730769,29.1279615 0.155,36.5010385 0.155,44.3587308 C0.155,47.4164231 0.466538462,50.3818077 1.04346154,53.2664231 C3.52423077,54.1087308 6.905,54.8702692 10.9203846,55.4587308 C12.4896154,51.8356538 14.4626923,48.4548846 16.7703846,45.3279615 L16.7242308,45.2933462 L16.7242308,45.2818077 C15.305,43.8625769 14.4280769,41.9010385 14.4280769,39.7433462 C14.4280769,37.5741154 15.305,35.6125769 16.7242308,34.1933462 C17.5780769,33.3395 18.6280769,32.6818077 19.805,32.3010385 C19.3665385,29.1741154 19.1934615,26.0241154 19.2511538,22.8971923 C14.6934615,22.3895 10.1703846,22.3087308 5.78576923,22.7241154" id="Fill-27" fill="#4CD7ED"></path>
                            <path d="M21.7976923,6.28988462 C18.6361538,8.18219231 15.7169231,10.4437308 13.1323077,13.0398846 C10.94,15.2206538 8.99,17.6321923 7.29384615,20.2398846 C11.2284615,19.9860385 15.2669231,20.0898846 19.3284615,20.5283462 C19.3746154,19.7552692 19.4323077,18.9591154 19.5015385,18.1860385 C19.8823077,14.1014231 20.6553846,10.0975769 21.7976923,6.28988462" id="Fill-29" fill="#316DC7"></path>
                            <path d="M44.4407692,0.1595 C37.5176923,0.0325769231 30.9523077,1.48642308 25.0561538,4.2095 C23.4176923,8.53642308 22.2869231,13.1518077 21.71,17.8825769 C21.6176923,18.6787308 21.5369231,19.4864231 21.4676923,20.3056538 C28.1369231,21.4133462 34.8061538,23.3979615 41.1869231,26.0633462 C46.0330769,24.1479615 51.11,22.8210385 56.2446154,22.1518077 C56.5215385,20.4095 57.3869231,18.8633462 58.61,17.7095 C58.9676923,17.3518077 59.3715385,17.0402692 59.7984615,16.7633462 C58.1369231,13.9710385 56.0946154,11.2018077 53.6253846,8.49026923 C51.0292308,5.62873077 47.9830769,2.83642308 44.4407692,0.1595" id="Fill-31" fill="#4CD7ED"></path>
                        </g>
                    </g>
                </g>
            </g>
        </g>
    </g>
</svg>