<?xml version="1.0" encoding="UTF-8"?>
<svg width="70px" height="90px" viewBox="0 0 70 90" version="1.1" xmlns="http://www.w3.org/2000/svg" xmlns:xlink="http://www.w3.org/1999/xlink">
    <!-- Generator: Sketch 55.2 (78181) - https://sketchapp.com -->
    <title>book-2</title>
    <desc>Created with Sketch.</desc>
    <g id="Documentation" stroke="none" stroke-width="1" fill="none" fill-rule="evenodd">
        <g transform="translate(-894.000000, -901.000000)" fill-rule="nonzero" id="Secondary-Features">
            <g transform="translate(328.000000, 892.000000)">
                <g id="Most-Common-Questions" transform="translate(566.000000, 0.000000)">
                    <g id="book-2" transform="translate(0.000000, 9.000000)">
                        <polygon id="Path" fill="#4CD7ED" points="48.3377838 1.5449523 48.3377838 21.0951232 67.889328 21.0951232"></polygon>
                        <path d="M45.7003784,26.3692475 C44.2446899,26.3692475 43.0636597,25.1882172 43.0636597,23.731842 L43.0636597,0 L2.63671875,0 C1.18034367,0 0,1.18034367 0,2.63671875 L0,87.3632812 C0,88.8196563 1.18034367,90 2.63671875,90 L66.7982482,90 C68.2546235,90 69.434967,88.8196563 69.434967,87.3632812 L69.434967,26.3692475 L45.7003784,26.3692475 Z M10.7556152,15.4701232 C12.0211029,12.4777222 14.9379731,10.5441284 18.186493,10.5441284 C22.6345825,10.5441284 26.2532043,14.1627502 26.2532043,18.6108398 C26.2532043,22.1353912 23.9804077,25.1394653 20.8232118,26.2339784 L20.8232118,28.1030273 C20.8232118,29.5594024 19.6428681,30.7397461 18.186493,30.7397461 C16.7308045,30.7397461 15.5497743,29.5594024 15.5497743,28.1030273 L15.5497743,24.0401459 C15.5497743,22.5837707 16.7308045,21.4034272 18.186493,21.4034272 C19.7266387,21.4034272 20.9790802,20.150299 20.9790802,18.6108398 C20.9790802,17.0706939 19.7266387,15.8175659 18.186493,15.8175659 C17.061081,15.8175659 16.0510254,16.4877319 15.6122589,17.5245666 C15.0450898,18.8655854 13.4980773,19.4931793 12.1570587,18.9260102 C10.8153534,18.3581543 10.1884461,16.811142 10.7556152,15.4701232 Z M20.8232118,38.6505889 C20.8232118,39.3447876 20.5423736,40.02388 20.051422,40.5141449 C19.5611572,41.0044097 18.8806915,41.2873077 18.186493,41.2873077 C17.4922944,41.2873077 16.8138886,41.0044097 16.3215636,40.5141449 C15.8312988,40.02388 15.5497743,39.3434142 15.5497743,38.6505889 C15.5497743,37.9563905 15.8312988,37.2759247 16.3215636,36.7856597 C16.8138886,36.2953949 17.4922944,36.0138702 18.186493,36.0138702 C18.8806915,36.0138702 19.559784,36.2953949 20.051422,36.7856597 C20.5423736,37.2759247 20.8232118,37.9563905 20.8232118,38.6505889 Z M56.2513732,79.2821503 L13.6230469,79.2821503 C12.1673584,79.2821503 10.9863281,78.1018066 10.9863281,76.6454316 C10.9863281,75.1890565 12.1673584,74.0087128 13.6230469,74.0087128 L56.2513732,74.0087128 C57.7070617,74.0087128 58.888092,75.1890565 58.888092,76.6454316 C58.888092,78.1018066 57.7070617,79.2821503 56.2513732,79.2821503 Z M56.2513732,68.7352753 L13.6230469,68.7352753 C12.1673584,68.7352753 10.9863281,67.554245 10.9863281,66.0985566 C10.9863281,64.6421815 12.1673584,63.4618378 13.6230469,63.4618378 L56.2513732,63.4618378 C57.7070617,63.4618378 58.888092,64.6421815 58.888092,66.0985566 C58.888092,67.554245 57.7070617,68.7352753 56.2513732,68.7352753 Z M56.2513732,58.1884003 L13.6230469,58.1884003 C12.1673584,58.1884003 10.9863281,57.00737 10.9863281,55.550995 C10.9863281,54.0953065 12.1673584,52.9142762 13.6230469,52.9142762 L56.2513732,52.9142762 C57.7070617,52.9142762 58.888092,54.0953065 58.888092,55.550995 C58.888092,57.00737 57.7070617,58.1884003 56.2513732,58.1884003 Z M56.2513732,47.6408387 L28.3021545,47.6408387 C26.8457794,47.6408387 25.6647491,46.460495 25.6647491,45.00412 C25.6647491,43.5477447 26.8457794,42.3674012 28.3021545,42.3674012 L56.2513732,42.3674012 C57.7077485,42.3674012 58.888092,43.5477447 58.888092,45.00412 C58.888092,46.460495 57.7070617,47.6408387 56.2513732,47.6408387 Z M56.2513732,37.0939637 L28.3021545,37.0939637 C26.8457794,37.0939637 25.6647491,35.91362 25.6647491,34.457245 C25.6647491,33.0008697 26.8457794,31.8205262 28.3021545,31.8205262 L56.2513732,31.8205262 C57.7077485,31.8205262 58.888092,33.0008697 58.888092,34.457245 C58.888092,35.91362 57.7070617,37.0939637 56.2513732,37.0939637 Z" id="Shape" fill="#316DC7"></path>
                    </g>
                </g>
            </g>
        </g>
    </g>
</svg>