<?xml version="1.0" encoding="UTF-8" standalone="no"?>
<svg
   xmlns:dc="http://purl.org/dc/elements/1.1/"
   xmlns:cc="http://creativecommons.org/ns#"
   xmlns:rdf="http://www.w3.org/1999/02/22-rdf-syntax-ns#"
   xmlns:svg="http://www.w3.org/2000/svg"
   xmlns="http://www.w3.org/2000/svg"
   xmlns:sodipodi="http://sodipodi.sourceforge.net/DTD/sodipodi-0.dtd"
   xmlns:inkscape="http://www.inkscape.org/namespaces/inkscape"
   height="512pt"
   viewBox="0 0 512 512"
   width="512pt"
   version="1.1"
   id="svg16"
   sodipodi:docname="cert_manage.svg"
   inkscape:version="0.92.3 (2405546, 2018-03-11)">
  <metadata
     id="metadata22">
    <rdf:RDF>
      <cc:Work
         rdf:about="">
        <dc:format>image/svg+xml</dc:format>
        <dc:type
           rdf:resource="http://purl.org/dc/dcmitype/StillImage" />
      </cc:Work>
    </rdf:RDF>
  </metadata>
  <defs
     id="defs20" />
  <sodipodi:namedview
     pagecolor="#ffffff"
     bordercolor="#666666"
     borderopacity="1"
     objecttolerance="10"
     gridtolerance="10"
     guidetolerance="10"
     inkscape:pageopacity="0"
     inkscape:pageshadow="2"
     inkscape:window-width="746"
     inkscape:window-height="790"
     id="namedview18"
     showgrid="false"
     inkscape:zoom="0.34570313"
     inkscape:cx="341.33333"
     inkscape:cy="341.33333"
     inkscape:window-x="1647"
     inkscape:window-y="113"
     inkscape:window-maximized="0"
     inkscape:current-layer="svg16" />
  <path
     d="m181 126v15c0 13.785156-11.214844 25-25 25h-15v135.214844l115 115 115-115v-135.214844h-15c-13.785156 0-25-11.214844-25-25v-15zm0 0"
     id="path2"
     style="fill:#4cd7ed;fill-opacity:1" />
  <path
     d="m301 65h113.300781c6.386719 20.265625 25.351563 35 47.699219 35 27.570312 0 50-22.429688 50-50s-22.429688-50-50-50c-22.347656 0-41.3125 14.734375-47.699219 35h-143.300781v59h30zm0 0"
     id="path4"
     style="fill:#316dc7;fill-opacity:1" />
  <path
     d="m120 129c22.347656 0 41.3125-14.734375 47.699219-35h73.300781v-30h-73.300781c-6.386719-20.265625-25.351563-35-47.699219-35-27.570312 0-50 22.429688-50 50s22.429688 50 50 50zm0 0"
     id="path6"
     style="fill:#316dc7;fill-opacity:1" />
  <path
     d="m97.699219 244h13.300781v-30h-13.300781c-6.386719-20.265625-25.351563-35-47.699219-35-27.570312 0-50 22.429688-50 50s22.429688 50 50 50c22.347656 0 41.3125-14.734375 47.699219-35zm0 0"
     id="path8"
     style="fill:#316dc7;fill-opacity:1" />
  <path
     d="m462 206c-22.347656 0-41.3125 14.734375-47.699219 35h-13.300781v30h13.300781c6.386719 20.265625 25.351563 35 47.699219 35 27.570312 0 50-22.429688 50-50s-22.429688-50-50-50zm0 0"
     id="path10"
     style="fill:#316dc7;fill-opacity:1" />
  <path
     d="m422 361c-22.347656 0-41.3125 14.734375-47.699219 35h-43.300781v-12.359375l-30 30v12.359375h73.300781c6.386719 20.265625 25.351563 35 47.699219 35 27.570312 0 50-22.429688 50-50s-22.429688-50-50-50zm0 0"
     id="path12"
     style="fill:#316dc7;fill-opacity:1" />
  <path
     d="m120 412c-27.570312 0-50 22.429688-50 50s22.429688 50 50 50c22.347656 0 41.3125-14.734375 47.699219-35h103.300781v-30h-103.300781c-6.386719-20.265625-25.351563-35-47.699219-35zm0 0"
     id="path14"
     style="fill:#316dc7;fill-opacity:1" />
</svg>
