<?xml version="1.0" encoding="UTF-8"?>
<svg width="102px" height="72px" viewBox="0 0 102 72" version="1.1" xmlns="http://www.w3.org/2000/svg" xmlns:xlink="http://www.w3.org/1999/xlink">
    <!-- Generator: Sketch 55.2 (78181) - https://sketchapp.com -->
    <title>Group 7</title>
    <desc>Created with Sketch.</desc>
    <g id="About-" stroke="none" stroke-width="1" fill="none" fill-rule="evenodd">
        <g id="About" transform="translate(-1025.000000, -1085.000000)">
            <g id="The-aim-for-WoTT-is-to-do-four-things" transform="translate(93.000000, 456.000000)">
                <g id="Four-Things" transform="translate(252.000000, 396.000000)">
                    <g id="Group-15" transform="translate(513.000000, 233.000000)">
                        <g id="Group-7" transform="translate(167.000000, 0.000000)">
                            <path d="M32.7202425,0 L43,10.1659879 L43,11.0796547 L18.0949511,35.7370907 L42.5327383,59.9319107 L42.5327383,60.8340121 L32.2529808,71 L31.3301389,71 L31.1081896,70.7802574 L6.90403331,46.8167454 L6.21482229,46.1343867 C0.642726461,40.6176902 -1.17959419,35.945268 0.736178802,32.1055547 C1.6122945,30.3360482 2.89726419,28.6128034 4.62613249,26.9126894 L31.8090822,0 L32.7202425,0 Z" id="Fill-1" fill="#4CD7ED"></path>
                            <path d="M69.9591571,72 C52.5375779,54.3887622 58.3829009,62.4485342 84.2807705,36.2687296 L60.3618459,12.0778502 L60.3618459,11.1758958 L62.3636688,9.14071661 L70.4167166,1 L71.3089577,1 L71.5377375,1.23127036 L95.2393213,25.1908795 L95.9142216,25.873127 C101.370619,31.3889251 103.155101,36.0605863 101.279107,39.8881107 C100.421183,41.6688925 99.1628943,43.3918567 97.469924,45.0916938 L70.8513982,72 L69.9591571,72 Z" id="Fill-3" fill="#316DC7"></path>
                        </g>
                    </g>
                </g>
            </g>
        </g>
    </g>
</svg>