<?xml version="1.0" encoding="UTF-8"?>
<svg width="70px" height="71px" viewBox="0 0 70 71" version="1.1" xmlns="http://www.w3.org/2000/svg" xmlns:xlink="http://www.w3.org/1999/xlink">
    <!-- Generator: Sketch 55.2 (78181) - https://sketchapp.com -->
    <title>computer-4</title>
    <desc>Created with Sketch.</desc>
    <g id="Products-" stroke="none" stroke-width="1" fill="none" fill-rule="evenodd">
        <g id="Products" transform="translate(-1033.000000, -1551.000000)" fill-rule="nonzero">
            <g transform="translate(93.000000, 746.000000)" id="Hygiene">
                <g transform="translate(758.500000, 0.000000)">
                    <g id="Security-audit-dashboard" transform="translate(36.500000, 805.500000)">
                        <g id="computer-4" transform="translate(145.000000, 0.000000)">
                            <path d="M47.3575592,45.2453613 C34.8723602,45.2453613 24.7145843,55.4303742 24.7145843,67.9492188 C24.7145843,69.0819549 25.6326294,70 26.7653656,70 L44.4693756,70 L49.2491912,55.5019378 C49.6038055,54.4263459 50.7632446,53.8415527 51.8388366,54.196167 C52.9144287,54.5513153 53.4986878,55.7107544 53.1440736,56.7863464 L48.7877655,70 L67.9492188,70 C69.0819549,70 70,69.0819549 70,67.9492188 C70,55.4303742 59.8422241,45.2453613 47.3575592,45.2453613 L47.3575592,45.2453613 Z" id="Path" fill="#4CD7ED"></path>
                            <polygon id="Path" fill="#4CD7ED" points="12.4414062 28.8476562 53.59375 28.8476562 53.59375 32.9492188 12.4414062 32.9492188"></polygon>
                            <path d="M10.390625,53.4570312 C9.25842285,53.4570312 8.33984375,52.5384521 8.33984375,51.40625 C8.33984375,50.2740479 9.25842285,49.3554688 10.390625,49.3554688 L24.7460938,49.3554688 C25.7047272,49.3554688 26.5095521,50.0128937 26.7338561,50.9015656 C28.4978485,48.7605286 30.5865479,46.8988037 32.9257202,45.390625 L10.390625,45.390625 C9.25842285,45.390625 8.33984375,44.4720459 8.33984375,43.3398438 C8.33984375,42.2076416 9.25842285,41.2890625 10.390625,41.2890625 L32.9492188,41.2890625 C34.5017243,41.2890625 35.4870605,42.9510498 34.7554017,44.3118286 C44.8752594,38.8692474 57.4694061,40.5109406 65.8984375,48.6499787 L65.8984375,20.6445312 L0,20.6445312 L0,58.3789062 C0,62.5253296 3.37310791,65.8984375 7.51953125,65.8984375 L20.6909943,65.8984375 C21.0370636,61.3386536 22.5260163,57.0939636 24.8705291,53.4527588 C24.776001,53.4591675 25.5712127,53.4570312 10.390625,53.4570312 Z M8.33984375,26.796875 C8.33984375,25.6646729 9.25842285,24.7460938 10.390625,24.7460938 L55.6445312,24.7460938 C56.7767334,24.7460938 57.6953125,25.6646729 57.6953125,26.796875 L57.6953125,35 C57.6953125,36.1322021 56.7767334,37.0507812 55.6445312,37.0507812 L10.390625,37.0507812 C9.25842285,37.0507812 8.33984375,36.1322021 8.33984375,35 L8.33984375,26.796875 Z" id="Shape" fill="#316DC7"></path>
                            <path d="M65.8984375,7.51953125 C65.8984375,3.37310791 62.5253296,0 58.3789062,0 L7.51953125,0 C3.37310791,0 0,3.37310791 0,7.51953125 L0,16.5429688 L65.8984375,16.5429688 L65.8984375,7.51953125 Z M39.1015625,12.4414062 C37.9693604,12.4414062 37.0507812,11.5228271 37.0507812,10.390625 C37.0507812,9.25842285 37.9693604,8.33984375 39.1015625,8.33984375 C40.2337646,8.33984375 41.1523438,9.25842285 41.1523438,10.390625 C41.1523438,11.5228271 40.2337646,12.4414062 39.1015625,12.4414062 Z M47.3046875,12.4414062 C46.1724854,12.4414062 45.2539062,11.5228271 45.2539062,10.390625 C45.2539062,9.25842285 46.1724854,8.33984375 47.3046875,8.33984375 C48.4368896,8.33984375 49.3554688,9.25842285 49.3554688,10.390625 C49.3554688,11.5228271 48.4368896,12.4414062 47.3046875,12.4414062 Z M55.5078125,12.4414062 C54.3756104,12.4414062 53.4570312,11.5228271 53.4570312,10.390625 C53.4570312,9.25842285 54.3756104,8.33984375 55.5078125,8.33984375 C56.6400146,8.33984375 57.5585938,9.25842285 57.5585938,10.390625 C57.5585938,11.5228271 56.6400146,12.4414062 55.5078125,12.4414062 Z" id="Shape" fill="#316DC7"></path>
                        </g>
                    </g>
                </g>
            </g>
        </g>
    </g>
</svg>