<?xml version="1.0" encoding="UTF-8"?>
<svg width="70px" height="71px" viewBox="0 0 70 71" version="1.1" xmlns="http://www.w3.org/2000/svg" xmlns:xlink="http://www.w3.org/1999/xlink">
    <!-- Generator: Sketch 55.2 (78181) - https://sketchapp.com -->
    <title>https://www.flaticon.com/free-icon/fingerprint_1691885</title>
    <desc>Created with Sketch.</desc>
    <g id="Products-" stroke="none" stroke-width="1" fill="none" fill-rule="evenodd">
        <g id="Products" transform="translate(-239.000000, -1269.000000)" fill-rule="nonzero">
            <g transform="translate(93.000000, 746.000000)" id="Zero-Trust">
                <g transform="translate(0.000000, 187.500000)">
                    <g id="Authentication" transform="translate(0.000000, 296.000000)">
                        <g id="Group-3" transform="translate(21.000000, 40.000000)">
                            <g id="https://www.flaticon.com/free-icon/fingerprint_1691885" transform="translate(125.000000, 0.000000)">
                                <path d="M34.9218129,0 C15.6206433,0 0,15.6233723 0,34.9317739 C0,55.0325536 16.8835088,70.9780897 36.9679142,69.8025536 L36.9679142,52.7349708 C35.0140546,55.3768226 32.8104873,57.948538 30.4598246,60.2889669 C29.6589864,61.0862573 28.3636452,61.0836647 27.5660819,60.2822807 C26.7687914,59.4811696 26.7717934,58.1851462 27.572768,57.3877193 C33.9308967,51.057154 39.1035283,43.0223002 40.7507797,36.9176998 C43.1461988,28.0412086 31.4159454,25.574425 29.1401949,32.8847173 C28.8041131,33.9639181 27.657232,34.5663548 26.5781676,34.2302729 C25.4992398,33.894191 24.8969396,32.7469006 25.232885,31.6675634 C26.5718908,27.3664522 30.4957115,24.4766667 34.9967251,24.4766667 C39.6623002,24.4766667 43.9190643,27.6831579 44.9379532,32.3993567 C45.9766277,31.4222222 47.1847758,30.6237037 48.5134113,30.0531969 C47.5096686,27.0479727 45.5249708,24.4469201 42.7833723,22.6780897 C41.8338012,22.0654191 41.5603509,20.7987329 42.172885,19.8487524 C42.7854191,18.8986355 44.0516959,18.6251852 45.00154,19.2379922 C48.6460429,21.5892008 51.2521442,25.0755556 52.5058674,29.0929825 C54.0090253,28.9918713 55.4809357,29.1633918 56.8816179,29.5868031 C54.5477388,19.2359454 45.2512476,12.1959649 34.9968616,12.1959649 C27.4488694,12.1959649 20.8359844,15.9258869 16.8255166,21.4118129 C14.7270175,24.2823587 13.6525926,28.0008187 12.5731189,30.2395906 C12.0821637,31.2576608 10.8591423,31.6848928 9.84107212,31.1939376 C8.82327485,30.702846 8.39604288,29.4794152 8.88699805,28.4612086 C9.8728655,26.4168811 11.0696881,22.3504678 13.5221442,18.9955166 C18.2050487,12.5896296 25.9747758,8.10239766 34.9968616,8.10239766 C48.6468616,8.10239766 60.2532164,18.5487719 61.4002339,32.0935673 C63.9774074,34.3453021 65.6084211,37.6548148 65.6084211,41.338616 C65.6084211,43.4132359 65.6833333,44.1193762 65.2795712,45.3021442 C65.8639961,45.3021442 67.6324172,45.3021442 68.2716959,45.3021442 C75.237037,22.8336452 58.4776998,0 34.9218129,0 Z M29.9227485,17.0018129 C32.3165302,16.3158674 34.9264522,16.0963158 37.5764912,16.4707407 C38.6955361,16.6287524 39.4745419,17.6642885 39.3165302,18.7836062 C39.1585185,19.902924 38.1224366,20.681384 37.004347,20.5240546 C35.0147368,20.2432359 32.9837817,20.3828265 31.0498441,20.9369591 C29.9640936,21.2482066 28.8307212,20.6202534 28.5193372,19.5330019 C28.2080897,18.4464327 28.8364522,17.3130604 29.9227485,17.0018129 Z M33.0464133,34.1044639 C33.3826316,33.0253996 34.5297856,32.4225536 35.6087135,32.7594542 C36.6876413,33.0956725 37.2898051,34.2432359 36.9535867,35.3224366 C33.9430409,44.9866667 27.568538,52.369961 20.7298246,56.1966277 C19.7420468,56.7491228 18.4959649,56.3948928 17.9451072,55.4095712 C17.3934308,54.4231579 17.745614,53.1759844 18.7318908,52.6240351 C21.1596491,51.2653801 29.3672515,45.9146784 33.0464133,34.1044639 Z M25.3753411,36.9175634 C26.3418324,37.5033528 26.6504873,38.7621248 26.0648343,39.7288889 C23.428577,44.0802144 19.354386,48.2448733 14.7070955,49.9730409 C13.6479532,50.3669786 12.469961,49.8275828 12.0760234,48.7677583 C11.6822222,47.7082066 12.2217544,46.530078 13.2808967,46.1361404 C17.0273294,44.7428265 20.4253996,41.1388499 22.5649708,37.607193 C23.1506238,36.6402924 24.4089864,36.3317739 25.3753411,36.9175634 Z M10.2223197,38.49154 C13.4850292,37.3583041 15.838694,34.3308382 17.4175828,29.2361209 C18.445614,25.9188304 20.3792788,22.9747368 23.0093957,20.7220468 C23.8675439,19.9868421 25.1594737,20.0869981 25.8944055,20.9455556 C26.6294737,21.8041131 26.5294542,23.0963158 25.6710331,23.831384 C23.6279337,25.5812476 22.1255945,27.8694152 21.3263938,30.4480897 C19.3631189,36.7834308 16.0787135,40.7906238 11.5647368,42.35846 C10.4978168,42.7290643 9.331423,42.1649708 8.96054581,41.0962768 C8.58994152,40.0286745 9.1548538,38.8622807 10.2223197,38.49154 Z" id="Shape" fill="#316DC7"></path>
                                <path d="M63.5685965,49.3957115 L49.2516179,49.3957115 L49.2516179,41.338616 C49.2516179,39.0848343 51.0845809,37.251462 53.3375439,37.251462 C55.5905068,37.251462 57.4234698,39.0849708 57.4234698,41.338616 L57.4234698,50.1461988 C57.4234698,51.2765692 58.3396101,52.1929825 59.4697076,52.1929825 C60.5998051,52.1929825 61.5159454,51.2765692 61.5159454,50.1461988 L61.5159454,41.338616 C61.5159454,36.8276413 57.847154,33.1578947 53.3376803,33.1578947 C48.8282066,33.1578947 45.1594152,36.8277778 45.1594152,41.338616 L45.1594152,49.3957115 L43.1066277,49.3957115 C41.9765302,49.3957115 41.0603899,50.3121248 41.0603899,51.4424951 L41.0603899,67.8167641 C41.0603899,68.9471345 41.9765302,69.8635478 43.1066277,69.8635478 L63.5685965,69.8635478 C64.698694,69.8635478 65.6148343,68.9471345 65.6148343,67.8167641 L65.6148343,51.4424951 C65.6148343,50.3121248 64.698694,49.3957115 63.5685965,49.3957115 Z M55.3837817,61.539961 L51.2914425,61.539961 C50.161345,61.539961 49.2452047,60.6235478 49.2452047,59.4931774 C49.2452047,58.362807 50.161345,57.4463938 51.2914425,57.4463938 L55.3837817,57.4463938 C56.5138791,57.4463938 57.4300195,58.362807 57.4300195,59.4931774 C57.4300195,60.6235478 56.5138791,61.539961 55.3837817,61.539961 Z" id="Shape" fill="#4CD7ED"></path>
                            </g>
                        </g>
                    </g>
                </g>
            </g>
        </g>
    </g>
</svg>