<?xml version="1.0" encoding="UTF-8"?>
<svg width="1700px" height="1265px" viewBox="0 0 1700 1265" version="1.1" xmlns="http://www.w3.org/2000/svg" xmlns:xlink="http://www.w3.org/1999/xlink">
    <!-- Generator: Sketch 55.2 (78181) - https://sketchapp.com -->
    <title>Fill 1</title>
    <desc>Created with Sketch.</desc>
    <defs>
        <linearGradient x1="50.5871276%" y1="100.666255%" x2="50.5871276%" y2="0%" id="linearGradient-1">
            <stop stop-color="#FEFFFF" offset="0%"></stop>
            <stop stop-color="#D5D7E6" offset="51.9874367%"></stop>
            <stop stop-color="#F6F7FC" offset="100%"></stop>
        </linearGradient>
    </defs>
    <g id="Symbols" stroke="none" stroke-width="1" fill="none" fill-rule="evenodd" opacity="0.2">
        <g id="Hero-Graphics" fill="url(#linearGradient-1)">
            <g id="Fill-1">
                <path d="M1677.87346,91.0310187 L1575.80845,31.9766517 L1677.19181,-27.0702772 L1779.25929,31.9840899 L1677.87346,91.0310187 Z M1779.93599,152.480487 L1678.53281,211.534854 L1576.48763,152.492884 L1677.88834,93.4385169 L1779.93599,152.480487 Z M1780.61269,272.996719 L1679.22686,332.038689 L1577.16185,272.986801 L1678.54768,213.942352 L1780.61269,272.996719 Z M1781.28939,393.493116 L1679.88621,452.547483 L1577.83607,393.505513 L1679.24173,334.448667 L1781.28939,393.493116 Z M1781.96609,514.009348 L1680.58026,573.053798 L1578.51277,513.999431 L1679.90108,454.954981 L1781.96609,514.009348 Z M1782.62544,634.513184 L1681.2396,693.557633 L1579.19195,634.515663 L1680.57778,575.471213 L1782.62544,634.513184 Z M1783.31701,755.021978 L1681.9163,814.076345 L1579.85129,755.021978 L1681.25448,695.96761 L1783.31701,755.021978 Z M1783.97884,875.530772 L1682.593,934.570262 L1580.54534,875.530772 L1681.93118,816.483843 L1783.97884,875.530772 Z M1784.67041,996.034607 L1683.2697,1055.08897 L1581.22204,996.044524 L1682.62523,936.990157 L1784.67041,996.034607 Z M1785.35206,1116.54836 L1683.96623,1175.59529 L1581.90122,1116.53844 L1683.28457,1057.49647 L1785.35206,1116.54836 Z M1580.49825,1235.85216 L1478.43076,1176.80028 L1579.83394,1117.74343 L1681.89895,1176.7978 L1580.49825,1235.85216 Z M1476.35109,1175.59529 L1374.30095,1116.54836 L1475.70413,1057.50143 L1577.75179,1116.53844 L1476.35109,1175.59529 Z M1372.89798,1235.83977 L1270.84784,1176.80028 L1372.23615,1117.75335 L1474.28381,1176.80028 L1372.89798,1235.83977 Z M1268.75082,1175.58537 L1166.70316,1116.54092 L1268.08899,1057.50143 L1370.13665,1116.54092 L1268.75082,1175.58537 Z M1165.28036,1235.84225 L1063.23518,1176.80028 L1164.63588,1117.74343 L1266.68602,1176.78788 L1165.28036,1235.84225 Z M1061.15303,1175.59529 L959.088016,1116.54092 L1060.48872,1057.48655 L1162.55621,1116.54092 L1061.15303,1175.59529 Z M957.699916,1235.84225 L855.637385,1176.79284 L957.01826,1117.74343 L1059.08575,1176.80028 L957.699916,1235.84225 Z M751.505097,1116.5434 L852.888451,1057.50143 L954.938589,1116.54092 L853.555235,1175.58537 L751.505097,1116.5434 Z M750.082295,1235.84225 L648.034636,1176.80276 L749.420469,1117.75583 L851.468128,1176.80276 L750.082295,1235.84225 Z M645.954965,1175.59777 L543.889955,1116.5434 L645.273309,1057.50143 L747.338319,1116.55332 L645.954965,1175.59777 Z M542.484504,1235.85464 L440.417015,1176.80276 L541.822677,1117.74591 L643.887687,1176.80276 L542.484504,1235.85464 Z M438.337344,1175.59777 L336.289685,1116.5558 L437.692869,1057.50143 L539.740527,1116.5434 L438.337344,1175.59777 Z M334.884234,1235.84721 L232.836575,1176.80524 L334.222408,1117.75831 L436.270066,1176.80276 L334.884234,1235.84721 Z M230.756904,1175.60025 L128.691894,1116.54588 L230.075248,1057.50143 L332.140258,1116.5558 L230.756904,1175.60025 Z M127.286442,1235.85712 L25.2189537,1176.80524 L126.624616,1117.75087 L228.689626,1176.80524 L127.286442,1235.85712 Z M23.1417613,1175.60025 L-78.9083762,1116.55828 L22.4972863,1057.50391 L124.542466,1116.54588 L23.1417613,1175.60025 Z M-79.585075,996.042045 L21.8007575,936.995116 L123.865768,996.049483 L22.4824138,1055.09889 L-79.585075,996.042045 Z M-80.2617738,875.548127 L21.1389312,816.491281 L123.189069,875.53573 L21.785885,934.587618 L-80.2617738,875.548127 Z M-80.9384725,755.029416 L20.44736,695.984966 L122.49254,755.024457 L21.1091862,814.071386 L-80.9384725,755.029416 Z M-81.6151713,634.513184 L19.7706613,575.468734 L121.835671,634.523101 L20.4523175,693.565071 L-81.6151713,634.513184 Z M-82.29187,514.016787 L19.1113137,454.962419 L121.161451,514.00439 L19.7557887,573.061236 L-82.29187,514.016787 Z M-82.9685687,393.500554 L18.4172638,334.456105 L120.484753,393.510472 L19.09892,452.554921 L-82.9685687,393.500554 Z M-83.6452675,273.006637 L17.7579163,213.947311 L119.803096,272.99424 L18.4023913,332.048607 L-83.6452675,273.006637 Z M-84.3219662,152.487925 L17.0638662,93.4434757 L119.126397,152.497843 L17.7430437,211.539813 L-84.3219662,152.487925 Z M-85.0011437,31.9940075 L16.4045188,-27.0603596 L118.449699,31.9816105 L17.0489938,91.0359775 L-85.0011437,31.9940075 Z M120.531849,33.1865993 L222.596859,92.2409663 L121.193675,151.292854 L19.1261863,92.2409663 L120.531849,33.1865993 Z M223.98248,-27.0653184 L326.04749,31.9915281 L224.664136,91.0359775 L122.599126,31.9816105 L223.98248,-27.0653184 Z M328.12964,33.1965169 L430.177299,92.2384869 L328.793945,151.282936 L226.746286,92.2409663 L328.12964,33.1965169 Z M431.60258,-27.0653184 L533.64776,31.9791311 L432.247055,91.0359775 L330.196917,31.9915281 L431.60258,-27.0653184 Z M535.72991,33.1841199 L637.79492,92.2384869 L536.391736,151.290375 L434.326726,92.2384869 L535.72991,33.1841199 Z M639.180541,-27.0653184 L741.245551,31.9915281 L639.862197,91.0334981 L537.797187,31.9791311 L639.180541,-27.0653184 Z M845.372881,92.2384869 L743.989528,151.280457 L641.941869,92.2384869 L743.327701,33.1965169 L845.372881,92.2384869 Z M846.798163,-27.0677978 L948.845821,31.9791311 L847.462468,91.0211011 L745.41233,31.9791311 L846.798163,-27.0677978 Z M950.927971,33.1841199 L1052.99298,92.2384869 L951.607149,151.280457 L849.542139,92.2260899 L950.927971,33.1841199 Z M1054.39595,-27.0777154 L1156.46344,31.9766517 L1055.06026,91.0310187 L952.995249,31.9791311 L1054.39595,-27.0777154 Z M1158.54559,33.1816404 L1260.59077,92.2260899 L1159.19007,151.280457 L1057.14241,92.2384869 L1158.54559,33.1816404 Z M1261.99375,-27.0677978 L1364.04388,31.9766517 L1262.66053,91.0186217 L1160.61287,31.9766517 L1261.99375,-27.0677978 Z M1366.14338,33.1915581 L1468.19104,92.2335281 L1366.80521,151.277978 L1264.75755,92.2335281 L1366.14338,33.1915581 Z M1469.61137,-27.0702772 L1571.6615,31.9766517 L1470.25832,91.0310187 L1368.21066,31.9890487 L1469.61137,-27.0702772 Z M1575.0797,271.784292 L1473.03204,212.739843 L1574.42035,153.695393 L1676.46553,212.739843 L1575.0797,271.784292 Z M1575.75392,392.300524 L1473.69139,333.246157 L1575.09705,274.19179 L1677.15958,333.246157 L1575.75392,392.300524 Z M1474.38544,453.749993 L1575.77375,394.708022 L1677.81893,453.749993 L1576.43558,512.796921 L1474.38544,453.749993 Z M1577.11227,633.315633 L1475.04479,574.258787 L1576.43062,515.211858 L1678.49563,574.268704 L1577.11227,633.315633 Z M1577.76914,753.816989 L1475.72149,694.775019 L1577.12715,635.720652 L1679.17233,694.765101 L1577.76914,753.816989 Z M1578.46567,874.325783 L1476.39818,815.268936 L1577.78402,756.224487 L1679.84903,815.278854 L1578.46567,874.325783 Z M1579.12254,994.832097 L1477.07488,935.787648 L1578.48055,876.733281 L1680.52573,935.775251 L1579.12254,994.832097 Z M1579.15477,997.249513 L1681.20242,1056.29148 L1579.82155,1115.33841 L1477.77141,1056.29148 L1579.15477,997.249513 Z M1373.62177,996.034607 L1475.01256,936.990157 L1577.05774,996.034607 L1475.67191,1055.07906 L1373.62177,996.034607 Z M1371.55697,997.242075 L1473.60463,1056.28157 L1372.20145,1115.33841 L1270.15379,1056.29644 L1371.55697,997.242075 Z M1166.00663,996.037086 L1267.40981,936.98024 L1369.47482,996.034607 L1268.07164,1055.09145 L1166.00663,996.037086 Z M1163.93935,997.242075 L1266.00684,1056.29644 L1164.62101,1115.33841 L1062.556,1056.28404 L1163.93935,997.242075 Z M958.42619,996.037086 L1059.8145,936.990157 L1161.85968,996.037086 L1060.47385,1055.07906 L958.42619,996.037086 Z M956.358913,997.242075 L1058.40657,1056.28404 L957.005866,1115.33841 L854.958208,1056.29644 L956.358913,997.242075 Z M750.811047,996.037086 L852.214231,936.98024 L954.279241,996.037086 L852.876057,1055.09145 L750.811047,996.037086 Z M748.74377,997.242075 L850.80878,1056.29644 L749.425426,1115.34089 L647.357937,1056.28652 L748.74377,997.242075 Z M543.230608,996.037086 L644.613961,936.992637 L746.66162,996.037086 L645.275788,1055.08401 L543.230608,996.037086 Z M541.145979,997.251993 L643.193637,1056.29892 L541.807805,1115.34089 L439.757668,1056.29892 L541.145979,997.251993 Z M335.612986,996.037086 L436.99634,936.992637 L539.063829,996.047004 L437.680475,1055.09393 L335.612986,996.037086 Z M333.545709,997.244554 L435.613198,1056.29892 L334.207535,1115.35329 L232.142525,1056.29892 L333.545709,997.244554 Z M128.015195,996.049483 L229.4159,936.995116 L331.463559,996.037086 L230.062854,1055.09393 L128.015195,996.049483 Z M125.947917,997.256951 L227.995576,1056.29892 L126.609744,1115.34337 L24.5645637,1056.3014 L125.947917,997.256951 Z M125.26874,876.73824 L227.336229,935.792607 L125.933045,994.846974 L23.868035,935.792607 L125.26874,876.73824 Z M124.592041,756.244322 L226.642179,815.283813 L125.256346,874.333221 L23.2086875,815.283813 L124.592041,756.244322 Z M123.915343,635.72561 L225.96548,694.77006 L124.579648,753.814509 L22.52951,694.77006 L123.915343,635.72561 Z M123.238644,515.209378 L225.306133,574.266225 L123.902949,633.318112 L21.8379387,574.266225 L123.238644,515.209378 Z M122.561945,394.715461 L224.612082,453.757431 L123.22625,512.80188 L21.18107,453.757431 L122.561945,394.715461 Z M121.885246,274.196749 L223.952735,333.253596 L122.55203,392.305483 L20.4845412,333.253596 L121.885246,274.196749 Z M223.256206,212.744801 L121.875331,271.79173 L19.8251937,212.747281 L121.208548,153.702831 L223.256206,212.744801 Z M225.323484,211.539813 L123.275825,152.497843 L224.679009,93.4434757 L326.724189,152.485446 L225.323484,211.539813 Z M430.873828,212.744801 L329.470644,271.799169 L227.403155,212.744801 L328.806339,153.690434 L430.873828,212.744801 Z M432.941105,211.539813 L330.873616,152.485446 L432.25697,93.4434757 L534.324459,152.495363 L432.941105,211.539813 Z M638.451789,212.744801 L537.068435,271.789251 L435.023255,212.744801 L536.406609,153.700352 L638.451789,212.744801 Z M640.519066,211.539813 L538.473886,152.495363 L639.874591,93.4409963 L741.92225,152.482966 L640.519066,211.539813 Z M846.071889,212.742322 L744.666226,271.799169 L642.601216,212.744801 L744.0044,153.687955 L846.071889,212.742322 Z M848.139166,211.537333 L746.071677,152.482966 L847.455031,93.4409963 L949.52252,152.495363 L848.139166,211.537333 Z M1053.64985,212.742322 L952.266496,271.789251 L850.218837,212.742322 L951.602191,153.700352 L1053.64985,212.742322 Z M1055.73696,211.524936 L953.689299,152.482966 L1055.07513,93.4385169 L1157.12279,152.482966 L1055.73696,211.524936 Z M1261.26747,212.742322 L1159.88412,271.784292 L1057.83646,212.742322 L1159.22229,153.695393 L1261.26747,212.742322 Z M1263.33475,211.537333 L1161.28957,152.492884 L1262.69027,93.4385169 L1364.73793,152.480487 L1263.33475,211.537333 Z M1468.88757,212.739843 L1367.48191,271.796689 L1265.4169,212.742322 L1366.8176,153.685476 L1468.88757,212.739843 Z M1470.94989,211.534854 L1368.88488,152.480487 L1470.27071,93.4385169 L1572.3382,152.492884 L1470.94989,211.534854 Z M1471.61172,332.043648 L1369.56406,272.999199 L1470.96724,213.942352 L1573.0149,272.986801 L1471.61172,332.043648 Z M1370.24076,393.493116 L1471.62411,334.451146 L1573.6916,393.505513 L1472.30329,452.547483 L1370.24076,393.493116 Z M1472.96264,573.053798 L1370.91498,514.011828 L1472.30081,454.964899 L1574.35095,514.009348 L1472.96264,573.053798 Z M1473.63934,693.57003 L1371.5768,634.515663 L1472.97751,575.463775 L1575.045,634.515663 L1473.63934,693.57003 Z M1474.31603,814.066427 L1372.26838,755.021978 L1473.65421,695.980007 L1575.70435,755.021978 L1474.31603,814.066427 Z M1372.9302,875.530772 L1474.33091,816.476404 L1576.3984,875.530772 L1474.99273,934.58018 L1372.9302,875.530772 Z M1370.86292,876.733281 L1472.93041,935.787648 L1371.5421,994.832097 L1269.47709,935.775251 L1370.86292,876.733281 Z M1165.34976,875.530772 L1266.73311,816.483843 L1368.78325,875.530772 L1267.39742,934.572742 L1165.34976,875.530772 Z M1163.28248,876.733281 L1265.33262,935.775251 L1163.92696,994.832097 L1061.88178,935.787648 L1163.28248,876.733281 Z M957.734619,875.530772 L1059.13532,816.476404 L1161.20281,875.530772 L1059.79963,934.58018 L957.734619,875.530772 Z M955.667341,876.733281 L1057.73235,935.787648 L956.346519,994.832097 L854.283988,935.77773 L955.667341,876.733281 Z M750.1517,875.533251 L851.535054,816.486322 L953.585191,875.530772 L852.199359,934.572742 L750.1517,875.533251 Z M748.084422,876.73576 L850.132081,935.77773 L748.728897,994.832097 L646.681239,935.790127 L748.084422,876.73576 Z M542.534079,875.533251 L643.937263,816.478884 L746.002273,875.533251 L644.599089,934.585139 L542.534079,875.533251 Z M540.466801,876.73576 L642.531811,935.790127 L541.148457,994.834577 L439.080969,935.78021 L540.466801,876.73576 Z M334.953639,875.53573 L436.336992,816.488801 L538.38713,875.533251 L437.003776,934.575221 L334.953639,875.53573 Z M332.86901,876.748157 L434.916669,935.790127 L333.530836,994.834577 L231.483178,935.792607 L332.86901,876.748157 Z M330.78686,875.543169 L229.401027,934.587618 L127.338496,875.53573 L228.72185,816.488801 L330.78686,875.543169 Z M228.062502,695.984966 L330.110161,755.024457 L228.726807,814.068906 L126.679149,755.024457 L228.062502,695.984966 Z M227.385804,575.468734 L329.433463,634.513184 L228.032757,693.565071 L125.98262,634.523101 L227.385804,575.468734 Z M226.689275,454.95994 L328.756764,514.014307 L227.37341,573.061236 L125.305921,514.00439 L226.689275,454.95994 Z M226.034885,334.456105 L328.082544,393.498075 L226.67936,452.552442 L124.629223,393.510472 L226.034885,334.456105 Z M226.020013,332.048607 L123.952524,272.99424 L225.335878,213.947311 L327.403366,273.004157 L226.020013,332.048607 Z M431.533175,333.251116 L330.149821,392.295566 L228.102162,333.253596 L329.485516,274.206667 L431.533175,333.251116 Z M433.600453,332.046127 L331.552794,273.004157 L432.955978,213.947311 L535.001158,272.99176 L433.600453,332.046127 Z M639.150796,333.251116 L537.745134,392.303004 L435.677645,333.253596 L537.083307,274.19427 L639.150796,333.251116 Z M641.215595,332.046127 L539.150585,272.99176 L640.533939,213.947311 L742.601428,273.004157 L641.215595,332.046127 Z M846.728757,333.251116 L745.345404,392.293086 L643.297745,333.251116 L744.681099,274.206667 L846.728757,333.251116 Z M848.796035,332.046127 L746.748376,273.004157 L848.15156,213.944831 L950.199219,272.99176 L848.796035,332.046127 Z M1054.34886,333.246157 L952.943195,392.303004 L850.893058,333.261034 L952.29872,274.204187 L1054.34886,333.246157 Z M1056.41613,332.046127 L954.365997,272.999199 L1055.74935,213.957228 L1157.79949,272.999199 L1056.41613,332.046127 Z M1261.94665,333.258554 L1160.56082,392.300524 L1058.49581,333.246157 L1159.87916,274.204187 L1261.94665,333.258554 Z M1264.0288,332.043648 L1161.96627,272.986801 L1263.34714,213.944831 L1365.41463,272.999199 L1264.0288,332.043648 Z M1266.11095,333.246157 L1367.49678,274.204187 L1469.54444,333.246157 L1368.15861,392.290607 L1266.11095,333.246157 Z M1368.83531,512.809318 L1266.7703,453.754951 L1368.15117,394.708022 L1470.22362,453.76239 L1368.83531,512.809318 Z M1369.49465,633.315633 L1267.447,574.271184 L1368.85018,515.216816 L1470.89784,574.258787 L1369.49465,633.315633 Z M1370.1887,753.816989 L1268.12369,694.767581 L1369.50953,635.720652 L1471.57702,694.775019 L1370.1887,753.816989 Z M1370.2011,756.224487 L1472.25123,815.268936 L1370.84805,874.325783 L1268.80039,815.281333 L1370.2011,756.224487 Z M1164.65571,755.021978 L1266.05642,695.97009 L1368.1239,755.021978 L1266.71824,814.078824 L1164.65571,755.021978 Z M1162.58843,756.229446 L1264.65344,815.281333 L1163.27009,874.325783 L1061.2026,815.268936 L1162.58843,756.229446 Z M957.072793,755.021978 L1058.4611,695.980007 L1160.50628,755.021978 L1059.12045,814.066427 L957.072793,755.021978 Z M955.005515,756.229446 L1057.05317,815.268936 L955.652469,874.325783 L853.602331,815.281333 L955.005515,756.229446 Z M749.45765,755.021978 L850.858355,695.97009 L952.925844,755.021978 L851.52266,814.078824 L749.45765,755.021978 Z M747.390372,756.229446 L849.455382,815.281333 L748.072029,874.328262 L646.00454,815.273895 L747.390372,756.229446 Z M541.87721,755.024457 L643.260564,695.982487 L745.308222,755.021978 L643.92239,814.068906 L541.87721,755.024457 Z M539.809933,756.231925 L641.855113,815.273895 L540.454408,874.328262 L438.40427,815.283813 L539.809933,756.231925 Z M334.259589,755.024457 L435.660294,695.972569 L537.727783,755.024457 L436.327078,814.081303 L334.259589,755.024457 Z M332.192311,756.231925 L434.2598,815.283813 L332.873967,874.328262 L230.806479,815.273895 L332.192311,756.231925 Z M331.532964,635.723131 L433.583101,694.77006 L332.177439,753.824427 L230.12978,694.782457 L331.532964,635.723131 Z M330.838914,515.219296 L432.886573,574.261266 L331.50074,633.308195 L229.453081,574.266225 L330.838914,515.219296 Z M432.227225,453.757431 L330.824041,512.811798 L228.756552,453.757431 L330.162215,394.703064 L432.227225,453.757431 Z M434.294503,452.552442 L332.229493,393.498075 L433.615325,334.453625 L535.680335,393.507993 L434.294503,452.552442 Z M639.810144,453.757431 L538.421833,512.799401 L436.374174,453.757431 L537.760006,394.710502 L639.810144,453.757431 Z M641.874942,452.552442 L539.827284,393.507993 L641.230467,334.453625 L743.278126,393.495596 L641.874942,452.552442 Z M847.425286,453.754951 L746.022103,512.811798 L643.971965,453.764869 L745.377628,394.710502 L847.425286,453.754951 Z M849.492564,452.549963 L747.444905,393.507993 L848.828259,334.466022 L950.875918,393.507993 L849.492564,452.549963 Z M1055.02308,453.764869 L953.639724,512.809318 L851.572235,453.754951 L952.958067,394.710502 L1055.02308,453.764869 Z M1057.09036,452.56236 L955.025345,393.507993 L1056.42605,334.453625 L1158.49354,393.505513 L1057.09036,452.56236 Z M1262.62087,453.754951 L1161.22016,512.809318 L1059.17003,453.764869 L1160.57569,394.708022 L1262.62087,453.754951 Z M1264.68815,452.549963 L1162.64297,393.505513 L1264.02384,334.461064 L1366.07398,393.505513 L1264.68815,452.549963 Z M1265.36485,573.066195 L1163.29984,514.011828 L1264.70054,454.957461 L1366.77051,514.011828 L1265.36485,573.066195 Z M1163.99636,634.515663 L1265.37724,575.473693 L1367.42738,634.515663 L1266.04154,693.562592 L1163.99636,634.515663 Z M1161.92909,635.720652 L1263.97427,694.767581 L1162.57356,753.819468 L1060.52838,694.777498 L1161.92909,635.720652 Z M956.378743,634.520622 L1057.77945,575.466255 L1159.84694,634.515663 L1058.44623,693.572509 L956.378743,634.520622 Z M954.311465,635.720652 L1056.37895,694.775019 L954.993121,753.819468 L852.925633,694.767581 L954.311465,635.720652 Z M748.798303,634.520622 L850.181656,575.473693 L952.231794,634.515663 L850.845961,693.562592 L748.798303,634.520622 Z M746.731025,635.723131 L848.778684,694.767581 L747.3755,753.819468 L645.327841,694.777498 L746.731025,635.723131 Z M541.180681,634.520622 L642.583865,575.466255 L744.648875,634.520622 L643.24817,693.572509 L541.180681,634.520622 Z M539.113404,635.723131 L641.180893,694.777498 L539.79506,753.824427 L437.727571,694.77006 L539.113404,635.723131 Z M434.983595,575.476172 L537.033732,634.520622 L435.650379,693.565071 L333.600241,634.520622 L434.983595,575.476172 Z M434.95385,573.058757 L332.906191,514.014307 L434.309375,454.95994 L536.357034,514.00191 L434.95385,573.058757 Z M640.504194,574.261266 L539.10101,633.318112 L437.050873,574.273663 L538.456535,515.219296 L640.504194,574.261266 Z M642.571471,573.058757 L540.523812,514.014307 L641.907166,454.969858 L743.954825,514.011828 L642.571471,573.058757 Z M848.101985,574.271184 L746.716152,633.318112 L644.651142,574.261266 L746.036975,515.216816 L848.101985,574.271184 Z M850.169263,573.068674 L748.101774,514.014307 L849.504958,454.957461 L951.572446,514.011828 L850.169263,573.068674 Z M1055.69978,574.261266 L954.296592,633.318112 L852.248934,574.273663 L953.652117,515.216816 L1055.69978,574.261266 Z M1161.23256,515.216816 L1263.29757,574.271184 L1161.91421,633.315633 L1059.84673,574.261266 L1161.23256,515.216816 Z M1057.76705,573.058757 L955.719395,514.011828 L1057.10275,454.969858 L1159.15289,514.011828 L1057.76705,573.058757 Z M1573.74118,33.1816404 L1675.80618,92.2310487 L1574.40548,151.287895 L1472.33799,92.2335281 L1573.74118,33.1816404 Z M1841,-3.97217978 L1781.32657,30.7815805 L1679.25908,-28.2727865 L1732.01928,-59 L1727.87233,-59 L1677.17941,-29.4777753 L1626.15434,-59 L1622.00492,-59 L1675.11213,-28.2727865 L1573.72878,30.7741423 L1471.67864,-28.2727865 L1524.44132,-59 L1520.25966,-59 L1469.57914,-29.4852135 L1418.57142,-59 L1414.422,-59 L1467.51186,-28.2802247 L1366.11116,30.7741423 L1264.0635,-28.2703071 L1316.82369,-59 L1312.67922,-59 L1261.98135,-29.4728165 L1210.94885,-59 L1206.80438,-59 L1259.91159,-28.2703071 L1158.53072,30.7741423 L1056.46323,-28.2802247 L1109.20855,-59 L1105.0616,-59 L1054.38108,-29.4852135 L1003.37336,-59 L999.223936,-59 L1052.3138,-28.2802247 L950.913099,30.7741423 L848.86544,-28.2703071 L901.63307,-59 L897.483642,-59 L846.785769,-29.4728165 L795.753264,-59 L791.606315,-59 L844.718491,-28.2703071 L743.332659,30.7741423 L641.26517,-28.2777453 L694.015449,-59 L689.866021,-59 L639.18302,-29.4827341 L588.170345,-59 L583.986215,-59 L637.10087,-28.2653483 L535.715037,30.7741423 L433.669857,-28.2653483 L486.437487,-59 L482.28806,-59 L431.587707,-29.4703371 L380.552724,-59 L376.403296,-59 L429.52043,-28.2653483 L328.117246,30.7865393 L226.049757,-28.2653483 L278.819866,-59 L274.672917,-59 L223.970086,-29.4703371 L172.935102,-59 L168.785675,-59 L221.902809,-28.2653483 L120.516976,30.7766217 L18.4717962,-28.2653483 L71.2468625,-59 L67.097435,-59 L16.3896462,-29.4678577 L-34.650295,-59 L-38.7997225,-59 L14.3223687,-28.2653483 L-87.080815,30.7890187 L-142,-0.986981273 L-142,1.41307865 L-89.1480925,31.9940075 L-142,62.7732884 L-142,65.1882247 L-87.0659425,33.1989963 L14.9817162,92.2409663 L-86.4041163,151.285416 L-142,119.11767 L-142,121.515251 L-88.4713938,152.487925 L-142,183.66391 L-142,186.078846 L-86.3892438,153.692914 L15.6757662,212.747281 L-85.7249388,271.801648 L-142,239.242157 L-142,241.642217 L-87.7922163,273.006637 L-142,304.571888 L-142,306.989303 L-85.712545,274.209146 L16.3351137,333.253596 L-85.04824,392.298045 L-142,359.346809 L-142,361.746869 L-87.1155175,393.500554 L-142,425.464989 L-142,427.879925 L-85.0358463,394.705543 L17.0291637,453.757431 L-84.3715413,512.811798 L-142,479.471296 L-142,481.871356 L-86.4388188,514.016787 L-142,546.372966 L-142,548.790382 L-84.3591475,515.221775 L17.6885112,574.266225 L-83.6973213,633.308195 L-142,599.573468 L-142,601.995843 L-85.7794713,634.523101 L-142,667.263588 L-142,669.681004 L-83.6998,635.72561 L18.36521,694.782457 L-83.0206225,753.824427 L-142,719.697955 L-142,722.100494 L-85.0879,755.029416 L-142,788.176524 L-142,790.591461 L-83.00575,756.234404 L19.0419087,815.276375 L-82.3587963,874.333221 L-142,839.824921 L-142,842.224981 L-84.4260738,875.53573 L-142,909.064667 L-142,911.501918 L-82.3290513,876.750637 L19.7186075,935.792607 L-81.667225,994.837056 L-142,959.927094 L-142,962.329633 L-83.7345025,996.042045 L-142,1029.97512 L-142,1032.39254 L-81.6523525,997.247034 L20.4151362,1056.3014 L-80.9880475,1115.35577 L-142,1080.05406 L-142,1082.45412 L-83.0578038,1116.55828 L-142,1150.88806 L-142,1153.30052 L-80.9756538,1117.76079 L21.0744837,1176.80524 L-80.3113488,1235.84969 L-142,1200.15871 L-142,1202.55877 L-82.381105,1237.05467 L-130.364747,1265 L-126.21532,1265 L-80.298955,1238.25718 L-34.0801825,1265 L-29.9332338,1265 L-78.2316775,1237.05467 L23.1516762,1178.01022 L125.219165,1237.06211 L77.250395,1265 L81.3973437,1265 L127.301315,1238.2671 L173.505215,1265 L177.652164,1265 L129.368592,1237.06211 L230.769297,1178.01022 L332.816956,1237.05219 L284.830835,1265 L288.975305,1265 L334.899106,1238.2547 L381.122836,1265 L385.272264,1265 L336.966384,1237.05219 L438.349737,1178.00775 L540.417226,1237.05715 L492.445977,1265 L496.592926,1265 L542.499376,1238.26462 L588.705755,1265 L592.850225,1265 L544.566654,1237.05715 L645.967359,1178.00775 L748.015017,1237.04972 L700.023939,1265 L704.173366,1265 L750.097167,1238.25222 L796.323376,1265 L800.472804,1265 L752.164445,1237.04972 L853.547799,1178.00775 L955.617766,1237.05715 L907.639081,1265 L911.788509,1265 L957.69248,1238.26462 L1003.90629,1265 L1008.08795,1265 L959.779587,1237.04972 L1061.1679,1178.00279 L1163.21308,1237.04972 L1115.21952,1265 L1119.40365,1265 L1165.31506,1238.26214 L1211.52392,1265 L1215.67334,1265 L1167.37738,1237.05715 L1268.78304,1178.00279 L1370.8307,1237.04972 L1322.83466,1265 L1326.98161,1265 L1372.91037,1238.24975 L1419.14154,1265 L1423.28849,1265 L1374.97765,1237.04972 L1476.36596,1178.00279 L1578.42601,1237.05467 L1530.44981,1265 L1534.59675,1265 L1580.50816,1238.26214 L1626.72446,1265 L1630.87388,1265 L1582.57544,1237.05467 L1683.97862,1178.00279 L1786.02628,1237.04476 L1738.03025,1265 L1742.17472,1265 L1788.10595,1238.24975 L1834.34208,1265 L1838.48655,1265 L1790.17571,1237.04476 L1841,1207.44319 L1841,1205.03073 L1788.09356,1235.83977 L1686.04838,1176.7978 L1787.43173,1117.75335 L1841,1148.74586 L1841,1146.34828 L1789.50149,1116.54836 L1841,1086.55505 L1841,1084.14011 L1787.41934,1115.34585 L1685.35185,1056.29148 L1786.75256,997.237116 L1841,1028.62137 L1841,1026.22131 L1788.81983,996.034607 L1841,965.644592 L1841,963.232135 L1786.74016,994.829618 L1684.6925,935.787648 L1786.07834,876.740719 L1841,908.521678 L1841,906.116659 L1788.14561,875.53821 L1841,844.756449 L1841,842.316719 L1786.04611,874.323303 L1683.99597,815.278854 L1785.39916,756.224487 L1841,788.392232 L1841,785.994652 L1787.46644,755.021978 L1841,723.845993 L1841,721.428577 L1785.38676,753.816989 L1683.31928,694.765101 L1784.70511,635.720652 L1841,668.292539 L1841,665.867685 L1786.79222,634.505745 L1841,602.935536 L1841,600.520599 L1784.71254,633.303236 L1682.66241,574.256307 L1784.04576,515.211858 L1841,548.165573 L1841,545.765513 L1786.11304,514.009348 L1841,482.044914 L1841,479.627498 L1784.03337,512.80436 L1681.96588,453.749993 L1783.36906,394.698105 L1841,428.041086 L1841,425.641026 L1785.43634,393.493116 L1841,361.134457 L1841,358.719521 L1783.35667,392.290607 L1681.30901,333.246157 L1782.69484,274.201708 L1841,307.936434 L1841,305.536375 L1784.76212,272.996719 L1841,240.243835 L1841,237.828899 L1782.67997,271.79421 L1680.61496,212.739843 L1782.01566,153.685476 L1841,187.811948 L1841,185.411888 L1784.08294,152.480487 L1841,119.333378 L1841,116.918442 L1782.00327,151.277978 L1679.95809,92.2310487 L1781.34144,33.1890787 L1841,67.7072959 L1841,65.307236 L1783.40872,31.9840899 L1841,-1.55724345 L1841,-3.97217978 Z"></path>
            </g>
        </g>
    </g>
</svg>