<?xml version="1.0" encoding="UTF-8"?>
<svg width="1700px" height="1324px" viewBox="0 0 1700 1324" version="1.1" xmlns="http://www.w3.org/2000/svg" xmlns:xlink="http://www.w3.org/1999/xlink">
    <!-- Generator: Sketch 55.2 (78181) - https://sketchapp.com -->
    <title>Fill 1</title>
    <desc>Created with Sketch.</desc>
    <defs>
        <linearGradient x1="50.5871276%" y1="100.666255%" x2="50.5871276%" y2="0%" id="linearGradient-1">
            <stop stop-color="#FEFFFF" offset="0%"></stop>
            <stop stop-color="#D5D7E6" offset="51.9874367%"></stop>
            <stop stop-color="#F6F7FC" offset="100%"></stop>
        </linearGradient>
    </defs>
    <g id="Home" stroke="none" stroke-width="1" fill="none" fill-rule="evenodd" opacity="0.200000003">
        <g transform="translate(0.000000, -2599.000000)" fill="url(#linearGradient-1)" id="IOT-Security-The-Easy-and-Safe-Way">
            <g transform="translate(-6.000000, 2266.000000)">
                <path d="M1617.87346,483.031019 L1515.80845,423.976652 L1617.19181,364.929723 L1719.25929,423.98409 L1617.87346,483.031019 Z M1719.93599,544.480487 L1618.53281,603.534854 L1516.48763,544.492884 L1617.88834,485.438517 L1719.93599,544.480487 Z M1720.61269,664.996719 L1619.22686,724.038689 L1517.16185,664.986801 L1618.54768,605.942352 L1720.61269,664.996719 Z M1721.28939,785.493116 L1619.88621,844.547483 L1517.83607,785.505513 L1619.24173,726.448667 L1721.28939,785.493116 Z M1721.96609,906.009348 L1620.58026,965.053798 L1518.51277,905.999431 L1619.90108,846.954981 L1721.96609,906.009348 Z M1722.62544,1026.51318 L1621.2396,1085.55763 L1519.19195,1026.51566 L1620.57778,967.471213 L1722.62544,1026.51318 Z M1723.31701,1147.02198 L1621.9163,1206.07634 L1519.85129,1147.02198 L1621.25448,1087.96761 L1723.31701,1147.02198 Z M1723.97884,1267.53077 L1622.593,1326.57026 L1520.54534,1267.53077 L1621.93118,1208.48384 L1723.97884,1267.53077 Z M1724.67041,1388.03461 L1623.2697,1447.08897 L1521.22204,1388.04452 L1622.62523,1328.99016 L1724.67041,1388.03461 Z M1725.35206,1508.54836 L1623.96623,1567.59529 L1521.90122,1508.53844 L1623.28457,1449.49647 L1725.35206,1508.54836 Z M1520.49825,1627.85216 L1418.43076,1568.80028 L1519.83394,1509.74343 L1621.89895,1568.7978 L1520.49825,1627.85216 Z M1416.35109,1567.59529 L1314.30095,1508.54836 L1415.70413,1449.50143 L1517.75179,1508.53844 L1416.35109,1567.59529 Z M1312.89798,1627.83977 L1210.84784,1568.80028 L1312.23615,1509.75335 L1414.28381,1568.80028 L1312.89798,1627.83977 Z M1208.75082,1567.58537 L1106.70316,1508.54092 L1208.08899,1449.50143 L1310.13665,1508.54092 L1208.75082,1567.58537 Z M1105.28036,1627.84225 L1003.23518,1568.80028 L1104.63588,1509.74343 L1206.68602,1568.78788 L1105.28036,1627.84225 Z M1001.15303,1567.59529 L899.088016,1508.54092 L1000.48872,1449.48655 L1102.55621,1508.54092 L1001.15303,1567.59529 Z M897.699916,1627.84225 L795.637385,1568.79284 L897.01826,1509.74343 L999.085749,1568.80028 L897.699916,1627.84225 Z M691.505097,1508.5434 L792.888451,1449.50143 L894.938589,1508.54092 L793.555235,1567.58537 L691.505097,1508.5434 Z M690.082295,1627.84225 L588.034636,1568.80276 L689.420469,1509.75583 L791.468128,1568.80276 L690.082295,1627.84225 Z M585.954965,1567.59777 L483.889955,1508.5434 L585.273309,1449.50143 L687.338319,1508.55332 L585.954965,1567.59777 Z M482.484504,1627.85464 L380.417015,1568.80276 L481.822677,1509.74591 L583.887687,1568.80276 L482.484504,1627.85464 Z M378.337344,1567.59777 L276.289685,1508.5558 L377.692869,1449.50143 L479.740527,1508.5434 L378.337344,1567.59777 Z M274.884234,1627.84721 L172.836575,1568.80524 L274.222408,1509.75831 L376.270066,1568.80276 L274.884234,1627.84721 Z M170.756904,1567.60025 L68.6918937,1508.54588 L170.075248,1449.50143 L272.140258,1508.5558 L170.756904,1567.60025 Z M67.2864425,1627.85712 L-34.7810463,1568.80524 L66.6246162,1509.75087 L168.689626,1568.80524 L67.2864425,1627.85712 Z M-36.8582387,1567.60025 L-138.908376,1508.55828 L-37.5027137,1449.50391 L64.5424663,1508.54588 L-36.8582387,1567.60025 Z M-139.585075,1388.04204 L-38.1992425,1328.99512 L63.8657675,1388.04948 L-37.5175862,1447.09889 L-139.585075,1388.04204 Z M-140.261774,1267.54813 L-38.8610688,1208.49128 L63.1890687,1267.53573 L-38.214115,1326.58762 L-140.261774,1267.54813 Z M-140.938473,1147.02942 L-39.55264,1087.98497 L62.49254,1147.02446 L-38.8908138,1206.07139 L-140.938473,1147.02942 Z M-141.615171,1026.51318 L-40.2293387,967.468734 L61.8356713,1026.5231 L-39.5476825,1085.56507 L-141.615171,1026.51318 Z M-142.29187,906.016787 L-40.8886863,846.962419 L61.1614512,906.00439 L-40.2442113,965.061236 L-142.29187,906.016787 Z M-142.968569,785.500554 L-41.5827362,726.456105 L60.4847525,785.510472 L-40.90108,844.554921 L-142.968569,785.500554 Z M-143.645267,665.006637 L-42.2420837,605.947311 L59.8030963,664.99424 L-41.5976087,724.048607 L-143.645267,665.006637 Z M-144.321966,544.487925 L-42.9361338,485.443476 L59.1263975,544.497843 L-42.2569563,603.539813 L-144.321966,544.487925 Z M-145.001144,423.994007 L-43.5954812,364.93964 L58.4496988,423.98161 L-42.9510062,483.035978 L-145.001144,423.994007 Z M60.5318487,425.186599 L162.596859,484.240966 L61.193675,543.292854 L-40.8738137,484.240966 L60.5318487,425.186599 Z M163.98248,364.934682 L266.04749,423.991528 L164.664136,483.035978 L62.5991263,423.98161 L163.98248,364.934682 Z M268.12964,425.196517 L370.177299,484.238487 L268.793945,543.282936 L166.746286,484.240966 L268.12964,425.196517 Z M371.60258,364.934682 L473.64776,423.979131 L372.247055,483.035978 L270.196917,423.991528 L371.60258,364.934682 Z M475.72991,425.18412 L577.79492,484.238487 L476.391736,543.290375 L374.326726,484.238487 L475.72991,425.18412 Z M579.180541,364.934682 L681.245551,423.991528 L579.862197,483.033498 L477.797187,423.979131 L579.180541,364.934682 Z M785.372881,484.238487 L683.989528,543.280457 L581.941869,484.238487 L683.327701,425.196517 L785.372881,484.238487 Z M786.798163,364.932202 L888.845821,423.979131 L787.462468,483.021101 L685.41233,423.979131 L786.798163,364.932202 Z M890.927971,425.18412 L992.992981,484.238487 L891.607149,543.280457 L789.542139,484.22609 L890.927971,425.18412 Z M994.395954,364.922285 L1096.46344,423.976652 L995.060259,483.031019 L892.995249,423.979131 L994.395954,364.922285 Z M1098.54559,425.18164 L1200.59077,484.22609 L1099.19007,543.280457 L997.142409,484.238487 L1098.54559,425.18164 Z M1201.99375,364.932202 L1304.04388,423.976652 L1202.66053,483.018622 L1100.61287,423.976652 L1201.99375,364.932202 Z M1306.14338,425.191558 L1408.19104,484.233528 L1306.80521,543.277978 L1204.75755,484.233528 L1306.14338,425.191558 Z M1409.61137,364.929723 L1511.6615,423.976652 L1410.25832,483.031019 L1308.21066,423.989049 L1409.61137,364.929723 Z M1515.0797,663.784292 L1413.03204,604.739843 L1514.42035,545.695393 L1616.46553,604.739843 L1515.0797,663.784292 Z M1515.75392,784.300524 L1413.69139,725.246157 L1515.09705,666.19179 L1617.15958,725.246157 L1515.75392,784.300524 Z M1414.38544,845.749993 L1515.77375,786.708022 L1617.81893,845.749993 L1516.43558,904.796921 L1414.38544,845.749993 Z M1517.11227,1025.31563 L1415.04479,966.258787 L1516.43062,907.211858 L1618.49563,966.268704 L1517.11227,1025.31563 Z M1517.76914,1145.81699 L1415.72149,1086.77502 L1517.12715,1027.72065 L1619.17233,1086.7651 L1517.76914,1145.81699 Z M1518.46567,1266.32578 L1416.39818,1207.26894 L1517.78402,1148.22449 L1619.84903,1207.27885 L1518.46567,1266.32578 Z M1519.12254,1386.8321 L1417.07488,1327.78765 L1518.48055,1268.73328 L1620.52573,1327.77525 L1519.12254,1386.8321 Z M1519.15477,1389.24951 L1621.20242,1448.29148 L1519.82155,1507.33841 L1417.77141,1448.29148 L1519.15477,1389.24951 Z M1313.62177,1388.03461 L1415.01256,1328.99016 L1517.05774,1388.03461 L1415.67191,1447.07906 L1313.62177,1388.03461 Z M1311.55697,1389.24207 L1413.60463,1448.28157 L1312.20145,1507.33841 L1210.15379,1448.29644 L1311.55697,1389.24207 Z M1106.00663,1388.03709 L1207.40981,1328.98024 L1309.47482,1388.03461 L1208.07164,1447.09145 L1106.00663,1388.03709 Z M1103.93935,1389.24207 L1206.00684,1448.29644 L1104.62101,1507.33841 L1002.556,1448.28404 L1103.93935,1389.24207 Z M898.42619,1388.03709 L999.814501,1328.99016 L1101.85968,1388.03709 L1000.47385,1447.07906 L898.42619,1388.03709 Z M896.358913,1389.24207 L998.406571,1448.28404 L897.005866,1507.33841 L794.958208,1448.29644 L896.358913,1389.24207 Z M690.811047,1388.03709 L792.214231,1328.98024 L894.279241,1388.03709 L792.876057,1447.09145 L690.811047,1388.03709 Z M688.74377,1389.24207 L790.80878,1448.29644 L689.425426,1507.34089 L587.357937,1448.28652 L688.74377,1389.24207 Z M483.230608,1388.03709 L584.613961,1328.99264 L686.66162,1388.03709 L585.275788,1447.08401 L483.230608,1388.03709 Z M481.145979,1389.25199 L583.193637,1448.29892 L481.807805,1507.34089 L379.757668,1448.29892 L481.145979,1389.25199 Z M275.612986,1388.03709 L376.99634,1328.99264 L479.063829,1388.047 L377.680475,1447.09393 L275.612986,1388.03709 Z M273.545709,1389.24455 L375.613198,1448.29892 L274.207535,1507.35329 L172.142525,1448.29892 L273.545709,1389.24455 Z M68.015195,1388.04948 L169.4159,1328.99512 L271.463559,1388.03709 L170.062854,1447.09393 L68.015195,1388.04948 Z M65.9479175,1389.25695 L167.995576,1448.29892 L66.6097437,1507.34337 L-35.4354363,1448.3014 L65.9479175,1389.25695 Z M65.26874,1268.73824 L167.336229,1327.79261 L65.933045,1386.84697 L-36.131965,1327.79261 L65.26874,1268.73824 Z M64.5920412,1148.24432 L166.642179,1207.28381 L65.2563462,1266.33322 L-36.7913125,1207.28381 L64.5920412,1148.24432 Z M63.9153425,1027.72561 L165.96548,1086.77006 L64.5796475,1145.81451 L-37.47049,1086.77006 L63.9153425,1027.72561 Z M63.2386437,907.209378 L165.306133,966.266225 L63.9029487,1025.31811 L-38.1620613,966.266225 L63.2386437,907.209378 Z M62.561945,786.715461 L164.612082,845.757431 L63.22625,904.80188 L-38.81893,845.757431 L62.561945,786.715461 Z M61.8852462,666.196749 L163.952735,725.253596 L62.55203,784.305483 L-39.5154588,725.253596 L61.8852462,666.196749 Z M163.256206,604.744801 L61.8753313,663.79173 L-40.1748063,604.747281 L61.2085475,545.702831 L163.256206,604.744801 Z M165.323484,603.539813 L63.275825,544.497843 L164.679009,485.443476 L266.724189,544.485446 L165.323484,603.539813 Z M370.873828,604.744801 L269.470644,663.799169 L167.403155,604.744801 L268.806339,545.690434 L370.873828,604.744801 Z M372.941105,603.539813 L270.873616,544.485446 L372.25697,485.443476 L474.324459,544.495363 L372.941105,603.539813 Z M578.451789,604.744801 L477.068435,663.789251 L375.023255,604.744801 L476.406609,545.700352 L578.451789,604.744801 Z M580.519066,603.539813 L478.473886,544.495363 L579.874591,485.440996 L681.92225,544.482966 L580.519066,603.539813 Z M786.071889,604.742322 L684.666226,663.799169 L582.601216,604.744801 L684.0044,545.687955 L786.071889,604.742322 Z M788.139166,603.537333 L686.071677,544.482966 L787.455031,485.440996 L889.52252,544.495363 L788.139166,603.537333 Z M993.64985,604.742322 L892.266496,663.789251 L790.218837,604.742322 L891.602191,545.700352 L993.64985,604.742322 Z M995.736957,603.524936 L893.689299,544.482966 L995.075131,485.438517 L1097.12279,544.482966 L995.736957,603.524936 Z M1201.26747,604.742322 L1099.88412,663.784292 L997.836459,604.742322 L1099.22229,545.695393 L1201.26747,604.742322 Z M1203.33475,603.537333 L1101.28957,544.492884 L1202.69027,485.438517 L1304.73793,544.480487 L1203.33475,603.537333 Z M1408.88757,604.739843 L1307.48191,663.796689 L1205.4169,604.742322 L1306.8176,545.685476 L1408.88757,604.739843 Z M1410.94989,603.534854 L1308.88488,544.480487 L1410.27071,485.438517 L1512.3382,544.492884 L1410.94989,603.534854 Z M1411.61172,724.043648 L1309.56406,664.999199 L1410.96724,605.942352 L1513.0149,664.986801 L1411.61172,724.043648 Z M1310.24076,785.493116 L1411.62411,726.451146 L1513.6916,785.505513 L1412.30329,844.547483 L1310.24076,785.493116 Z M1412.96264,965.053798 L1310.91498,906.011828 L1412.30081,846.964899 L1514.35095,906.009348 L1412.96264,965.053798 Z M1413.63934,1085.57003 L1311.5768,1026.51566 L1412.97751,967.463775 L1515.045,1026.51566 L1413.63934,1085.57003 Z M1414.31603,1206.06643 L1312.26838,1147.02198 L1413.65421,1087.98001 L1515.70435,1147.02198 L1414.31603,1206.06643 Z M1312.9302,1267.53077 L1414.33091,1208.4764 L1516.3984,1267.53077 L1414.99273,1326.58018 L1312.9302,1267.53077 Z M1310.86292,1268.73328 L1412.93041,1327.78765 L1311.5421,1386.8321 L1209.47709,1327.77525 L1310.86292,1268.73328 Z M1105.34976,1267.53077 L1206.73311,1208.48384 L1308.78325,1267.53077 L1207.39742,1326.57274 L1105.34976,1267.53077 Z M1103.28248,1268.73328 L1205.33262,1327.77525 L1103.92696,1386.8321 L1001.88178,1327.78765 L1103.28248,1268.73328 Z M897.734619,1267.53077 L999.135324,1208.4764 L1101.20281,1267.53077 L999.799629,1326.58018 L897.734619,1267.53077 Z M895.667341,1268.73328 L997.732351,1327.78765 L896.346519,1386.8321 L794.283988,1327.77773 L895.667341,1268.73328 Z M690.1517,1267.53325 L791.535054,1208.48632 L893.585191,1267.53077 L792.199359,1326.57274 L690.1517,1267.53325 Z M688.084422,1268.73576 L790.132081,1327.77773 L688.728897,1386.8321 L586.681239,1327.79013 L688.084422,1268.73576 Z M482.534079,1267.53325 L583.937263,1208.47888 L686.002273,1267.53325 L584.599089,1326.58514 L482.534079,1267.53325 Z M480.466801,1268.73576 L582.531811,1327.79013 L481.148457,1386.83458 L379.080969,1327.78021 L480.466801,1268.73576 Z M274.953639,1267.53573 L376.336992,1208.4888 L478.38713,1267.53325 L377.003776,1326.57522 L274.953639,1267.53573 Z M272.86901,1268.74816 L374.916669,1327.79013 L273.530836,1386.83458 L171.483178,1327.79261 L272.86901,1268.74816 Z M270.78686,1267.54317 L169.401027,1326.58762 L67.3384962,1267.53573 L168.72185,1208.4888 L270.78686,1267.54317 Z M168.062502,1087.98497 L270.110161,1147.02446 L168.726807,1206.06891 L66.6791487,1147.02446 L168.062502,1087.98497 Z M167.385804,967.468734 L269.433463,1026.51318 L168.032757,1085.56507 L65.98262,1026.5231 L167.385804,967.468734 Z M166.689275,846.95994 L268.756764,906.014307 L167.37341,965.061236 L65.3059212,906.00439 L166.689275,846.95994 Z M166.034885,726.456105 L268.082544,785.498075 L166.67936,844.552442 L64.6292225,785.510472 L166.034885,726.456105 Z M166.020013,724.048607 L63.9525238,664.99424 L165.335878,605.947311 L267.403366,665.004157 L166.020013,724.048607 Z M371.533175,725.251116 L270.149821,784.295566 L168.102162,725.253596 L269.485516,666.206667 L371.533175,725.251116 Z M373.600453,724.046127 L271.552794,665.004157 L372.955978,605.947311 L475.001158,664.99176 L373.600453,724.046127 Z M579.150796,725.251116 L477.745134,784.303004 L375.677645,725.253596 L477.083307,666.19427 L579.150796,725.251116 Z M581.215595,724.046127 L479.150585,664.99176 L580.533939,605.947311 L682.601428,665.004157 L581.215595,724.046127 Z M786.728757,725.251116 L685.345404,784.293086 L583.297745,725.251116 L684.681099,666.206667 L786.728757,725.251116 Z M788.796035,724.046127 L686.748376,665.004157 L788.15156,605.944831 L890.199219,664.99176 L788.796035,724.046127 Z M994.348857,725.246157 L892.943195,784.303004 L790.893058,725.261034 L892.29872,666.204187 L994.348857,725.246157 Z M996.416135,724.046127 L894.365997,664.999199 L995.749351,605.957228 L1097.79949,664.999199 L996.416135,724.046127 Z M1201.94665,725.258554 L1100.56082,784.300524 L998.495806,725.246157 L1099.87916,666.204187 L1201.94665,725.258554 Z M1204.0288,724.043648 L1101.96627,664.986801 L1203.34714,605.944831 L1305.41463,664.999199 L1204.0288,724.043648 Z M1206.11095,725.246157 L1307.49678,666.204187 L1409.54444,725.246157 L1308.15861,784.290607 L1206.11095,725.246157 Z M1308.83531,904.809318 L1206.7703,845.754951 L1308.15117,786.708022 L1410.22362,845.76239 L1308.83531,904.809318 Z M1309.49465,1025.31563 L1207.447,966.271184 L1308.85018,907.216816 L1410.89784,966.258787 L1309.49465,1025.31563 Z M1310.1887,1145.81699 L1208.12369,1086.76758 L1309.50953,1027.72065 L1411.57702,1086.77502 L1310.1887,1145.81699 Z M1310.2011,1148.22449 L1412.25123,1207.26894 L1310.84805,1266.32578 L1208.80039,1207.28133 L1310.2011,1148.22449 Z M1104.65571,1147.02198 L1206.05642,1087.97009 L1308.1239,1147.02198 L1206.71824,1206.07882 L1104.65571,1147.02198 Z M1102.58843,1148.22945 L1204.65344,1207.28133 L1103.27009,1266.32578 L1001.2026,1207.26894 L1102.58843,1148.22945 Z M897.072793,1147.02198 L998.461104,1087.98001 L1100.50628,1147.02198 L999.120451,1206.06643 L897.072793,1147.02198 Z M895.005515,1148.22945 L997.053174,1207.26894 L895.652469,1266.32578 L793.602331,1207.28133 L895.005515,1148.22945 Z M689.45765,1147.02198 L790.858355,1087.97009 L892.925844,1147.02198 L791.52266,1206.07882 L689.45765,1147.02198 Z M687.390372,1148.22945 L789.455382,1207.28133 L688.072029,1266.32826 L586.00454,1207.2739 L687.390372,1148.22945 Z M481.87721,1147.02446 L583.260564,1087.98249 L685.308222,1147.02198 L583.92239,1206.06891 L481.87721,1147.02446 Z M479.809933,1148.23193 L581.855113,1207.2739 L480.454408,1266.32826 L378.40427,1207.28381 L479.809933,1148.23193 Z M274.259589,1147.02446 L375.660294,1087.97257 L477.727783,1147.02446 L376.327078,1206.0813 L274.259589,1147.02446 Z M272.192311,1148.23193 L374.2598,1207.28381 L272.873967,1266.32826 L170.806479,1207.2739 L272.192311,1148.23193 Z M271.532964,1027.72313 L373.583101,1086.77006 L272.177439,1145.82443 L170.12978,1086.78246 L271.532964,1027.72313 Z M270.838914,907.219296 L372.886573,966.261266 L271.50074,1025.30819 L169.453081,966.266225 L270.838914,907.219296 Z M372.227225,845.757431 L270.824041,904.811798 L168.756552,845.757431 L270.162215,786.703064 L372.227225,845.757431 Z M374.294503,844.552442 L272.229493,785.498075 L373.615325,726.453625 L475.680335,785.507993 L374.294503,844.552442 Z M579.810144,845.757431 L478.421833,904.799401 L376.374174,845.757431 L477.760006,786.710502 L579.810144,845.757431 Z M581.874942,844.552442 L479.827284,785.507993 L581.230467,726.453625 L683.278126,785.495596 L581.874942,844.552442 Z M787.425286,845.754951 L686.022103,904.811798 L583.971965,845.764869 L685.377628,786.710502 L787.425286,845.754951 Z M789.492564,844.549963 L687.444905,785.507993 L788.828259,726.466022 L890.875918,785.507993 L789.492564,844.549963 Z M995.023078,845.764869 L893.639724,904.809318 L791.572235,845.754951 L892.958067,786.710502 L995.023078,845.764869 Z M997.090355,844.56236 L895.025345,785.507993 L996.42605,726.453625 L1098.49354,785.505513 L997.090355,844.56236 Z M1202.62087,845.754951 L1101.22016,904.809318 L999.170026,845.764869 L1100.57569,786.708022 L1202.62087,845.754951 Z M1204.68815,844.549963 L1102.64297,785.505513 L1204.02384,726.461064 L1306.07398,785.505513 L1204.68815,844.549963 Z M1205.36485,965.066195 L1103.29984,906.011828 L1204.70054,846.957461 L1306.77051,906.011828 L1205.36485,965.066195 Z M1103.99636,1026.51566 L1205.37724,967.473693 L1307.42738,1026.51566 L1206.04154,1085.56259 L1103.99636,1026.51566 Z M1101.92909,1027.72065 L1203.97427,1086.76758 L1102.57356,1145.81947 L1000.52838,1086.7775 L1101.92909,1027.72065 Z M896.378743,1026.52062 L997.779448,967.466255 L1099.84694,1026.51566 L998.446231,1085.57251 L896.378743,1026.52062 Z M894.311465,1027.72065 L996.378954,1086.77502 L894.993121,1145.81947 L792.925633,1086.76758 L894.311465,1027.72065 Z M688.798303,1026.52062 L790.181656,967.473693 L892.231794,1026.51566 L790.845961,1085.56259 L688.798303,1026.52062 Z M686.731025,1027.72313 L788.778684,1086.76758 L687.3755,1145.81947 L585.327841,1086.7775 L686.731025,1027.72313 Z M481.180681,1026.52062 L582.583865,967.466255 L684.648875,1026.52062 L583.24817,1085.57251 L481.180681,1026.52062 Z M479.113404,1027.72313 L581.180893,1086.7775 L479.79506,1145.82443 L377.727571,1086.77006 L479.113404,1027.72313 Z M374.983595,967.476172 L477.033732,1026.52062 L375.650379,1085.56507 L273.600241,1026.52062 L374.983595,967.476172 Z M374.95385,965.058757 L272.906191,906.014307 L374.309375,846.95994 L476.357034,906.00191 L374.95385,965.058757 Z M580.504194,966.261266 L479.10101,1025.31811 L377.050873,966.273663 L478.456535,907.219296 L580.504194,966.261266 Z M582.571471,965.058757 L480.523812,906.014307 L581.907166,846.969858 L683.954825,906.011828 L582.571471,965.058757 Z M788.101985,966.271184 L686.716152,1025.31811 L584.651142,966.261266 L686.036975,907.216816 L788.101985,966.271184 Z M790.169263,965.068674 L688.101774,906.014307 L789.504958,846.957461 L891.572446,906.011828 L790.169263,965.068674 Z M995.699776,966.261266 L894.296592,1025.31811 L792.248934,966.273663 L893.652117,907.216816 L995.699776,966.261266 Z M1101.23256,907.216816 L1203.29757,966.271184 L1101.91421,1025.31563 L999.846725,966.261266 L1101.23256,907.216816 Z M997.767054,965.058757 L895.719395,906.011828 L997.102749,846.969858 L1099.15289,906.011828 L997.767054,965.058757 Z M1513.74118,425.18164 L1615.80618,484.231049 L1514.40548,543.287895 L1412.33799,484.233528 L1513.74118,425.18164 Z M1781,388.02782 L1721.32657,422.781581 L1619.25908,363.727213 L1672.01928,333 L1667.87233,333 L1617.17941,362.522225 L1566.15434,333 L1562.00492,333 L1615.11213,363.727213 L1513.72878,422.774142 L1411.67864,363.727213 L1464.44132,333 L1460.25966,333 L1409.57914,362.514787 L1358.57142,333 L1354.422,333 L1407.51186,363.719775 L1306.11116,422.774142 L1204.0635,363.729693 L1256.82369,333 L1252.67922,333 L1201.98135,362.527184 L1150.94885,333 L1146.80438,333 L1199.91159,363.729693 L1098.53072,422.774142 L996.463231,363.719775 L1049.20855,333 L1045.0616,333 L994.381081,362.514787 L943.373364,333 L939.223936,333 L992.313804,363.719775 L890.913099,422.774142 L788.86544,363.729693 L841.63307,333 L837.483642,333 L786.785769,362.527184 L735.753264,333 L731.606315,333 L784.718491,363.729693 L683.332659,422.774142 L581.26517,363.722255 L634.015449,333 L629.866021,333 L579.18302,362.517266 L528.170345,333 L523.986215,333 L577.10087,363.734652 L475.715037,422.774142 L373.669857,363.734652 L426.437487,333 L422.28806,333 L371.587707,362.529663 L320.552724,333 L316.403296,333 L369.52043,363.734652 L268.117246,422.786539 L166.049757,363.734652 L218.819866,333 L214.672917,333 L163.970086,362.529663 L112.935102,333 L108.785675,333 L161.902809,363.734652 L60.5169762,422.776622 L-41.5282038,363.734652 L11.2468625,333 L7.097435,333 L-43.6103538,362.532142 L-94.650295,333 L-98.7997225,333 L-45.6776313,363.734652 L-147.080815,422.789019 L-202,391.013019 L-202,393.413079 L-149.148093,423.994007 L-202,454.773288 L-202,457.188225 L-147.065943,425.198996 L-45.0182838,484.240966 L-146.404116,543.285416 L-202,511.11767 L-202,513.515251 L-148.471394,544.487925 L-202,575.66391 L-202,578.078846 L-146.389244,545.692914 L-44.3242338,604.747281 L-145.724939,663.801648 L-202,631.242157 L-202,633.642217 L-147.792216,665.006637 L-202,696.571888 L-202,698.989303 L-145.712545,666.209146 L-43.6648863,725.253596 L-145.04824,784.298045 L-202,751.346809 L-202,753.746869 L-147.115518,785.500554 L-202,817.464989 L-202,819.879925 L-145.035846,786.705543 L-42.9708363,845.757431 L-144.371541,904.811798 L-202,871.471296 L-202,873.871356 L-146.438819,906.016787 L-202,938.372966 L-202,940.790382 L-144.359148,907.221775 L-42.3114888,966.266225 L-143.697321,1025.30819 L-202,991.573468 L-202,993.995843 L-145.779471,1026.5231 L-202,1059.26359 L-202,1061.681 L-143.6998,1027.72561 L-41.63479,1086.78246 L-143.020623,1145.82443 L-202,1111.69796 L-202,1114.10049 L-145.0879,1147.02942 L-202,1180.17652 L-202,1182.59146 L-143.00575,1148.2344 L-40.9580913,1207.27637 L-142.358796,1266.33322 L-202,1231.82492 L-202,1234.22498 L-144.426074,1267.53573 L-202,1301.06467 L-202,1303.50192 L-142.329051,1268.75064 L-40.2813925,1327.79261 L-141.667225,1386.83706 L-202,1351.92709 L-202,1354.32963 L-143.734503,1388.04204 L-202,1421.97512 L-202,1424.39254 L-141.652353,1389.24703 L-39.5848638,1448.3014 L-140.988048,1507.35577 L-202,1472.05406 L-202,1474.45412 L-143.057804,1508.55828 L-202,1542.88806 L-202,1545.30052 L-140.975654,1509.76079 L-38.9255163,1568.80524 L-140.311349,1627.84969 L-202,1592.15871 L-202,1594.55877 L-142.381105,1629.05467 L-190.364747,1657 L-186.21532,1657 L-140.298955,1630.25718 L-94.0801825,1657 L-89.9332338,1657 L-138.231678,1629.05467 L-36.8483238,1570.01022 L65.219165,1629.06211 L17.250395,1657 L21.3973437,1657 L67.301315,1630.2671 L113.505215,1657 L117.652164,1657 L69.3685925,1629.06211 L170.769297,1570.01022 L272.816956,1629.05219 L224.830835,1657 L228.975305,1657 L274.899106,1630.2547 L321.122836,1657 L325.272264,1657 L276.966384,1629.05219 L378.349737,1570.00775 L480.417226,1629.05715 L432.445977,1657 L436.592926,1657 L482.499376,1630.26462 L528.705755,1657 L532.850225,1657 L484.566654,1629.05715 L585.967359,1570.00775 L688.015017,1629.04972 L640.023939,1657 L644.173366,1657 L690.097167,1630.25222 L736.323376,1657 L740.472804,1657 L692.164445,1629.04972 L793.547799,1570.00775 L895.617766,1629.05715 L847.639081,1657 L851.788509,1657 L897.69248,1630.26462 L943.906295,1657 L948.087946,1657 L899.779587,1629.04972 L1001.1679,1570.00279 L1103.21308,1629.04972 L1055.21952,1657 L1059.40365,1657 L1105.31506,1630.26214 L1151.52392,1657 L1155.67334,1657 L1107.37738,1629.05715 L1208.78304,1570.00279 L1310.8307,1629.04972 L1262.83466,1657 L1266.98161,1657 L1312.91037,1630.24975 L1359.14154,1657 L1363.28849,1657 L1314.97765,1629.04972 L1416.36596,1570.00279 L1518.42601,1629.05467 L1470.44981,1657 L1474.59675,1657 L1520.50816,1630.26214 L1566.72446,1657 L1570.87388,1657 L1522.57544,1629.05467 L1623.97862,1570.00279 L1726.02628,1629.04476 L1678.03025,1657 L1682.17472,1657 L1728.10595,1630.24975 L1774.34208,1657 L1778.48655,1657 L1730.17571,1629.04476 L1781,1599.44319 L1781,1597.03073 L1728.09356,1627.83977 L1626.04838,1568.7978 L1727.43173,1509.75335 L1781,1540.74586 L1781,1538.34828 L1729.50149,1508.54836 L1781,1478.55505 L1781,1476.14011 L1727.41934,1507.34585 L1625.35185,1448.29148 L1726.75256,1389.23712 L1781,1420.62137 L1781,1418.22131 L1728.81983,1388.03461 L1781,1357.64459 L1781,1355.23213 L1726.74016,1386.82962 L1624.6925,1327.78765 L1726.07834,1268.74072 L1781,1300.52168 L1781,1298.11666 L1728.14561,1267.53821 L1781,1236.75645 L1781,1234.31672 L1726.04611,1266.3233 L1623.99597,1207.27885 L1725.39916,1148.22449 L1781,1180.39223 L1781,1177.99465 L1727.46644,1147.02198 L1781,1115.84599 L1781,1113.42858 L1725.38676,1145.81699 L1623.31928,1086.7651 L1724.70511,1027.72065 L1781,1060.29254 L1781,1057.86769 L1726.79222,1026.50575 L1781,994.935536 L1781,992.520599 L1724.71254,1025.30324 L1622.66241,966.256307 L1724.04576,907.211858 L1781,940.165573 L1781,937.765513 L1726.11304,906.009348 L1781,874.044914 L1781,871.627498 L1724.03337,904.80436 L1621.96588,845.749993 L1723.36906,786.698105 L1781,820.041086 L1781,817.641026 L1725.43634,785.493116 L1781,753.134457 L1781,750.719521 L1723.35667,784.290607 L1621.30901,725.246157 L1722.69484,666.201708 L1781,699.936434 L1781,697.536375 L1724.76212,664.996719 L1781,632.243835 L1781,629.828899 L1722.67997,663.79421 L1620.61496,604.739843 L1722.01566,545.685476 L1781,579.811948 L1781,577.411888 L1724.08294,544.480487 L1781,511.333378 L1781,508.918442 L1722.00327,543.277978 L1619.95809,484.231049 L1721.34144,425.189079 L1781,459.707296 L1781,457.307236 L1723.40872,423.98409 L1781,390.442757 L1781,388.02782 Z" id="Fill-1"></path>
            </g>
        </g>
    </g>
</svg>