<?xml version="1.0" encoding="UTF-8"?>
<svg width="101px" height="89px" viewBox="0 0 101 89" version="1.1" xmlns="http://www.w3.org/2000/svg" xmlns:xlink="http://www.w3.org/1999/xlink">
    <!-- Generator: Sketch 55.2 (78181) - https://sketchapp.com -->
    <title>Group 7</title>
    <desc>Created with Sketch.</desc>
    <g id="About-" stroke="none" stroke-width="1" fill="none" fill-rule="evenodd">
        <g id="About" transform="translate(-521.000000, -853.000000)">
            <g id="The-aim-for-WoTT-is-to-do-four-things" transform="translate(93.000000, 456.000000)">
                <g id="Four-Things" transform="translate(252.000000, 396.000000)">
                    <g id="Group-13">
                        <g id="Group-7" transform="translate(174.000000, 0.000000)">
                            <polygon id="Fill-1" fill="#316DC7" points="2.57142857 57.1035857 2.57142857 89.6707286 6.44142857 89.6707286 10.62 89.6707286 10.62 54.5450143 10.62 26.2850143 2.57142857 24.5107286"></polygon>
                            <polygon id="Fill-2" fill="#316DC7" points="13.3791429 53.6900143 13.3791429 89.6643 18.1234286 89.6643 23.2791429 89.6643 23.2791429 50.5400143 23.2791429 20.1585857 13.3791429 17.6643"></polygon>
                            <polygon id="Fill-3" fill="#316DC7" points="26.7325714 49.4548714 26.7325714 89.6720143 32.6982857 89.6720143 39.2168571 89.6720143 39.2168571 45.4948714 39.2168571 12.8891571 26.7325714 9.19915714"></polygon>
                            <g id="Group-6" transform="translate(43.428571, 0.951300)" fill="#4CD7ED">
                                <path d="M12.0718571,75.0458571 L12.0718571,46.593 L12.0718571,18.1272857 C19.6318571,20.3258571 26.7547143,22.383 33.4404286,24.3372857 C39.7404286,26.163 45.7061429,27.8987143 51.3504286,29.5444286 L51.3504286,53.3944286 L51.3504286,77.2572857 C45.7061429,76.9358571 39.7404286,76.6015714 33.4404286,76.2544286 C26.7547143,75.8687143 19.6318571,75.4701429 12.0718571,75.0458571 L12.0718571,75.0458571 Z M58.9618571,20.6987143 C56.4932857,19.8372857 53.9604286,18.963 51.3504286,18.0501429 C45.7061429,16.0958571 39.7404286,14.0387143 33.4404286,11.8401429 C26.7547143,9.52585714 19.6318571,7.05728571 12.0718571,4.43442857 C8.25328571,3.09728571 4.319,1.74728571 0.256142857,0.333 L0.256142857,14.7072857 L0.256142857,44.5487143 L0.256142857,74.3772857 L0.256142857,88.713 L12.0718571,88.713 L33.4404286,88.713 L51.3504286,88.713 L58.9618571,88.713 L58.9618571,77.6815714 L58.9618571,54.7187143 L58.9618571,31.7558571 L58.9618571,20.6987143 Z" id="Fill-4"></path>
                            </g>
                        </g>
                    </g>
                </g>
            </g>
        </g>
    </g>
</svg>