<?xml version="1.0" encoding="UTF-8"?>
<svg width="60px" height="60px" viewBox="0 0 60 60" version="1.1" xmlns="http://www.w3.org/2000/svg" xmlns:xlink="http://www.w3.org/1999/xlink">
    <!-- Generator: Sketch 55.2 (78181) - https://sketchapp.com -->
    <title>Group 8</title>
    <desc>Created with Sketch.</desc>
    <defs>
        <polygon id="path-1" points="0.0046875 0.219379845 59.5828125 0.219379845 59.5828125 59.2248062 0.0046875 59.2248062"></polygon>
    </defs>
    <g id="Home" stroke="none" stroke-width="1" fill="none" fill-rule="evenodd">
        <g transform="translate(-1270.000000, -4527.000000)" id="We-raise-the-bar-in-security-for-cyber-physical-systems">
            <g transform="translate(93.000000, 4144.000000)">
                <g id="Zero-trust" transform="translate(1077.000000, 383.000000)">
                    <g id="Group-8" transform="translate(100.000000, 0.000000)">
                        <g id="Group-3" transform="translate(0.000000, 0.089690)">
                            <mask id="mask-2" fill="white">
                                <use xlink:href="#path-1"></use>
                            </mask>
                            <g id="Clip-2"></g>
                            <path d="M32.403125,0.219379845 C47.6296875,1.52945736 59.5828125,14.2116279 59.5828125,29.6612403 C59.5828125,34.1263566 58.5828125,38.3589147 56.8015625,42.1496124 L53.028125,39.9868217 L53.0125,39.9868217 L50.434375,38.5139535 C51.6140625,35.8007752 52.2703125,32.8085271 52.2703125,29.6612403 C52.2703125,18.2193798 43.590625,8.79302326 32.403125,7.50620155 L32.403125,0.219379845 Z M2.7859375,42.1573643 C0.996875,38.3589147 0.0046875,34.1341085 0.0046875,29.6612403 C0.0046875,14.2116279 11.95,1.52945736 27.184375,0.219379845 L27.184375,7.50620155 C15.9890625,8.79302326 7.309375,18.2193798 7.309375,29.6612403 C7.309375,32.8085271 7.965625,35.7930233 9.1453125,38.5062016 L5.9265625,40.3511628 L5.9265625,40.3589147 L2.7859375,42.1573643 Z M29.79375,59.2271318 C19.7,59.2271318 10.778125,54.2426357 5.3875,46.6224806 L8.528125,44.824031 L8.5359375,44.824031 L11.7546875,42.9868217 C15.85625,48.4364341 22.403125,51.9713178 29.79375,51.9713178 C37.1765625,51.9713178 43.73125,48.4364341 47.8328125,42.9790698 L50.41875,44.4596899 L50.41875,44.4674419 L54.1921875,46.6302326 C48.8015625,54.2426357 39.8875,59.2271318 29.79375,59.2271318 L29.79375,59.2271318 Z" id="Fill-1" fill="#316DC7" mask="url(#mask-2)"></path>
                        </g>
                        <path d="M44.69375,18.3749612 C39.0140625,11.1424031 28.69375,8.98736434 20.4671875,13.6927907 C18.3265625,14.9331008 16.5140625,16.5144961 15.06875,18.3439535 L21.5609375,22.0571318 C22.303125,21.281938 23.1703125,20.5920155 24.1546875,20.026124 C28.8421875,17.3439535 34.6546875,18.3284496 38.209375,22.0881395 L44.69375,18.3749612 Z M32.521875,48.3284496 C34.834375,48.0028682 37.1234375,47.2509302 39.271875,46.0106202 C47.4984375,41.3051938 50.771875,31.3517054 47.303125,22.8633333 L40.81875,26.5765116 C42.3265625,31.5067442 40.2796875,36.9951163 35.584375,39.6850388 C34.6,40.2509302 33.56875,40.654031 32.5140625,40.8943411 L32.521875,48.3284496 Z M13.584375,39.1889147 C16.6078125,44.3749612 21.7640625,47.5842636 27.31875,48.3439535 L27.31875,40.9175969 C24.3265625,40.2354264 21.6234375,38.3749612 19.959375,35.53 C18.3109375,32.6850388 18.0375,29.4292248 18.94375,26.5222481 L12.459375,22.8090698 C10.35,27.9641085 10.56875,33.9951163 13.584375,39.1889147 L13.584375,39.1889147 Z" id="Fill-4" fill="#4CD7ED"></path>
                        <path d="M29.8695312,36.6462791 C33.6820312,36.6462791 36.7992187,33.5610078 36.7992187,29.7703101 C36.7992187,25.9796124 33.6820312,22.8865891 29.8695312,22.8865891 C26.0492187,22.8865891 22.9320312,25.9796124 22.9320312,29.7703101 C22.9320312,33.5610078 26.0492187,36.6462791 29.8695312,36.6462791" id="Fill-6" fill="#316DC7"></path>
                    </g>
                </g>
            </g>
        </g>
    </g>
</svg>