<?xml version="1.0" encoding="UTF-8"?>
<svg width="76px" height="71px" viewBox="0 0 76 71" version="1.1" xmlns="http://www.w3.org/2000/svg" xmlns:xlink="http://www.w3.org/1999/xlink">
    <!-- Generator: Sketch 55.2 (78181) - https://sketchapp.com -->
    <title>https://www.flaticon.com/free-icon/hacked_1691856</title>
    <desc>Created with Sketch.</desc>
    <g id="Products-" stroke="none" stroke-width="1" fill="none" fill-rule="evenodd">
        <g id="Products" transform="translate(-1030.000000, -1269.000000)" fill-rule="nonzero">
            <g transform="translate(93.000000, 746.000000)" id="Hygiene">
                <g transform="translate(758.500000, 0.000000)">
                    <g id="Botnet-blocker" transform="translate(56.500000, 523.500000)">
                        <g id="https://www.flaticon.com/free-icon/hacked_1691856" transform="translate(122.000000, 0.000000)">
                            <path d="M44.2721519,32.1940928 L44.2721519,27.6015612 C44.2721519,26.2333122 45.5101477,25.1689873 46.8931646,25.425211 C46.9547468,25.4138397 47.0167722,25.4035021 47.0802743,25.3971519 C48.9732278,25.2100422 50.4008439,23.624557 50.4008439,21.7088608 L50.4008439,12.7004219 C50.4008439,5.69746835 44.7033755,0 37.7004219,0 C30.6974684,0 25,5.69746835 25,12.7004219 L25,21.7088608 C25,23.624557 26.427616,25.2100422 28.3205696,25.3971519 C28.3589662,25.4009916 28.3961814,25.4085232 28.4339873,25.414135 C29.8040084,25.2066456 30.9829325,26.2702321 30.9824895,27.6020042 L30.9816034,32.1940928 L35.4852321,32.1940928 L35.4852321,27.9112447 C35.4852321,26.6878692 36.4770464,25.6960549 37.7004219,25.6960549 C38.9237975,25.6960549 39.9156118,26.6878692 39.9156118,27.9112447 L39.9156118,32.1940928 L44.2721519,32.1940928 L44.2721519,32.1940928 Z M31.7932489,14.9156118 C30.5698734,14.9156118 29.5780591,13.9237975 29.5780591,12.7004219 C29.5780591,11.4770464 30.5698734,10.4852321 31.7932489,10.4852321 C33.0166245,10.4852321 34.0084388,11.4770464 34.0084388,12.7004219 C34.0084388,13.9237975 33.0166245,14.9156118 31.7932489,14.9156118 Z M43.6075949,10.4852321 C44.8309705,10.4852321 45.8227848,11.4770464 45.8227848,12.7004219 C45.8227848,13.9237975 44.8309705,14.9156118 43.6075949,14.9156118 C42.3842194,14.9156118 41.3924051,13.9237975 41.3924051,12.7004219 C41.3924051,11.4770464 42.3842194,10.4852321 43.6075949,10.4852321 Z M37.7004219,22.2995781 C36.4770464,22.2995781 35.4852321,21.3077637 35.4852321,20.0843882 C35.4852321,18.8610127 36.4770464,17.8691983 37.7004219,17.8691983 C38.9237975,17.8691983 39.9156118,18.8610127 39.9156118,20.0843882 C39.9156118,21.3077637 38.9237975,22.2995781 37.7004219,22.2995781 Z" id="Shape" fill="#4CD7ED"></path>
                            <path d="M0,46.149789 L0,51.4662447 C0,55.9449156 3.64369198,59.5886076 8.12236287,59.5886076 L28.5021097,59.5886076 L28.5021097,65.4957806 L20.2320675,65.4957806 C19.008692,65.4957806 18.0168776,66.4875949 18.0168776,67.7109705 C18.0168776,68.934346 19.008692,69.9261603 20.2320675,69.9261603 C21.1990717,69.9261603 52.2697679,69.9261603 55.0843882,69.9261603 C56.3077637,69.9261603 57.2995781,68.934346 57.2995781,67.7109705 C57.2995781,66.4875949 56.3077637,65.4957806 55.0843882,65.4957806 L46.814346,65.4957806 L46.814346,59.5886076 L67.4894515,59.5886076 C71.9681224,59.5886076 75.6118143,55.9449156 75.6118143,51.4662447 L75.6118143,46.149789 L0,46.149789 Z" id="Path" fill="#316DC7"></path>
                            <path d="M75.6118143,41.7194093 L75.6118143,12.6265823 C75.6118143,8.14791139 71.9681224,4.50421941 67.4894515,4.50421941 L52.656097,4.50421941 C54.0144515,6.95761603 54.7890295,9.77696203 54.7890295,12.7742616 L54.7890295,21.7827004 C54.7890295,25.5774684 52.2263502,28.7822574 48.6603376,29.6736498 L48.6603376,34.4831224 C48.6603376,35.7064979 47.6685232,36.6983122 46.4451477,36.6983122 L28.7236287,36.6983122 C27.5008439,36.6983122 26.5081435,35.7060549 26.5084388,34.4826793 L26.5094726,29.6342194 C23.0204008,28.6924684 20.5274262,25.5250422 20.5274262,21.7827004 L20.5274262,12.7742616 C20.5274262,9.77696203 21.3020042,6.95761603 22.6603586,4.50421941 L8.12236287,4.50421941 C3.64369198,4.50421941 0,8.14791139 0,12.6265823 L0,41.7194093 L75.6118143,41.7194093 Z" id="Path" fill="#316DC7"></path>
                        </g>
                    </g>
                </g>
            </g>
        </g>
    </g>
</svg>