<?xml version="1.0" encoding="UTF-8"?>
<svg width="70px" height="70px" viewBox="0 0 70 70" version="1.1" xmlns="http://www.w3.org/2000/svg" xmlns:xlink="http://www.w3.org/1999/xlink">
    <!-- Generator: Sketch 55.2 (78181) - https://sketchapp.com -->
    <title>help</title>
    <desc>Created with Sketch.</desc>
    <g id="Documentation" stroke="none" stroke-width="1" fill="none" fill-rule="evenodd">
        <g transform="translate(-966.000000, -504.000000)" fill-rule="nonzero" id="Features">
            <g transform="translate(93.000000, 429.000000)">
                <g transform="translate(779.000000, 75.000000)" id="help">
                    <g transform="translate(94.000000, 0.000000)">
                        <path d="M70,47.3730469 C70,38.6865998 65.0167083,30.9342194 57.5532532,27.1632386 C57.3214722,43.8183594 43.8183594,57.3214722 27.1632386,57.5532532 C30.9342194,65.0167083 38.6865998,70 47.3730469,70 C51.4457702,70 55.4063415,68.9153289 58.8862611,66.8544007 L69.9011994,69.9011994 L66.8544007,58.8862611 C68.9153289,55.4063415 70,51.4457702 70,47.3730469 L70,47.3730469 Z" id="Path" fill="#4CD7ED"></path>
                        <path d="M53.4570312,26.7285156 C53.4570312,11.9901276 41.4669037,0 26.7285156,0 C11.9901276,0 0,11.9901276 0,26.7285156 C0,31.5318298 1.27853387,36.2085724 3.70635986,40.3144074 L0.0982666016,53.3582306 L13.1426239,49.7506714 C17.2484588,52.1784974 21.9252015,53.4570312 26.7285156,53.4570312 C41.4669037,53.4570312 53.4570312,41.4669037 53.4570312,26.7285156 Z M22.6269531,20.5078125 L18.5253906,20.5078125 C18.5253906,15.9843444 22.2050475,12.3046875 26.7285156,12.3046875 C31.2519837,12.3046875 34.9316406,15.9843444 34.9316406,20.5078125 C34.9316406,22.8037262 33.9596558,25.0104523 32.2640228,26.5613556 L28.7792969,29.7507477 L28.7792969,32.9492188 L24.6777344,32.9492188 L24.6777344,27.9445648 L29.4949341,23.5353851 C30.355835,22.7476501 30.8300781,21.6725921 30.8300781,20.5078125 C30.8300781,18.2460785 28.9902497,16.40625 26.7285156,16.40625 C24.4667816,16.40625 22.6269531,18.2460785 22.6269531,20.5078125 Z M24.6777344,37.0507812 L28.7792969,37.0507812 L28.7792969,41.1523438 L24.6777344,41.1523438 L24.6777344,37.0507812 Z" id="Shape" fill="#316DC7"></path>
                    </g>
                </g>
            </g>
        </g>
    </g>
</svg>