<?xml version="1.0" encoding="UTF-8"?>
<svg width="1700px" height="565px" viewBox="0 0 1700 565" version="1.1" xmlns="http://www.w3.org/2000/svg" xmlns:xlink="http://www.w3.org/1999/xlink">
    <!-- Generator: Sketch 55.2 (78181) - https://sketchapp.com -->
    <title>Group 14</title>
    <desc>Created with Sketch.</desc>
    <g id="Symbols" stroke="none" stroke-width="1" fill="none" fill-rule="evenodd" opacity="0.300000012">
        <g id="Hero-Graphics" transform="translate(0.000000, -562.000000)" fill="#377EEA" fill-rule="nonzero">
            <g id="Group-14">
                <g transform="translate(-56.000000, 531.000000)">
                    <path d="M661.094673,381.085312 L617.745957,406.0793 C610.911286,410.020033 602.500873,410.046817 595.64124,406.149698 L513.916225,359.719782 C513.263794,359.34912 512.721129,358.812331 512.343389,358.163973 C511.16179,356.135866 511.848021,353.533885 513.876128,352.352286 L606.218597,298.552494 L640.361629,318.534824 L886.499228,176.134421 L887.500772,177.865579 L642.347026,319.696784 L698.174278,352.36988 C698.811518,352.742827 699.340603,353.275355 699.709409,353.915 C700.881839,355.948422 700.183867,358.547278 698.150445,359.719707 L663.09888,379.929727 L844.151206,483.86416 L909.794382,445.551841 L978.526072,485.848663 L1148.59395,386.538954 L1093.90541,355.413983 C1093.25518,355.043917 1092.71417,354.508763 1092.33704,353.862606 C1091.15388,351.83541 1091.8381,349.232901 1093.8653,348.049738 L1157.66824,310.811462 L984.496387,209.86393 L985.503613,208.13607 L1159.65268,309.653253 L1219.79438,274.551841 L1345.18502,348.067336 C1345.82006,348.439653 1346.3475,348.97053 1346.71569,349.60797 C1347.88967,351.640492 1347.1937,354.239883 1345.16118,355.413873 L1231.50811,421.060169 C1224.66595,425.012218 1216.24109,425.039073 1209.37387,421.130724 L1150.60251,387.68209 L980.505182,487.008999 L1035.18502,519.067336 C1035.82006,519.439653 1036.3475,519.97053 1036.71569,520.60797 C1037.88967,522.640492 1037.1937,525.239883 1035.16118,526.413873 L921.508108,592.060169 C914.665948,596.012218 906.241089,596.039073 899.373874,592.130724 L783.90541,526.413983 C783.255182,526.043917 782.714166,525.508763 782.337039,524.862606 C781.153876,522.83541 781.8381,520.232901 783.865295,519.049738 L842.15923,485.026767 L661.094673,381.085312 Z M639.858026,321.13677 L603.150751,342.37339 L602.149207,340.642232 L637.872629,319.974809 L606.215745,301.447506 L515.134642,354.512411 C514.299539,354.998952 514.016974,356.070356 514.503514,356.905459 C514.659055,357.17243 514.882505,357.393461 515.151153,357.546086 L596.876168,403.976002 C602.965056,407.435243 610.430479,407.411468 616.497209,403.913514 L696.901697,357.553922 C697.738988,357.071156 698.026389,356.001039 697.543623,355.163748 C697.391762,354.900365 697.173903,354.681089 696.911511,354.527522 L639.858026,321.13677 Z M243.104453,139.84631 L279.683532,118.552803 L356.169184,163.278728 C356.807467,163.651972 357.33733,164.185281 357.706429,164.82597 C358.87812,166.859818 358.179203,169.45842 356.145356,170.630111 L326.185814,187.889675 L544.500596,314.134319 L543.499404,315.865681 L324.184436,189.042661 L291.124503,208.088346 C284.293382,212.023726 275.889804,212.050477 269.033766,208.158669 L202.921354,170.630169 C202.26788,170.259226 201.724435,169.721662 201.346405,169.072262 C200.165546,167.043723 200.852727,164.441993 202.881266,163.261135 L241.11347,141.005306 L0.499403703,1.86568086 L1.5005963,0.134319142 L243.104453,139.84631 Z M245.597349,141.287874 L254.957797,146.70073 L253.956605,148.432092 L243.606366,142.446871 L204.138991,165.42172 C203.303711,165.907956 203.020754,166.979256 203.50699,167.814537 C203.662649,168.081937 203.886421,168.303287 204.155498,168.456028 L270.26791,205.984528 C276.353607,209.439055 283.812962,209.415309 289.876542,205.922106 L354.897395,168.463872 C355.734861,167.981411 356.02265,166.911398 355.540189,166.073932 C355.388208,165.810118 355.170029,165.59052 354.907206,165.436832 L279.680682,121.447197 L245.597349,141.287874 Z M976.049649,487.29475 L909.791526,448.448159 L846.651547,485.2995 L909.883971,521.598543 L908.888258,523.333062 L844.659572,486.462107 L785.125475,521.208892 C784.290747,521.696077 784.009008,522.767698 784.496193,523.602426 C784.65148,523.868491 784.874252,524.088848 785.141993,524.241228 L900.610457,589.957969 C906.706075,593.427178 914.18432,593.40334 920.257698,589.895342 L1033.91077,524.249045 C1034.74769,523.765638 1035.03427,522.695301 1034.55086,521.85838 C1034.39925,521.595905 1034.18207,521.377308 1033.92058,521.224001 L978.028759,488.455085 L915.545275,524.941791 L914.536749,523.214691 L976.049649,487.29475 Z M1474.83015,198.142241 L1474.92153,198.298726 L1295.6566,302.978976 L1294.64807,301.251875 L1473.02712,197.088927 L1426.11281,169.681957 C1425.69279,169.436585 1425.33321,169.100058 1425.06058,168.697196 C1424.05461,167.210663 1424.44418,165.190089 1425.93072,164.184119 L1508.18456,108.521087 L1647.90541,191.172859 C1648.39061,191.45988 1648.79281,191.868173 1649.0725,192.357635 C1649.96304,193.916066 1649.4216,195.901344 1647.86316,196.791876 L1564.86631,244.218649 C1561.37432,246.214073 1557.08271,246.19354 1553.60998,244.164794 L1474.83015,198.142241 Z M1162.134,311.099695 L1233.91417,352.942707 L1232.90695,354.670566 L1160.14956,312.257904 L1095.12548,350.208892 C1094.29075,350.696077 1094.00901,351.767698 1094.49619,352.602426 C1094.65148,352.868491 1094.87425,353.088848 1095.14199,353.241228 L1210.61046,418.957969 C1216.70607,422.427178 1224.18432,422.40334 1230.2577,418.895342 L1343.91077,353.249045 C1344.74769,352.765638 1345.03427,351.695301 1344.55086,350.85838 C1344.39925,350.595905 1344.18207,350.377308 1343.92058,350.224001 L1219.79153,277.448159 L1162.134,311.099695 Z M1767.49574,25.1364498 L1768.50426,26.8635502 L1593.49105,129.061049 L1592.48252,127.333949 L1767.49574,25.1364498 Z M1427.33185,166.254585 C1426.9888,166.486732 1426.8989,166.953018 1427.13105,167.296064 C1427.19396,167.389033 1427.27694,167.466693 1427.37387,167.523317 L1554.87104,242.006154 C1557.57206,243.584068 1560.90997,243.600038 1563.62596,242.048042 L1646.62282,194.621268 C1646.98246,194.415761 1647.1074,193.95762 1646.9019,193.597982 C1646.83735,193.485029 1646.74454,193.390808 1646.63257,193.324572 L1508.27443,111.478913 L1427.33185,166.254585 Z" id="Combined-Shape"></path>
                </g>
            </g>
        </g>
    </g>
</svg>