<?xml version="1.0" encoding="UTF-8"?>
<svg width="98px" height="99px" viewBox="0 0 98 99" version="1.1" xmlns="http://www.w3.org/2000/svg" xmlns:xlink="http://www.w3.org/1999/xlink">
    <!-- Generator: Sketch 55.2 (78181) - https://sketchapp.com -->
    <title>Group 11</title>
    <desc>Created with Sketch.</desc>
    <defs>
        <polygon id="path-1" points="0 0.866666667 34.3477124 0.866666667 34.3477124 35.2156863 0 35.2156863"></polygon>
        <polygon id="path-3" points="0.645751634 0.823529412 34.9934641 0.823529412 34.9934641 35.1738562 0.645751634 35.1738562"></polygon>
    </defs>
    <g id="Home" stroke="none" stroke-width="1" fill="none" fill-rule="evenodd">
        <g transform="translate(-1181.000000, -1762.000000)" id="We-offer-a-set-of-developer-tools-to-make-it-easy-to-build-secure-IoT-devices.">
            <g transform="translate(93.000000, 1184.000000)">
                <g id="Hygiene" transform="translate(916.000000, 577.000000)">
                    <g id="Group-11" transform="translate(172.000000, 0.000000)">
                        <g id="Group-3" transform="translate(0.000000, 63.959346)">
                            <mask id="mask-2" fill="white">
                                <use xlink:href="#path-1"></use>
                            </mask>
                            <g id="Clip-2"></g>
                            <path d="M0.805228758,0.866666667 L9.39346405,0.866666667 L10.1908497,1.67712418 L10.1908497,25.0235294 L33.5372549,25.0235294 L34.3477124,25.8339869 L34.3477124,34.4091503 L33.5372549,35.2196078 L33.1712418,35.2196078 L28.3084967,35.2196078 L19.5764706,35.2196078 L18.3738562,35.2196078 L8.4,35.2196078 C3.94248366,35.2196078 1.32810458,34.069281 0.54379085,31.7555556 C0.177777778,30.6836601 -0.00522875817,29.4679739 -0.00522875817,28.0954248 L-0.00522875817,19.7816993 L-0.00522875817,19.6379085 L-0.00522875817,6.35686275 L-0.00522875817,1.67712418 L0.805228758,0.866666667 Z" id="Fill-1" fill="#316DC7" mask="url(#mask-2)"></path>
                        </g>
                        <g id="Group-6" transform="translate(62.875817, 0.482222)">
                            <mask id="mask-4" fill="white">
                                <use xlink:href="#path-3"></use>
                            </mask>
                            <g id="Clip-5"></g>
                            <path d="M34.1882353,35.1738562 L25.6,35.1738562 L24.8026144,34.3633987 L24.8026144,11.0169935 L1.45620915,11.0169935 L0.645751634,10.2196078 L0.645751634,6.6379085 L0.645751634,1.63137255 L1.45620915,0.820915033 L1.83529412,0.820915033 L6.68496732,0.820915033 L15.4169935,0.820915033 L16.6196078,0.820915033 L26.5934641,0.820915033 C31.0509804,0.820915033 33.6653595,1.97124183 34.4496732,4.28496732 C34.8156863,5.35686275 34.9986928,6.57254902 34.9986928,7.94509804 L34.9986928,16.2718954 L34.9986928,16.4026144 L34.9986928,29.6836601 L34.9986928,34.3633987 L34.1882353,35.1738562 Z" id="Fill-4" fill="#316DC7" mask="url(#mask-4)"></path>
                        </g>
                        <polygon id="Fill-7" fill="#316DC7" points="34.3529412 64.8220915 63.5294118 64.8220915 63.5294118 35.6456209 34.3529412 35.6456209"></polygon>
                        <path d="M34.3464052,2.10836601 L34.3464052,10.6966013 L33.5359477,11.4939869 L10.1895425,11.4939869 L10.1895425,34.8403922 L9.39215686,35.6508497 L0.803921569,35.6508497 L0.00653594771,34.8403922 L0.00653594771,34.4743791 L0.00653594771,29.611634 L0.00653594771,20.8796078 L0.00653594771,19.6900654 L0.00653594771,9.70313725 C0.00653594771,5.24562092 1.14379085,2.63124183 3.47058824,1.8469281 C4.54248366,1.48091503 5.74509804,1.2979085 7.11764706,1.2979085 L15.4444444,1.2979085 L15.5751634,1.2979085 L28.8562092,1.2979085 L33.5359477,1.2979085 L34.3464052,2.10836601 Z" id="Fill-9" fill="#4CD7ED"></path>
                        <path d="M63.5228758,98.3737255 L63.5228758,89.7854902 L64.3333333,88.9750327 L87.6797386,88.9750327 L87.6797386,65.6286275 L88.4771242,64.8312418 L92.0588235,64.8312418 L97.0653595,64.8312418 L97.8627451,65.6286275 L97.8627451,66.0077124 L97.8627451,70.8704575 L97.8627451,79.6024837 L97.8627451,80.805098 L97.8627451,90.7789542 C97.8627451,95.2364706 96.7254902,97.8508497 94.3986928,98.6351634 C93.3398693,99.0011765 92.124183,99.184183 90.751634,99.184183 L82.4248366,99.184183 L82.2941176,99.184183 L69.0130719,99.184183 L64.3333333,99.184183 L63.5228758,98.3737255 Z" id="Fill-10" fill="#4CD7ED"></path>
                    </g>
                </g>
            </g>
        </g>
    </g>
</svg>