<?xml version="1.0" encoding="UTF-8"?>
<svg width="80px" height="71px" viewBox="0 0 80 71" version="1.1" xmlns="http://www.w3.org/2000/svg" xmlns:xlink="http://www.w3.org/1999/xlink">
    <!-- Generator: Sketch 55.2 (78181) - https://sketchapp.com -->
    <title>https://www.flaticon.com/free-icon/laptop_1341293#term=computer%20search&amp;page=1&amp;position=26</title>
    <desc>Created with Sketch.</desc>
    <g id="Products-" stroke="none" stroke-width="1" fill="none" fill-rule="evenodd">
        <g id="Products" transform="translate(-593.000000, -1269.000000)" fill-rule="nonzero">
            <g transform="translate(93.000000, 746.000000)" id="Zero-Trust">
                <g transform="translate(0.000000, 187.500000)">
                    <g id="Monitoring" transform="translate(361.000000, 336.000000)">
                        <g id="https://www.flaticon.com/free-icon/laptop_1341293#term=computer%20search&amp;page=1&amp;position=26" transform="translate(139.000000, 0.000000)">
                            <path d="M77.3111111,60.6666667 L2.33333333,60.6666667 C1.04453129,60.6666667 0,61.711198 0,63 C0,66.8657985 3.13420147,70 7,70 L72.6444444,70 C76.510243,70 79.6444444,66.8657985 79.6444444,63 C79.6444444,61.711198 78.5999132,60.6666667 77.3111111,60.6666667 Z" id="Path" fill="#316DC7"></path>
                            <path d="M4.66666667,16.3333333 L4.66666667,56 L74.9777778,56 L74.9777778,16.3333333 C74.9777778,12.4675348 71.8435763,9.33333333 67.9777778,9.33333333 L46.0037326,9.33333333 C46.3938368,10.8335937 46.6666667,12.379427 46.6666667,14 C46.6666667,16.123698 46.3045139,18.2042535 45.6051215,20.1796874 C47.0039063,20.4282118 48.2939237,21.0978298 49.3190104,22.1259548 L62.5989583,35.4059028 C66.2381076,39.045052 66.2381076,44.9646702 62.5989583,48.6038194 C60.8355904,50.364757 58.4925348,51.3333333 56,51.3333333 C53.5074652,51.3333333 51.1644096,50.364757 49.4034722,48.6056424 L36.1168404,35.3190104 C35.0911459,34.2939237 34.4215278,33.0063368 34.1730035,31.6069444 C32.201823,32.3069444 30.1212674,32.6666667 28,32.6666667 C17.7072048,32.6666667 9.33333333,24.2927952 9.33333333,14 C9.33333333,12.4699652 9.57031258,11.0043404 9.91970482,9.5800348 C6.90460073,10.3596354 4.66666667,13.0745659 4.66666667,16.3333333 Z" id="Path" fill="#316DC7"></path>
                            <path d="M28,0 C20.2677952,0 14,6.26779518 14,14 C14,21.7322048 20.2677952,28 28,28 C31.0223959,28 33.8035591,27.0198785 36.091927,25.3914063 L39.41875,28.7176215 L39.416927,28.7194444 C38.5054687,29.6309028 38.5054687,31.108073 39.416927,32.0195313 L52.6999132,45.303125 C54.5203993,47.1230035 57.4820313,47.1193576 59.2994792,45.303125 C61.1175348,43.4844618 61.1175348,40.5222222 59.2994792,38.7041667 L46.0158854,25.420573 C45.1050348,24.5097222 43.6296874,24.5097222 42.7182292,25.41875 L39.3914063,22.091927 C41.0198785,19.8035591 42,17.0223959 42,14 C42,6.26779518 35.7322048,0 28,0 L28,0 Z" id="Path" fill="#4CD7ED"></path>
                        </g>
                    </g>
                </g>
            </g>
        </g>
    </g>
</svg>