<?xml version="1.0" encoding="UTF-8"?>
<svg width="62px" height="71px" viewBox="0 0 62 71" version="1.1" xmlns="http://www.w3.org/2000/svg" xmlns:xlink="http://www.w3.org/1999/xlink">
    <!-- Generator: Sketch 55.2 (78181) - https://sketchapp.com -->
    <title>https://www.flaticon.com/premium-icon/layers_1886194#term=layer&amp;page=1&amp;position=6</title>
    <desc>Created with Sketch.</desc>
    <g id="Products-" stroke="none" stroke-width="1" fill="none" fill-rule="evenodd">
        <g id="Products" transform="translate(-243.000000, -1551.000000)" fill-rule="nonzero">
            <g transform="translate(93.000000, 746.000000)" id="Zero-Trust">
                <g transform="translate(0.000000, 187.500000)">
                    <g id="Encryption-Transport-Layer" transform="translate(1.000000, 618.000000)">
                        <g id="https://www.flaticon.com/premium-icon/layers_1886194#term=layer&amp;page=1&amp;position=6" transform="translate(149.000000, 0.000000)">
                            <path d="M60.161582,10.5108008 L31.4506445,0.120175781 C31.0060352,-0.0400585937 30.5174023,-0.0400585937 30.072793,0.120175781 L1.36185547,10.5108008 C0.5446875,10.8011914 0,11.5741992 0,12.4414063 C0,13.3086133 0.5446875,14.0816211 1.36185547,14.3720117 L30.072793,24.625918 C30.2950977,24.7060352 30.5273828,24.7460938 30.7617188,24.7460938 C30.9960547,24.7460938 31.2283398,24.7060352 31.4506445,24.625918 L60.161582,14.3720117 C60.97875,14.0816211 61.5234375,13.3086133 61.5234375,12.4414063 C61.5234375,11.5741992 60.97875,10.8011914 60.161582,10.5108008 Z" id="Path" fill="#316DC7"></path>
                            <path d="M54.4388086,20.7716797 L32.8305469,28.4891797 C32.1716992,28.7254297 31.4726562,28.8476563 30.7617187,28.8476563 C30.0507812,28.8476563 29.3517383,28.7254297 28.6829102,28.4852148 L7.08462891,20.7716797 L1.36185547,22.8154883 C0.5446875,23.1058789 -5.68434189e-14,23.8788867 -5.68434189e-14,24.7460938 C-5.68434189e-14,25.6133008 0.5446875,26.3863086 1.36185547,26.6766992 L30.072793,36.9306055 C30.2950977,37.0107227 30.5273828,37.0507813 30.7617187,37.0507813 C30.9960547,37.0507813 31.2283398,37.0107227 31.4506445,36.9306055 L60.161582,26.6766992 C60.97875,26.3863086 61.5234375,25.6133008 61.5234375,24.7460938 C61.5234375,23.8788867 60.97875,23.1058789 60.161582,22.8154883 L54.4388086,20.7716797 Z" id="Path" fill="#316DC7"></path>
                            <path d="M60.161582,38.9813867 C60.97875,38.6909961 61.5234375,37.9179883 61.5234375,37.0507812 C61.5234375,36.1835742 60.97875,35.4105664 60.161582,35.1201758 L54.4388086,33.0763672 L32.8305469,40.7938672 C32.1716992,41.0301172 31.4726562,41.1523437 30.7617187,41.1523437 C30.0507812,41.1523437 29.3517383,41.0301172 28.6829102,40.7899023 L7.08462891,33.0763672 L1.36185547,35.1201758 C0.5446875,35.4105664 -5.68434189e-14,36.1835742 -5.68434189e-14,37.0507812 C-5.68434189e-14,37.9179883 0.5446875,38.6909961 1.36185547,38.9813867 L19.979668,45.6307031 L16.5044141,49.7638477 C15.8327148,49.5114648 15.1142578,49.3554687 14.3554687,49.3554687 C10.9629297,49.3554687 8.203125,52.1152734 8.203125,55.5078125 C8.203125,58.1779297 9.92277344,60.4329687 12.3046875,61.2824023 L12.3046875,67.9492187 C12.3046875,69.0827539 13.2219336,70 14.3554687,70 C15.4890039,70 16.40625,69.0827539 16.40625,67.9492187 L16.40625,61.2824023 C18.7881641,60.4329687 20.5078125,58.1779297 20.5078125,55.5078125 C20.5078125,54.3730469 20.1779102,53.3229102 19.6399219,52.4093555 L24.1017383,47.1026172 L28.7109375,48.7488477 L28.7109375,67.9492187 C28.7109375,69.0827539 29.6281836,70 30.7617187,70 C31.8952539,70 32.8125,69.0827539 32.8125,67.9492187 L32.8125,48.7488477 L37.4216992,47.1026172 L41.8835156,52.4093555 C41.3455273,53.3229102 41.015625,54.3730469 41.015625,55.5078125 C41.015625,58.1779297 42.7352734,60.4329687 45.1171875,61.2824023 L45.1171875,67.9492187 C45.1171875,69.0827539 46.0344336,70 47.1679687,70 C48.3015039,70 49.21875,69.0827539 49.21875,67.9492187 L49.21875,61.2824023 C51.6006641,60.4329687 53.3203125,58.1779297 53.3203125,55.5078125 C53.3203125,52.1152734 50.5605078,49.3554687 47.1679687,49.3554687 C46.4091797,49.3554687 45.6907227,49.5114648 45.0190234,49.7637109 L41.5437695,45.6305664 L60.161582,38.9813867 Z" id="Path" fill="#4CD7ED"></path>
                        </g>
                    </g>
                </g>
            </g>
        </g>
    </g>
</svg>