<?xml version="1.0" encoding="UTF-8"?>
<svg width="34px" height="34px" viewBox="0 0 34 34" version="1.1" xmlns="http://www.w3.org/2000/svg" xmlns:xlink="http://www.w3.org/1999/xlink">
    <!-- Generator: Sketch 55.2 (78181) - https://sketchapp.com -->
    <title>linkedin</title>
    <desc>Created with Sketch.</desc>
    <g id="Home" stroke="none" stroke-width="1" fill="none" fill-rule="evenodd">
        <g transform="translate(-392.000000, -5613.000000)" id="Footer">
            <g transform="translate(-1.000000, 5539.000000)">
                <g id="Footer-Logo" transform="translate(271.000000, 0.000000)">
                    <g id="Group-4" transform="translate(0.000000, 74.000000)">
                        <g id="linkedin" transform="translate(122.000000, 0.000000)">
                            <rect id="Rectangle" x="0" y="0" width="34" height="34"></rect>
                            <circle id="Oval" stroke="#316DC7" stroke-width="2" cx="17" cy="17" r="16"></circle>
                            <path d="M9.66254383,14.2283146 L12.6747627,14.2283146 L12.6747627,24.7262832 L9.66254383,24.7262832 L9.66254383,14.2283146 Z M11.0918712,12.9152027 L11.0700633,12.9152027 C9.97966732,12.9152027 9.27272727,12.1126905 9.27272727,11.0964388 C9.27272727,10.059407 10.0005666,9.27272727 11.1127705,9.27272727 C12.2240657,9.27272727 12.9073805,10.0574279 12.9291884,11.0934702 C12.9291884,12.1097219 12.2240657,12.9152027 11.0918712,12.9152027 L11.0918712,12.9152027 Z M24.7272727,24.7272727 L21.3116074,24.7272727 L21.3116074,19.2937403 C21.3116074,17.8717796 20.7773133,16.9020361 19.6024117,16.9020361 C18.7037437,16.9020361 18.2039789,17.5561182 17.9713611,18.1884306 C17.8841294,18.4140444 17.8977593,18.7297058 17.8977593,19.0463568 L17.8977593,24.7272727 L14.5138972,24.7272727 C14.5138972,24.7272727 14.557513,15.1030629 14.5138972,14.2283146 L17.8977593,14.2283146 L17.8977593,15.8758891 C18.0976653,15.1555082 19.1789746,14.1273822 20.9045262,14.1273822 C23.045337,14.1273822 24.7272727,15.6384009 24.7272727,18.8890208 L24.7272727,24.7272727 L24.7272727,24.7272727 Z" id="Shape" fill="#316DC7"></path>
                        </g>
                    </g>
                </g>
            </g>
        </g>
    </g>
</svg>