<?xml version="1.0" encoding="UTF-8"?>
<svg width="180px" height="40px" viewBox="0 0 180 40" version="1.1" xmlns="http://www.w3.org/2000/svg" xmlns:xlink="http://www.w3.org/1999/xlink">
    <!-- Generator: Sketch 55.2 (78181) - https://sketchapp.com -->
    <title>Group 12</title>
    <desc>Created with Sketch.</desc>
    <defs>
        <polygon id="path-1" points="0 0.075042735 9.9382906 0.075042735 9.9382906 10.0132991 0 10.0132991"></polygon>
        <polygon id="path-3" points="0.147230769 0.075042735 10.0855214 0.075042735 10.0855214 10.0132991 0.147230769 10.0132991"></polygon>
        <polygon id="path-5" points="0.159076923 0.075042735 10.0973675 0.075042735 10.0973675 10.0132991 0.159076923 10.0132991"></polygon>
    </defs>
    <g id="Home" stroke="none" stroke-width="1" fill="none" fill-rule="evenodd">
        <g transform="translate(-270.000000, -5539.000000)" id="Footer">
            <g transform="translate(-1.000000, 5539.000000)">
                <g id="Footer-Logo" transform="translate(271.000000, 0.000000)">
                    <g id="Group-12">
                        <g id="Group-32">
                            <path d="M19.3396068,39.9249573 L19.3218291,39.9249573 L19.3254188,39.9249573 L19.3396068,39.9249573 L19.3396068,39.9249573 Z M21.2837094,39.5205128 C20.6731111,39.7825641 20.0119145,39.9222222 19.3402906,39.9249573 C19.9914017,39.9230769 20.6514017,39.7924786 21.2837094,39.5205128 L21.2837094,39.5205128 Z M17.2018291,39.4492308 C17.2090085,39.4526496 17.216188,39.4558974 17.2233675,39.4593162 C17.216188,39.4555556 17.2093504,39.4523077 17.2018291,39.4492308 L17.2018291,39.4492308 Z M16.5883248,39.1052991 C16.7826838,39.2329915 16.9859316,39.3468376 17.1951624,39.445812 C17.1855897,39.4415385 17.1760171,39.4367521 17.1666154,39.4323077 C16.9642222,39.3347009 16.7710598,39.2251282 16.5883248,39.1052991 L16.5883248,39.1052991 Z M16.5645641,39.0895726 C16.5720855,39.0947009 16.5796068,39.0993162 16.5867863,39.1042735 C16.5796068,39.0993162 16.5720855,39.094359 16.5645641,39.0895726 L16.5645641,39.0895726 Z M23.8155043,37.0764103 L23.7994359,37.1100855 C23.5987521,37.5264957 23.3483248,37.9020513 23.0578974,38.2333333 C23.3652479,37.8823932 23.6194359,37.4923077 23.8155043,37.0764103 L23.8155043,37.0764103 Z M19.3221709,23.4989744 L9.44661538,2.98478632 L0.49191453,7.29538462 L14.8254188,37.0700855 L19.3221709,23.4989744 Z" id="Fill-1" fill="#2460C8"></path>
                            <path d="M29.2396068,2.90005128 C29.2254188,2.92825641 29.2114017,2.95646154 29.1977265,2.98483761 L19.3221709,23.4990256 L23.8158462,37.0764615 L33.6751624,16.5962906 L29.2396068,2.90005128 Z" id="Fill-4" fill="#578AE3"></path>
                            <path d="M19.3222393,23.4990085 L14.8448034,32.7993504 C14.1695897,34.2014017 14.211812,35.763453 14.8253162,37.0702906 L14.8448034,37.1104615 L23.7993333,37.1104615 L23.8154017,37.0767863 C24.4319829,35.7687521 24.4754017,34.2039658 23.7993333,32.7996923 L19.3220684,23.4990085" id="Fill-6" fill="#2460C8"></path>
                            <path d="M48.0280171,23.4985128 L38.1690427,3.01868376 L33.6751966,16.5962906 L43.5509231,37.1101368 C43.5645983,37.1388547 43.5784444,37.1668889 43.5926325,37.195094 L48.0280171,23.4985128 Z" id="Fill-8" fill="#2460C8"></path>
                            <path d="M29.2499658,2.8794359 C29.2491111,2.88097436 29.2484274,2.88268376 29.2477436,2.88405128 C29.2450085,2.88969231 29.2424444,2.89447863 29.2393675,2.90011966 C28.5684274,4.23123077 28.5014188,5.84849573 29.1976581,7.29533333 L33.675265,16.596188 L38.1527009,7.29533333 C38.8285983,5.89123077 38.7856923,4.32661538 38.1691111,3.01875214 L38.1525299,2.98473504 L29.2499658,2.8794359 Z" id="Fill-10" fill="#578AE3"></path>
                            <path d="M48.0457094,39.9249573 L48.0279316,39.9249573 L48.0315214,39.9249573 L48.0457094,39.9249573 M50.0021197,39.5150427 C49.3881026,39.7805128 48.7224615,39.9218803 48.0463932,39.9249573 C48.7021197,39.9230769 49.3662222,39.7907692 50.0021197,39.5150427 M51.5166496,38.4953846 C51.5101538,38.5018803 51.5036581,38.5080342 51.4971624,38.5145299 C51.5036581,38.5083761 51.5101538,38.5018803 51.5166496,38.4953846 M51.5807521,38.431453 C51.5675897,38.4449573 51.5542564,38.4582906 51.5409231,38.4716239 C51.5540855,38.4582906 51.5674188,38.4449573 51.5807521,38.431453 M51.6428034,38.3663248 C51.6289573,38.3813675 51.6149402,38.3957265 51.601094,38.4104274 C51.6149402,38.3960684 51.6291282,38.3811966 51.6428034,38.3663248 M51.7038291,38.3005128 C51.6848547,38.3213675 51.6658803,38.3420513 51.6463932,38.3625641 C51.6658803,38.3420513 51.6850256,38.3213675 51.7038291,38.3005128 M43.9303248,37.7664957 C44.466735,38.5502564 45.2019487,39.1420513 46.0335726,39.5059829 C45.9797265,39.4823932 45.9262222,39.4579487 45.8728889,39.4323077 C45.0617778,39.0417094 44.4046838,38.4598291 43.9303248,37.7664957 M43.898188,37.7193162 C43.9086154,37.7347009 43.9190427,37.7500855 43.9294701,37.765641 C43.9190427,37.7500855 43.9086154,37.7347009 43.898188,37.7193162 M52.5219487,37.0764103 L52.5053675,37.1100855 C52.2918632,37.554359 52.0204103,37.9524786 51.7048547,38.2993162 C52.0390427,37.9317949 52.3134017,37.5189744 52.5219487,37.0764103" id="Fill-12" fill="#E73181"></path>
                            <polygon id="Fill-15" fill="#578AE3" points="57.903641 2.98476923 48.0280855 23.4984444 52.5219316 37.0762222 66.8585128 7.29519658"></polygon>
                            <path d="M48.0280171,23.4985128 L43.5505812,32.7991966 C42.8815214,34.189453 42.8931453,35.5391966 43.3422051,36.6846667 L52.5143419,37.0916752 C53.1445983,35.7682564 53.1777607,34.1954359 52.5052821,32.7988547 L48.0280171,23.4985128" id="Fill-17" fill="#2460C8"></path>
                            <g id="Group-21" transform="translate(0.000000, 0.095897)">
                                <mask id="mask-2" fill="white">
                                    <use xlink:href="#path-1"></use>
                                </mask>
                                <g id="Clip-20"></g>
                                <path d="M0,5.04423932 C0,2.29979487 2.22478632,0.075008547 4.96905983,0.075008547 C7.71350427,0.075008547 9.9382906,2.29979487 9.9382906,5.04423932 C9.9382906,7.78851282 7.71350427,10.0132991 4.96905983,10.0132991 C2.22478632,10.0132991 0,7.78851282 0,5.04423932" id="Fill-19" fill="#82A9ED" mask="url(#mask-2)"></path>
                            </g>
                            <path d="M14.3529573,34.9548376 C14.3529573,32.2103932 16.5779145,29.9857778 19.322188,29.9857778 C22.0664615,29.9857778 24.2912479,32.2103932 24.2912479,34.9548376 C24.2912479,37.6992821 22.0664615,39.9238974 19.322188,39.9238974 C16.5779145,39.9238974 14.3529573,37.6992821 14.3529573,34.9548376" id="Fill-22" fill="#82A9ED"></path>
                            <g id="Group-26" transform="translate(57.264957, 0.095897)">
                                <mask id="mask-4" fill="white">
                                    <use xlink:href="#path-3"></use>
                                </mask>
                                <g id="Clip-25"></g>
                                <path d="M0.147230769,5.04423932 C0.147230769,2.29979487 2.37201709,0.075008547 5.1162906,0.075008547 C7.86073504,0.075008547 10.0855214,2.29979487 10.0855214,5.04423932 C10.0855214,7.78851282 7.86073504,10.0132991 5.1162906,10.0132991 C2.37201709,10.0132991 0.147230769,7.78851282 0.147230769,5.04423932" id="Fill-24" fill="#82A9ED" mask="url(#mask-4)"></path>
                            </g>
                            <path d="M43.0590598,34.9548376 C43.0590598,32.2103932 45.2840171,29.9857778 48.0281197,29.9857778 C50.7725641,29.9857778 52.9975214,32.2103932 52.9975214,34.9548376 C52.9975214,37.6992821 50.7725641,39.9238974 48.0281197,39.9238974 C45.2840171,39.9238974 43.0590598,37.6992821 43.0590598,34.9548376" id="Fill-27" fill="#82A9ED"></path>
                            <g id="Group-31" transform="translate(28.547009, 0.095897)">
                                <mask id="mask-6" fill="white">
                                    <use xlink:href="#path-5"></use>
                                </mask>
                                <g id="Clip-30"></g>
                                <path d="M0.159076923,5.04423932 C0.159076923,2.29979487 2.38386325,0.075008547 5.12813675,0.075008547 C7.8725812,0.075008547 10.0973675,2.29979487 10.0973675,5.04423932 C10.0973675,7.78851282 7.8725812,10.0132991 5.12813675,10.0132991 C2.38386325,10.0132991 0.159076923,7.78851282 0.159076923,5.04423932" id="Fill-29" fill="#82A9ED" mask="url(#mask-6)"></path>
                            </g>
                        </g>
                        <g id="Group-50" transform="translate(80.341880, 4.273504)" fill="#353C49">
                            <path d="M11.8131966,30.6337607 C11.4742222,30.7790598 11.1073846,30.8564957 10.7345641,30.8580342 C11.0959316,30.8570085 11.4624274,30.7845299 11.8131966,30.6337607 L11.8131966,30.6337607 Z M9.20704274,30.4031624 C9.31507692,30.4741026 9.4277265,30.5371795 9.54396581,30.5922222 C9.53866667,30.5898291 9.53336752,30.587094 9.52806838,30.5845299 C9.41576068,30.5305128 9.3085812,30.4698291 9.20704274,30.4031624 L9.20704274,30.4031624 Z M13.2184957,29.2770085 L13.2094359,29.295812 C13.0981538,29.5267521 12.9593504,29.7352991 12.7979829,29.9190598 C12.9685812,29.724359 13.1096068,29.5079487 13.2184957,29.2770085 L13.2184957,29.2770085 Z M10.7244786,21.7411111 L5.24311111,10.3549573 L0.273025641,12.7474359 L8.2285812,29.2734188 L10.7244786,21.7411111 Z" id="Fill-1"></path>
                            <path d="M16.340188,10.2189231 C16.3319829,10.2344786 16.3241197,10.2500342 16.3162564,10.2655897 L10.7027521,21.5871282 L13.108906,29.1517436 L18.7133504,17.8490085 L16.340188,10.2189231 Z" id="Fill-3"></path>
                            <path d="M10.724547,21.7411111 L8.2394188,26.9031624 C7.86471795,27.6812821 7.88813675,28.5482906 8.22847863,29.2735897 L8.2394188,29.295812 L13.2095043,29.295812 L13.2185641,29.2771795 C13.5606154,28.5513675 13.5847179,27.6828205 13.2095043,26.9033333 L10.724547,21.7411111" id="Fill-5"></path>
                            <path d="M26.6573675,21.7407692 L21.1852308,10.3737607 L18.6908718,17.9098291 L24.1724103,29.295812 C24.1799316,29.3117094 24.1876239,29.327265 24.1956581,29.3429915 L26.6573675,21.7407692 Z" id="Fill-7"></path>
                            <path d="M16.2348547,10.2964615 C16.2343419,10.2973162 16.234,10.2981709 16.2334872,10.2990256 C16.2319487,10.3021026 16.2307521,10.3048376 16.2290427,10.3079145 C15.8565641,11.0467179 15.8192991,11.9443248 16.2057949,12.7474017 L18.6909231,17.9097949 L21.1760513,12.7474017 C21.5514359,11.9680855 21.5275043,11.0997094 21.1852821,10.3737265 L21.1760513,10.3549231 L16.2348547,10.2964615 Z" id="Fill-9"></path>
                            <path d="M27.7531966,30.6305128 C27.4121709,30.7780342 27.0427692,30.8563248 26.6675556,30.8580342 C27.0314872,30.8570085 27.4000342,30.7835043 27.7531966,30.6305128 M28.629265,30.0291453 C28.6219145,30.0364957 28.614735,30.0440171 28.6072137,30.0513675 C28.6145641,30.0440171 28.6219145,30.0364957 28.629265,30.0291453 M28.6637949,29.992906 C28.6559316,30.0012821 28.6482393,30.0093162 28.640547,30.0175214 C28.6482393,30.0094872 28.6561026,30.0011111 28.6637949,29.992906 M28.697641,29.9564957 C28.6868718,29.9681197 28.6766154,29.9795726 28.6656752,29.9910256 C28.6766154,29.9795726 28.6870427,29.9681197 28.697641,29.9564957 M24.3829402,29.6600855 C24.6807179,30.0949573 25.0889231,30.4235043 25.5502906,30.6255556 C25.520547,30.6123932 25.4906325,30.5987179 25.4610598,30.5845299 C25.0109744,30.3679487 24.646359,30.0448718 24.3829402,29.6600855 M24.3651624,29.6337607 C24.3708034,29.6424786 24.3767863,29.6510256 24.3825983,29.6595726 C24.3767863,29.6510256 24.3708034,29.6424786 24.3651624,29.6337607 M29.1514872,29.2770085 L29.1424274,29.295812 C29.0237949,29.5424786 28.8731966,29.7633333 28.6981538,29.955812 C28.8836239,29.7518803 29.0357607,29.5226496 29.1514872,29.2770085" id="Fill-11"></path>
                            <path d="M31.9869059,10.7295726 L26.6344615,21.7727521 L29.0406154,29.3371966 L37.190188,12.901641 C37.5021425,11.4515442 37.3247863,10.7264957 36.6581197,10.7264957 C35.6872864,10.2451591 34.1302151,10.2461847 31.9869059,10.7295726 Z" id="Fill-13"></path>
                            <path d="M26.6573675,21.7407692 L24.1722393,26.9029915 C23.8007863,27.6746154 23.8072821,28.4238462 24.0565128,29.0594017 L29.147453,29.2855556 C29.4971966,28.5510256 29.5156581,27.6780342 29.1424957,26.9028205 L26.6573675,21.7407692" id="Fill-15"></path>
                            <path d="M5.12820513e-05,11.5512137 C5.12820513e-05,10.0279658 1.23492308,8.79309402 2.758,8.79309402 C4.28124786,8.79309402 5.51611966,10.0279658 5.51611966,11.5512137 C5.51611966,13.0744615 4.28124786,14.3091624 2.758,14.3091624 C1.23492308,14.3091624 5.12820513e-05,13.0744615 5.12820513e-05,11.5512137" id="Fill-17"></path>
                            <path d="M7.96646154,28.099453 C7.96646154,26.5762051 9.20133333,25.3415043 10.7245812,25.3415043 C12.2478291,25.3415043 13.4827009,26.5762051 13.4827009,28.099453 C13.4827009,29.6227009 12.2478291,30.8575726 10.7245812,30.8575726 C9.20133333,30.8575726 7.96646154,29.6227009 7.96646154,28.099453" id="Fill-19"></path>
                            <path d="M31.8658632,11.5512137 C31.8658632,10.0279658 33.100735,8.79309402 34.6239829,8.79309402 C36.1472308,8.79309402 37.3821026,10.0279658 37.3821026,11.5512137 C37.3821026,13.0744615 36.1472308,14.3091624 34.6239829,14.3091624 C33.100735,14.3091624 31.8658632,13.0744615 31.8658632,11.5512137" id="Fill-21"></path>
                            <path d="M23.899453,28.099453 C23.899453,26.5762051 25.1343248,25.3415043 26.6575726,25.3415043 C28.1806496,25.3415043 29.4156923,26.5762051 29.4156923,28.099453 C29.4156923,29.6227009 28.1806496,30.8575726 26.6575726,30.8575726 C25.1343248,30.8575726 23.899453,29.6227009 23.899453,28.099453" id="Fill-23"></path>
                            <path d="M15.9330427,11.5512137 C15.9330427,10.0279658 17.1679145,8.79309402 18.6909915,8.79309402 C20.2142393,8.79309402 21.4491111,10.0279658 21.4491111,11.5512137 C21.4491111,13.0744615 20.2142393,14.3091624 18.6909915,14.3091624 C17.1679145,14.3091624 15.9330427,13.0744615 15.9330427,11.5512137" id="Fill-25"></path>
                            <path d="M56.6735556,20.0368889 C56.6732137,19.4144957 56.5774872,18.8227009 56.4000513,18.2640684 C56.2224444,17.7056068 55.9626154,17.1799658 55.6308205,16.6997949 C54.9684274,15.7392821 54.0183419,14.9645812 52.9021026,14.5032137 C52.1571453,14.1953504 51.3403932,14.0238974 50.4679145,14.0235556 C49.8132137,14.0237265 49.1906496,14.1204786 48.6055214,14.2984274 C48.0205641,14.4763761 47.4733846,14.7363761 46.9771453,15.0644103 C45.9844957,15.7201368 45.2019316,16.6476581 44.7402222,17.7170598 C44.432188,18.4310769 44.2626154,19.2071453 44.2622735,20.0368889 L38.7462047,20.0368889 C38.7458632,18.8428718 38.932359,17.682359 39.2786838,16.5931282 C39.6250085,15.5035556 40.1304786,14.4856068 40.7653504,13.5659487 C42.0357778,11.7264615 43.8231282,10.2767179 45.9239829,9.40646154 C47.3239829,8.82663248 48.8650085,8.5071453 50.4679145,8.5076575 L50.4692821,8.5076575 C51.6704786,8.5076575 52.838,8.68697436 53.9362906,9.02133333 C55.0356068,9.35586325 56.0660342,9.84492308 57.0005641,10.4628718 C58.8689402,11.6985983 60.3593675,13.4497094 61.2586838,15.5283419 C61.8578291,16.9131282 62.1901368,18.4444103 62.1896245,20.0368889 L56.6735556,20.0368889 Z" id="Fill-27"></path>
                            <path d="M62.1893846,20.0368889 C62.1893846,21.5601368 60.9546838,22.7950085 59.4314359,22.7950085 C57.908188,22.7950085 56.6733162,21.5601368 56.6733162,20.0368889 C56.6709231,23.3827009 53.8731453,26.0500513 50.4678462,26.0500513 C47.0287009,26.0488547 44.2637436,23.3510769 44.2622051,20.0368889 C44.2622051,21.5601368 43.0273333,22.7950085 41.5040855,22.7950085 C39.9810085,22.7950085 38.745965,21.5601368 38.745965,20.0368889 C38.7435726,26.3866325 43.9803248,31.5661199 50.4663077,31.5661199 L50.4678462,31.5661199 C56.9363932,31.5673162 62.1902393,26.4057778 62.1893846,20.0368889" id="Fill-29"></path>
                            <path d="M41.5042906,17.4499145 C39.9812137,17.4499145 38.7461709,18.6847863 38.7461709,20.2080342 C38.7461709,21.7311111 39.9810427,22.9661538 41.5042906,22.9661538 C43.0275385,22.9661538 44.2624103,21.7312821 44.2624103,20.2080342 C44.2622393,18.6847863 43.0273675,17.4499145 41.5042906,17.4499145" id="Fill-31"></path>
                            <path d="M59.431641,17.4499145 C57.9083932,17.4499145 56.6735214,18.6847863 56.6735214,20.2080342 C56.6735214,21.7311111 57.9083932,22.9661538 59.431641,22.9661538 C60.9547179,22.9661538 62.1895897,21.7312821 62.1895897,20.2080342 C62.1894188,18.6847863 60.9547179,17.4499145 59.431641,17.4499145" id="Fill-33"></path>
                            <path d="M73.6250085,2.75806838 L73.6222735,23.0467863 C73.6185128,25.1958462 75.0282564,25.5717436 77.1867179,25.2537949 L77.9889402,30.7110598 C71.6432991,31.6450769 68.1190256,28.0242222 68.1087692,22.8994359 L68.1087692,2.75806838" id="Fill-35"></path>
                            <path d="M68.1090256,7.9714188 L66.4303932,7.9714188 C64.9071453,7.9714188 63.6722735,9.2062906 63.6722735,10.7295385 C63.6722735,12.2526154 64.9071453,13.4876581 66.4303932,13.4876581 L68.1090256,13.4876581 L68.1090256,7.9714188 L68.1090256,7.9714188 Z M73.6249231,13.4876581 L77.4360342,13.4876581 L77.4360342,7.9714188 L73.6249231,7.9714188 L73.6249231,13.4876581 Z" id="Fill-37"></path>
                            <polygon id="Fill-39" points="65.8669231 13.4876923 75.8669231 13.4876923 75.8669231 7.97145299 65.8669231 7.97145299"></polygon>
                            <path d="M68.1090256,2.75806838 C68.1090256,1.23482051 69.3438974,-5.12820513e-05 70.8671453,-5.12820513e-05 C72.3903932,-5.12820513e-05 73.625265,1.23482051 73.625265,2.75806838 C73.625265,4.28131624 72.3903932,5.51601709 70.8671453,5.51601709 C69.3438974,5.51601709 68.1090256,4.28131624 68.1090256,2.75806838" id="Fill-41"></path>
                            <path d="M74.6778632,10.7294872 C74.6778632,9.20623932 75.912906,7.97136752 77.4359829,7.97136752 C78.9592308,7.97136752 80.1941026,9.20623932 80.1941026,10.7294872 C80.1941026,12.252735 78.9592308,13.4876068 77.4359829,13.4876068 C75.912906,13.4876068 74.6778632,12.252735 74.6778632,10.7294872" id="Fill-42"></path>
                            <path d="M74.8299487,27.9822564 C74.8299487,26.4591795 76.0648205,25.2243077 77.5880684,25.2243077 C79.1111453,25.2243077 80.3460171,26.4591795 80.3460171,27.9822564 C80.3460171,29.5055043 79.1111453,30.7403761 77.5880684,30.7403761 C76.0648205,30.7403761 74.8299487,29.5055043 74.8299487,27.9822564" id="Fill-43"></path>
                            <path d="M92.8097094,2.75806838 L92.8069744,23.0467863 C92.8032137,25.1958462 94.2127863,25.5717436 96.3714188,25.2537949 L97.173641,30.7110598 C90.828,31.6450769 87.3037265,28.0242222 87.2934701,22.8994359 L87.2934701,2.75806838" id="Fill-44"></path>
                            <path d="M87.2937094,7.9714188 L85.614906,7.9714188 C84.0916581,7.9714188 82.8569573,9.2062906 82.8569573,10.7295385 C82.8569573,12.2526154 84.0916581,13.4876581 85.614906,13.4876581 L87.2937094,13.4876581 L87.2937094,7.9714188 L87.2937094,7.9714188 Z M92.8096068,13.4876581 L96.6207179,13.4876581 L96.6207179,7.9714188 L92.8096068,7.9714188 L92.8096068,13.4876581 Z" id="Fill-45"></path>
                            <polygon id="Fill-46" points="85.0517094 13.4876923 95.0517094 13.4876923 95.0517094 7.97145299 85.0517094 7.97145299"></polygon>
                            <path d="M87.2937094,2.75806838 C87.2937094,1.23482051 88.5285812,-5.12820513e-05 90.0518291,-5.12820513e-05 C91.5750769,-5.12820513e-05 92.8099487,1.23482051 92.8099487,2.75806838 C92.8099487,4.28131624 91.5750769,5.51601709 90.0518291,5.51601709 C88.5285812,5.51601709 87.2937094,4.28131624 87.2937094,2.75806838" id="Fill-47"></path>
                            <path d="M93.862547,10.7294872 C93.862547,9.20623932 95.0974188,7.97136752 96.6206667,7.97136752 C98.1439145,7.97136752 99.3787863,9.20623932 99.3787863,10.7294872 C99.3787863,12.252735 98.1439145,13.4876068 96.6206667,13.4876068 C95.0974188,13.4876068 93.862547,12.252735 93.862547,10.7294872" id="Fill-48"></path>
                            <path d="M94.0146325,27.9822564 C94.0146325,26.4591795 95.2495043,25.2243077 96.7725812,25.2243077 C98.2958291,25.2243077 99.5307009,26.4591795 99.5307009,27.9822564 C99.5307009,29.5055043 98.2958291,30.7403761 96.7725812,30.7403761 C95.2495043,30.7403761 94.0146325,29.5055043 94.0146325,27.9822564" id="Fill-49"></path>
                        </g>
                    </g>
                </g>
            </g>
        </g>
    </g>
</svg>