<?xml version="1.0" encoding="UTF-8"?>
<svg width="60px" height="68px" viewBox="0 0 60 68" version="1.1" xmlns="http://www.w3.org/2000/svg" xmlns:xlink="http://www.w3.org/1999/xlink">
    <!-- Generator: Sketch 55.2 (78181) - https://sketchapp.com -->
    <title>Group 10</title>
    <desc>Created with Sketch.</desc>
    <g id="Home" stroke="none" stroke-width="1" fill="none" fill-rule="evenodd">
        <g transform="translate(-371.000000, -4522.000000)" fill-rule="nonzero" id="We-raise-the-bar-in-security-for-cyber-physical-systems">
            <g transform="translate(93.000000, 4144.000000)">
                <g id="Open-source" transform="translate(177.000000, 378.000000)">
                    <g id="Group-10" transform="translate(101.000000, 0.000000)">
                        <path d="M26.4579727,45.3543335 C26.7859163,44.7778375 26.5815605,44.0465895 26.0012305,43.7204408 C21.9283861,41.449321 20.4811296,36.3301355 22.7688053,32.286566 C25.0564811,28.2429965 30.2126155,26.8061426 34.28546,29.0773749 C38.3583044,31.3486072 39.8055609,36.4676803 37.5178851,40.5112497 C36.7575544,41.8553199 35.6391477,42.9655752 34.28546,43.7204408 C33.70513,44.0465895 33.5007742,44.7778375 33.8287178,45.3543335 C40.5769849,57.1372584 44.1727261,63.3811978 44.6159414,64.0861517 C40.5590577,66.3969128 35.9106766,67.7885951 30.9541901,67.9778065 C30.7787714,67.9894797 30.602431,67.996954 30.4252458,68 C30.3067563,68.002037 30.1880489,68.0012545 30.0691758,67.9987233 C29.9760462,67.9995738 29.8828152,68 29.7894847,68 C24.4118534,68 19.364698,66.5850647 15,64.1071758 L26.4579727,45.3543335 Z" id="Oval" fill="#4CD7ED"></path>
                        <path d="M38.7192869,46.8856281 C44.8261641,43.7258001 49,37.3503258 49,30 C49,19.5065898 40.4934102,11 30,11 C19.5065898,11 11,19.5065898 11,30 C11,37.3395485 15.1616052,43.707102 21.2538631,46.8717082 L15.5088776,56.2743145 C6.2619731,51.1634663 0,41.3130142 0,30 C0,13.4314575 13.4314575,0 30,0 C46.5685425,0 60,13.4314575 60,30 C60,41.4233196 53.6153193,51.3554171 44.2197937,56.4224567 C43.4334407,55.0833543 41.5999385,51.9044115 38.7192869,46.8856281 Z" id="Combined-Shape" fill="#316DC7"></path>
                    </g>
                </g>
            </g>
        </g>
    </g>
</svg>