<?xml version="1.0" encoding="UTF-8"?>
<svg width="89px" height="71px" viewBox="0 0 89 71" version="1.1" xmlns="http://www.w3.org/2000/svg" xmlns:xlink="http://www.w3.org/1999/xlink">
    <!-- Generator: Sketch 55.2 (78181) - https://sketchapp.com -->
    <title>password-2</title>
    <desc>Created with Sketch.</desc>
    <g id="Products-" stroke="none" stroke-width="1" fill="none" fill-rule="evenodd">
        <g id="Products" transform="translate(-1383.000000, -1269.000000)" fill-rule="nonzero">
            <g transform="translate(93.000000, 746.000000)" id="Hygiene">
                <g transform="translate(758.500000, 0.000000)">
                    <g id="Insights" transform="translate(396.500000, 523.500000)">
                        <g id="password-2" transform="translate(135.000000, 0.000000)">
                            <g id="Group" transform="translate(27.722772, 36.732673)">
                                <path d="M19.682995,9.58566832 L22.1056188,4.39596535 C18.7459653,3.67777228 15.5152228,2.21608911 12.6795297,0.010049505 L10.2598515,5.19282178 C10.5552723,5.32935644 19.4598267,9.48153465 19.682995,9.58566832 Z" id="Path" fill="#316DC7"></path>
                                <path d="M8.06160891,9.90136139 L0.641089109,25.7956931 C-0.574034653,28.3983416 0.551683168,31.4930693 3.15485149,32.7068069 C5.75628713,33.9198515 8.84858911,32.795 10.0626733,30.1940842 L17.4842327,14.2955941 C17.2612376,14.1916337 8.35962871,10.0417079 8.06160891,9.90136139 Z" id="Path" fill="#4CD7ED"></path>
                            </g>
                            <path d="M35.3018317,5.27425743 L2.5990099,5.27425743 C1.16366337,5.27425743 0,6.43792079 0,7.87326733 L0,28.6653465 C0,30.1006931 1.16366337,31.2643564 2.5990099,31.2643564 L35.3018317,31.2643564 C30.0641337,23.4304208 30.0641337,13.1083663 35.3018317,5.27425743 Z M13.1683168,20.8683168 C11.7329703,20.8683168 10.5693069,19.7046535 10.5693069,18.2693069 C10.5693069,16.8339604 11.7329703,15.670297 13.1683168,15.670297 C14.6036634,15.670297 15.7673267,16.8339604 15.7673267,18.2693069 C15.7673267,19.7046535 14.6036634,20.8683168 13.1683168,20.8683168 Z M23.5643564,20.8683168 C22.1290099,20.8683168 20.9653465,19.7046535 20.9653465,18.2693069 C20.9653465,16.8339604 22.1290099,15.670297 23.5643564,15.670297 C24.999703,15.670297 26.1633663,16.8339604 26.1633663,18.2693069 C26.1633663,19.7046535 24.999703,20.8683168 23.5643564,20.8683168 Z" id="Shape" fill="#316DC7"></path>
                            <path d="M86.1138614,5.27425743 L74.2031188,5.27425743 C79.4408168,13.1083663 79.4408168,23.4302475 74.2031188,31.2643564 L86.1138614,31.2643564 C87.5492079,31.2643564 88.7128713,30.1006931 88.7128713,28.6653465 L88.7128713,7.87326733 C88.7128713,6.43792079 87.5492079,5.27425743 86.1138614,5.27425743 Z" id="Path" fill="#316DC7"></path>
                            <g id="Group" transform="translate(36.386139, 0.000000)" fill="#4CD7ED">
                                <path d="M23.5643564,15.670297 L20.9653465,15.670297 L20.9653465,20.8683168 L23.5643564,20.8683168 C24.9974505,20.8683168 26.1633663,19.702401 26.1633663,18.2693069 C26.1633663,16.8362129 24.9974505,15.670297 23.5643564,15.670297 Z" id="Path"></path>
                                <path d="M31.2309158,5.40490099 C24.1207178,-1.70512376 12.6126485,-1.70581683 5.50193069,5.40490099 C-5.95554455,16.8625495 2.26806931,36.4623762 18.3663366,36.4623762 C34.4524752,36.4623762 42.6984406,16.8727723 31.2309158,5.40490099 Z M10.5693069,23.4673267 C10.5693069,24.9026733 9.40564356,26.0663366 7.97029703,26.0663366 C6.5349505,26.0663366 5.37128713,24.9026733 5.37128713,23.4673267 L5.37128713,13.0712871 C5.37128713,11.6359406 6.5349505,10.4722772 7.97029703,10.4722772 C9.40564356,10.4722772 10.5693069,11.6359406 10.5693069,13.0712871 L10.5693069,23.4673267 Z M23.5643564,26.0663366 L18.3663366,26.0663366 C16.9309901,26.0663366 15.7673267,24.9026733 15.7673267,23.4673267 L15.7673267,13.0712871 C15.7673267,11.6359406 16.9309901,10.4722772 18.3663366,10.4722772 L23.5643564,10.4722772 C27.8636386,10.4722772 31.3613861,13.9700248 31.3613861,18.2693069 C31.3613861,22.5685891 27.8636386,26.0663366 23.5643564,26.0663366 Z" id="Shape"></path>
                            </g>
                        </g>
                    </g>
                </g>
            </g>
        </g>
    </g>
</svg>