<?xml version="1.0" encoding="UTF-8"?>
<svg width="44px" height="44px" viewBox="0 0 44 44" version="1.1" xmlns="http://www.w3.org/2000/svg" xmlns:xlink="http://www.w3.org/1999/xlink">
    <!-- Generator: Sketch 55.2 (78181) - https://sketchapp.com -->
    <title>pinterest</title>
    <desc>Created with Sketch.</desc>
    <g id="Blog-Entry" stroke="none" stroke-width="1" fill="none" fill-rule="evenodd">
        <g transform="translate(-291.000000, -1424.000000)" id="Blog-Entry-Content">
            <g transform="translate(93.000000, 461.000000)">
                <g id="Share-Widget" transform="translate(178.000000, 696.000000)">
                    <g id="pinterest" transform="translate(20.000000, 267.000000)">
                        <rect id="Rectangle" x="0" y="0" width="44" height="44"></rect>
                        <circle id="Oval" stroke="#316DC7" stroke-width="2" cx="22" cy="22" r="21"></circle>
                        <path d="M10,22 C10,26.9134525 12.9562559,31.1354657 17.1853246,32.991063 C17.150047,32.1528692 17.178269,31.1467545 17.3927563,30.2351834 C17.6241769,29.261524 18.9365005,23.696143 18.9365005,23.696143 C18.9365005,23.696143 18.5526811,22.9299153 18.5526811,21.7982126 C18.5526811,20.0188147 19.5841957,18.690969 20.8668862,18.690969 C21.9590781,18.690969 22.4868297,19.5108184 22.4868297,20.4929445 C22.4868297,21.5907808 21.7869238,23.2318909 21.4270931,24.7516463 C21.1265287,26.0244591 22.0649106,27.0616181 23.3207902,27.0616181 C25.5940734,27.0616181 27.1251176,24.1434619 27.1251176,20.682032 C27.1251176,18.0531515 25.3541863,16.084666 22.1326435,16.084666 C18.4920038,16.084666 16.224365,18.7996237 16.224365,21.8306679 C16.224365,22.8762935 16.533396,23.6142992 17.0145814,24.1843838 C17.2375353,24.4468485 17.2685795,24.5526811 17.1881468,24.8546566 C17.1317027,25.0733772 16.9990593,25.6067733 16.9440263,25.8170273 C16.8635936,26.1204139 16.6180621,26.2290687 16.3428975,26.1175917 C14.6665099,25.4317968 13.8861712,23.5959548 13.8861712,21.5329257 C13.8861712,18.1237065 16.7591722,14.0357479 22.4614299,14.0357479 C27.0432738,14.0357479 30.0587959,17.3518344 30.0587959,20.9106303 C30.0587959,25.6180621 27.4412041,29.1345249 23.5832549,29.1345249 C22.2878645,29.1345249 21.0700847,28.434619 20.6523989,27.6387582 C20.6523989,27.6387582 19.9553151,30.4031044 19.8071496,30.9379116 C19.5545626,31.8621825 19.0550329,32.7864534 18.6006585,33.5075259 C19.6787394,33.8264346 20.8189087,34 22.0014111,34 C28.6279398,34 34,28.6265287 34,22 C34,15.3720602 28.6279398,10 22.0014111,10 C15.3734713,10 10,15.3720602 10,22 Z" id="Shape" fill="#316DC7"></path>
                    </g>
                </g>
            </g>
        </g>
    </g>
</svg>