<?xml version="1.0" encoding="UTF-8"?>
<svg width="44px" height="44px" viewBox="0 0 44 44" version="1.1" xmlns="http://www.w3.org/2000/svg" xmlns:xlink="http://www.w3.org/1999/xlink">
    <!-- Generator: Sketch 55.2 (78181) - https://sketchapp.com -->
    <title>send</title>
    <desc>Created with Sketch.</desc>
    <g id="Blog-Entry" stroke="none" stroke-width="1" fill="none" fill-rule="evenodd">
        <g transform="translate(-291.000000, -1364.000000)" id="Blog-Entry-Content">
            <g transform="translate(93.000000, 461.000000)">
                <g id="Share-Widget" transform="translate(178.000000, 696.000000)">
                    <g id="send" transform="translate(20.000000, 207.000000)">
                        <rect id="Rectangle" x="0" y="0" width="44" height="44"></rect>
                        <circle id="Oval" stroke="#316DC7" stroke-width="2" cx="22" cy="22" r="21"></circle>
                        <path d="M30.9886676,11.9209704 L27.8458705,30.7777533 C27.8049484,31.0151012 27.6739999,31.1992476 27.4530208,31.3301981 C27.3384391,31.3956734 27.2115827,31.4284106 27.0724477,31.4284106 C26.9824192,31.4284106 26.8842078,31.4079498 26.7778105,31.3670278 L21.2165327,29.0958658 L18.2456073,32.7174485 C18.0982879,32.9056899 17.8977729,32.9998091 17.6440563,32.9998091 C17.537659,32.9998091 17.4476318,32.9834406 17.3739721,32.9507029 C17.2184684,32.8934121 17.093658,32.7972467 16.9995373,32.662204 C16.9054166,32.5271612 16.858357,32.377798 16.858357,32.2141098 L16.858357,27.9295934 L27.4652974,14.9287255 L14.3416639,26.2845355 L9.49242614,24.2957342 C9.18960303,24.1811525 9.02591731,23.9560846 9.00136409,23.6205239 C8.98499527,23.2931475 9.11594384,23.0517111 9.39421373,22.8962073 L29.8223953,11.110718 C29.9451614,11.0370583 30.07611,11.000229 30.2152449,11.000229 C30.3789331,11.000229 30.5262502,11.0452426 30.6572007,11.1352711 C30.9272862,11.3316969 31.0377741,11.593594 30.9886676,11.9209704 Z" id="Shape" fill="#316DC7"></path>
                    </g>
                </g>
            </g>
        </g>
    </g>
</svg>