<?xml version="1.0" encoding="UTF-8"?>
<svg width="70px" height="70px" viewBox="0 0 70 70" version="1.1" xmlns="http://www.w3.org/2000/svg" xmlns:xlink="http://www.w3.org/1999/xlink">
    <!-- Generator: Sketch 55.2 (78181) - https://sketchapp.com -->
    <title>https://www.flaticon.com/free-icon/settings_87590#term=setup&amp;page=1&amp;position=92</title>
    <desc>Created with Sketch.</desc>
    <g id="Documentation" stroke="none" stroke-width="1" fill="none" fill-rule="evenodd">
        <g transform="translate(-676.000000, -504.000000)" fill-rule="nonzero" id="Features">
            <g transform="translate(93.000000, 429.000000)">
                <g transform="translate(481.000000, 75.000000)" id="https://www.flaticon.com/free-icon/settings_87590#term=setup&amp;page=1&amp;position=92">
                    <g transform="translate(102.000000, 0.000000)">
                        <path d="M35.3948682,46.3137323 C35.5142799,45.989716 35.6476065,45.6715213 35.7907302,45.3554564 C35.0758215,44.3210751 34.6917444,43.096146 34.6917444,41.8127181 C34.6917444,40.1406694 35.3447465,38.569716 36.5209736,37.3964706 C37.7024544,36.2115822 39.2745436,35.56 40.9478702,35.56 C42.2303043,35.56 43.4529615,35.9437931 44.4870588,36.65643 C44.8039757,36.5151521 45.1217444,36.3826775 45.4474645,36.2609939 C45.9854564,33.3559229 48.5364097,31.1485801 51.5959635,31.1485801 C52.301359,31.1485801 52.9770791,31.2773631 53.6110548,31.4944625 C54.7533469,30.636146 55.5029006,29.2822921 55.5029006,27.743712 C55.5029006,25.1441988 53.3950913,23.0368154 50.796146,23.0368154 L47.9299797,23.0368154 C47.4081744,20.7995132 46.5258621,18.7070385 45.3466531,16.8132049 L47.378783,14.7826369 C49.2169574,12.9451724 49.2169574,9.96413793 47.378783,8.12667343 C45.5398986,6.288357 42.5570183,6.288357 40.7223935,8.12667343 L38.6912576,10.1572414 C36.796998,8.97703854 34.7038134,8.09486815 32.4676471,7.5740568 L32.4676471,4.70689655 C32.4676471,2.10738337 30.3575659,0 27.7601826,0 C25.1592495,0 23.053286,2.10752535 23.053286,4.70689655 L23.053286,7.57377282 C20.8148479,8.09458418 18.7209533,8.97689655 16.8275456,10.1569574 L14.7983976,8.12766734 C12.961643,6.28920892 9.97890467,6.28920892 8.1421501,8.12766734 C6.30326572,9.96527383 6.30326572,12.9461663 8.1421501,14.7834888 L10.1712982,16.8129209 C8.99279919,18.7067546 8.10963489,20.7992292 7.59095335,23.0365314 L4.72208925,23.0365314 C2.12243408,23.0365314 0.0153346856,25.1440568 0.0153346856,27.743428 C0.0153346856,30.3427992 2.12257606,32.4503245 4.72208925,32.4503245 L7.59066937,32.4503245 C8.10935091,34.6879108 8.99251521,36.7813793 10.1739959,38.675213 L8.14172414,40.7057809 C6.30283976,42.5432454 6.30283976,45.5241379 8.14172414,47.3617444 C9.06095335,48.2811156 10.2651521,48.7407302 11.4696349,48.7407302 C12.6738337,48.7407302 13.8781744,48.2811156 14.7979716,47.3617444 L16.8293915,45.3311765 C18.7227992,46.5102434 20.8144219,47.3926978 23.05286,47.9133671 L23.05286,50.7802434 C23.05286,53.3796146 25.1586815,55.48714 27.7597566,55.48714 C28.8446856,55.48714 29.8330629,55.1044828 30.6283367,54.4861258 C30.4123732,53.8495943 30.2811765,53.1717444 30.2811765,52.4626572 C30.2811765,49.4048073 32.4878093,46.8515822 35.3948682,46.3137323 Z M27.7597566,37.1630426 C22.5568966,37.1630426 18.3375862,32.9457201 18.3375862,27.74357 C18.3375862,22.5412779 22.5570385,18.3240974 27.7597566,18.3240974 C32.9610548,18.3240974 37.1783773,22.5412779 37.1783773,27.74357 C37.1783773,32.9457201 32.9610548,37.1630426 27.7597566,37.1630426 Z" id="Shape" fill="#316DC7"></path>
                        <path d="M66.6564706,49.9909331 L64.9095943,49.9909331 C64.5601623,48.0892901 63.8179919,46.3263692 62.7625963,44.7933266 L63.9950507,43.5627181 C64.959858,42.5973428 64.959858,41.031217 63.9950507,40.0658418 C63.5122921,39.5822312 62.8777485,39.3408519 62.2460446,39.3408519 C61.6137728,39.3408519 60.9797972,39.5822312 60.4970385,40.0658418 L59.2647262,41.2978702 C57.7346653,40.2406288 55.9694726,39.4994523 54.0664097,39.1477485 L54.0664097,37.4022921 C54.0664097,36.0370791 52.9608925,34.930568 51.5959635,34.930568 C50.2310345,34.930568 49.1255172,36.0370791 49.1255172,37.4022921 L49.1255172,39.1477485 C47.2224544,39.4995943 45.4595335,40.2406288 43.9263489,41.2968763 L42.6948884,40.0674037 C42.2121298,39.584645 41.579574,39.3421298 40.9480122,39.3421298 C40.3131846,39.3421298 39.6794929,39.584645 39.1990061,40.0674037 C38.231359,41.031359 38.231359,42.5974848 39.1990061,43.56286 L40.4283367,44.7934686 C39.3736511,46.3266531 38.6314807,48.089432 38.2821907,49.9910751 L36.5353144,49.9910751 C35.1703854,49.9910751 34.0625963,51.0977282 34.0625963,52.4629412 C34.0625963,53.8292901 35.1703854,54.9359432 36.5353144,54.9359432 L38.2821907,54.9359432 C38.6314807,56.8375862 39.3737931,58.5993712 40.4306085,60.1332657 L39.1990061,61.3652941 C38.231359,62.3303854 38.231359,63.8956592 39.1990061,64.8607505 C39.6817647,65.3435091 40.3133266,65.5858824 40.9480122,65.5858824 C41.579432,65.5858824 42.2119878,65.3435091 42.6948884,64.8607505 L43.9263489,63.630284 C45.4595335,64.6849696 47.2224544,65.426288 49.1255172,65.7778499 L49.1255172,67.5234483 C49.1255172,68.8896552 50.2310345,69.9964503 51.5959635,69.9964503 C52.9608925,69.9964503 54.0664097,68.8896552 54.0664097,67.5234483 L54.0664097,65.7789858 C55.9694726,65.42643 57.7318256,64.6849696 59.2647262,63.6290061 L60.4970385,64.8618864 C60.9797972,65.344645 61.6137728,65.5860243 62.2460446,65.5860243 C62.8777485,65.5860243 63.5122921,65.344787 63.9950507,64.8618864 C64.959858,63.8967951 64.959858,62.3303854 63.9950507,61.3652941 L62.7625963,60.1332657 C63.8181339,58.5992292 64.5601623,56.8375862 64.9095943,54.9359432 L66.6564706,54.9359432 C68.0213996,54.9359432 69.1291886,53.8292901 69.1291886,52.4629412 C69.1291886,51.0975862 68.0213996,49.9909331 66.6564706,49.9909331 Z M51.5956795,57.5672617 C48.7758012,57.5672617 46.4910751,55.2818256 46.4910751,52.4629412 C46.4910751,49.6439148 48.7758012,47.3583367 51.5956795,47.3583367 C54.4155578,47.3583367 56.699574,49.6440568 56.699574,52.4629412 C56.699716,55.2818256 54.4156998,57.5672617 51.5956795,57.5672617 Z" id="Shape" fill="#4CD7ED"></path>
                    </g>
                </g>
            </g>
        </g>
    </g>
</svg>