<?xml version="1.0" encoding="UTF-8"?>
<svg width="52px" height="51px" viewBox="0 0 52 51" version="1.1" xmlns="http://www.w3.org/2000/svg" xmlns:xlink="http://www.w3.org/1999/xlink">
    <!-- Generator: Sketch 55.2 (78181) - https://sketchapp.com -->
    <title>Group 8</title>
    <desc>Created with Sketch.</desc>
    <defs>
        <polygon id="path-1" points="0.257873134 0.420114487 20.9333333 0.420114487 20.9333333 50.3327935 0.257873134 50.3327935"></polygon>
    </defs>
    <g id="Home" stroke="none" stroke-width="1" fill="none" fill-rule="evenodd">
        <g transform="translate(-974.000000, -4531.000000)" id="We-raise-the-bar-in-security-for-cyber-physical-systems">
            <g transform="translate(93.000000, 4144.000000)">
                <g id="Shift-left" transform="translate(778.000000, 387.000000)">
                    <g id="Group-8" transform="translate(129.000000, 26.000000) scale(-1, 1) translate(-129.000000, -26.000000) translate(103.000000, 0.000000)">
                        <path d="M0.594,7.28493333 C-0.626,5.17826667 0.094,2.47826667 2.20066667,1.26493333 C4.30733333,0.0382666667 7.00066667,0.758266667 8.22733333,2.86493333 L20.0873333,23.4116 C20.914,24.8516 20.8473333,26.5582667 20.054,27.8849333 L8.22733333,48.3849333 C7.00066667,50.4849333 4.30733333,51.2049333 2.20066667,49.9849333 C0.094,48.7649333 -0.626,46.0649333 0.594,43.9649333 L11.1806667,25.6249333 L0.594,7.28493333 Z" id="Fill-1" fill="#316DC7"></path>
                        <path d="M16.0566667,7.28493333 C14.8366667,5.17826667 15.5566667,2.47826667 17.6633333,1.26493333 C19.77,0.0382666667 22.4633333,0.758266667 23.6833333,2.86493333 L35.55,23.4116 C36.3766667,24.8516 36.31,26.5582667 35.5166667,27.8849333 L23.6833333,48.3849333 C22.4633333,50.4849333 19.77,51.2049333 17.6633333,49.9849333 C15.5566667,48.7649333 14.8366667,46.0649333 16.0566667,43.9649333 L26.6433333,25.6249333 L16.0566667,7.28493333 Z" id="Fill-3" fill="#4CD7ED"></path>
                        <g id="Group-7" transform="translate(30.666667, 0.246267)">
                            <mask id="mask-2" fill="white">
                                <use xlink:href="#path-1"></use>
                            </mask>
                            <g id="Clip-6"></g>
                            <path d="M0.852,7.03866667 C-0.368,4.932 0.352,2.232 2.452,1.01866667 C4.56533333,-0.208 7.25866667,0.512 8.47866667,2.61866667 L20.3453333,23.1653333 C21.172,24.6053333 21.1053333,26.312 20.312,27.6386667 L8.47866667,48.1386667 C7.25866667,50.2386667 4.56533333,50.9586667 2.452,49.7386667 C0.352,48.5186667 -0.368,45.8186667 0.852,43.7186667 L11.4386667,25.3786667 L0.852,7.03866667 Z" id="Fill-5" fill="#316DC7" mask="url(#mask-2)"></path>
                        </g>
                    </g>
                </g>
            </g>
        </g>
    </g>
</svg>