<?xml version="1.0" encoding="UTF-8"?>
<svg width="52px" height="71px" viewBox="0 0 52 71" version="1.1" xmlns="http://www.w3.org/2000/svg" xmlns:xlink="http://www.w3.org/1999/xlink">
    <!-- Generator: Sketch 55.2 (78181) - https://sketchapp.com -->
    <title>https://www.flaticon.com/premium-icon/virus_1824915#term=report&amp;page=1&amp;position=13</title>
    <desc>Created with Sketch.</desc>
    <g id="Products-" stroke="none" stroke-width="1" fill="none" fill-rule="evenodd">
        <g id="Products" transform="translate(-1401.000000, -1545.000000)" fill-rule="nonzero">
            <g transform="translate(93.000000, 746.000000)" id="Hygiene">
                <g transform="translate(758.500000, 0.000000)">
                    <g id="Vulnerability-reporting-" transform="translate(396.500000, 760.500000)">
                        <g id="Group-7" transform="translate(0.000000, 39.000000)">
                            <g id="https://www.flaticon.com/premium-icon/virus_1824915#term=report&amp;page=1&amp;position=13" transform="translate(153.000000, 0.000000)">
                                <path d="M51.249237,15.6169128 L36.2336732,0.600814785 C36.1647796,0.531921387 36.0905456,0.47103875 36.0136413,0.413360664 L36.0136413,15.8364105 L51.4372253,15.8364105 C51.3795472,15.7595062 51.3181305,15.6852721 51.249237,15.6169128 Z" id="Path" fill="#4CD7ED"></path>
                                <path d="M26.1885833,37.0352936 L25.6609344,37.0352936 C23.7762451,37.0352936 22.2429657,38.5685729 22.2429657,40.4532624 L22.2429657,42.8287506 L22.2429657,42.8474427 L22.2429657,49.283905 C22.2429657,51.1685944 23.7762451,52.7018737 25.6609344,52.7018737 L26.1885833,52.7018737 C28.0732728,52.7018737 29.6065521,51.1685944 29.6065521,49.283905 L29.6065521,42.8474427 C29.6065521,42.841568 29.6065521,42.8351593 29.6065521,42.8287506 L29.6065521,40.4537964 C29.6065521,38.5685729 28.0732728,37.0352936 26.1885833,37.0352936 L26.1885833,37.0352936 Z" id="Path" fill="#4CD7ED"></path>
                                <path d="M33.96286,19.937973 C32.8301239,19.937973 31.9120788,19.019928 31.9120788,17.8871917 L31.9120788,0 L2.05078125,0 C0.918045078,0 0,0.918045078 0,2.05078125 L0,67.9492188 C0,69.0819549 0.918045078,70 2.05078125,70 L49.7992707,70 C50.9320068,70 51.8500519,69.0819549 51.8500519,67.9492188 L51.8500519,19.937973 L33.96286,19.937973 Z M41.9133758,46.2189484 L36.9247437,46.9025421 C36.8323517,46.9153595 36.7388916,46.9217682 36.6464997,46.9217682 C36.3794709,46.9217682 36.1145783,46.8699645 35.8667755,46.7679596 L33.7081146,45.8803558 L33.7081146,47.3329925 L37.5869751,50.5891419 L40.9745026,51.832428 C42.0378112,52.2228241 42.5836182,53.4009552 42.193222,54.464264 C41.8888092,55.2941895 41.1032104,55.809021 40.2679443,55.809021 C40.032959,55.809021 39.7947692,55.7684326 39.5613861,55.6829834 L35.8368683,54.3157959 C35.6141663,54.2340851 35.4069518,54.1139222 35.2248382,53.9611816 L33.1211852,52.1955872 C31.9815063,54.900055 29.3032074,56.8034362 26.1885833,56.8034362 L25.6609344,56.8034362 C22.5463104,56.8034362 19.8685456,54.900055 18.7283325,52.1950531 L16.6246795,53.9611816 C16.4425659,54.1139222 16.2353516,54.2335511 16.0126496,54.3157959 L12.2881317,55.6829834 C12.0552826,55.7684326 11.8165589,55.809021 11.5815736,55.809021 C10.7463073,55.809021 9.96124268,55.2941895 9.65629574,54.464264 C9.26589973,53.4009552 9.81170654,52.2228241 10.8750153,51.832428 L14.2625427,50.5886078 L18.1414032,47.3324585 L18.1414032,45.8803558 L15.9827423,46.7674255 C15.7349396,46.8694305 15.470047,46.9217682 15.2030182,46.9217682 C15.1106263,46.9217682 15.0171662,46.9153595 14.9247741,46.9025421 L9.93614193,46.2189484 C8.81355289,46.0651398 8.02848812,45.0306702 8.18229672,43.9086151 C8.33610531,42.7865601 9.37110904,42.0014954 10.49263,42.155304 L14.9343872,42.7641296 L18.1414032,41.4460755 L18.1414032,40.4532624 C18.1414032,40.0965119 18.1681061,39.7456361 18.2161712,39.402237 L15.6831361,39.402237 C14.9861908,39.402237 14.3373109,39.0486908 13.9597321,38.4628296 L11.4763641,34.6122741 C10.8621979,33.6600495 11.1361694,32.3911286 12.08786,31.7769622 C13.0395508,31.1633301 14.3090057,31.4373016 14.923172,32.3889923 L16.8009186,35.3006745 L20.1921844,35.3006745 C20.6712341,34.7922516 21.2197113,34.3500519 21.8231964,33.9906312 L21.8231964,30.8530426 C21.8231964,28.5913086 23.6630249,26.7514801 25.9247589,26.7514801 C28.1864929,26.7514801 30.0263214,28.5913086 30.0263214,30.8530426 L30.0263214,33.9906312 C30.6298065,34.3500519 31.1782837,34.7922516 31.6578675,35.3006745 L35.0491333,35.3006745 L36.9268799,32.3889923 C37.5405121,31.4373016 38.8099671,31.1633301 39.7616577,31.7769622 C40.7133483,32.3911286 40.98732,33.6600495 40.3736878,34.6122741 L37.8903198,38.4628296 C37.5127411,39.0486908 36.863327,39.402237 36.1669159,39.402237 L33.6333465,39.402237 C33.6819458,39.7456361 33.7086487,40.0965119 33.7086487,40.4532624 L33.7086487,41.4460755 L36.9156647,42.7641296 L41.3574219,42.155304 C42.4789429,42.0025635 43.5134124,42.7865601 43.667221,43.9086151 C43.8210296,45.0312043 43.035965,46.0651398 41.9133758,46.2189484 L41.9133758,46.2189484 Z" id="Shape" fill="#316DC7"></path>
                            </g>
                        </g>
                    </g>
                </g>
            </g>
        </g>
    </g>
</svg>