<?xml version="1.0" encoding="UTF-8"?>
<svg width="70px" height="70px" viewBox="0 0 70 70" version="1.1" xmlns="http://www.w3.org/2000/svg" xmlns:xlink="http://www.w3.org/1999/xlink">
    <!-- Generator: Sketch 55.2 (78181) - https://sketchapp.com -->
    <title>startup-3</title>
    <desc>Created with Sketch.</desc>
    <g id="Documentation" stroke="none" stroke-width="1" fill="none" fill-rule="evenodd">
        <g transform="translate(-367.000000, -504.000000)" fill-rule="nonzero" id="Features">
            <g transform="translate(93.000000, 429.000000)">
                <g transform="translate(178.000000, 75.000000)" id="startup-3">
                    <g transform="translate(96.000000, 0.000000)">
                        <path d="M53.4570312,41.1523438 L53.4570312,35.1741797 C53.4570312,31.7004297 51.7327344,28.6380664 49.1129297,26.7420508 C49.3177344,31.7656445 48.79875,36.7016016 47.5085352,41.1523438 L53.4570312,41.1523438 Z" id="Path" fill="#316DC7"></path>
                        <path d="M16.5429688,35.1741797 L16.5429688,41.1523438 L22.4895508,41.1523438 C21.1975586,36.7058398 20.6783008,31.7698828 20.8839258,26.7447852 C18.2657617,28.6413477 16.5429688,31.7020703 16.5429688,35.1741797 Z" id="Path" fill="#316DC7"></path>
                        <path d="M25.6738672,37.0507812 L44.3264062,37.0507812 C45.5931055,30.595332 45.2394141,23.2570898 43.5393164,16.5429688 L26.4604102,16.5429688 C24.7599023,23.2583203 24.4068945,30.5969727 25.6738672,37.0507812 Z M32.9492188,20.6445312 L37.0507812,20.6445312 L37.0507812,24.7460938 L32.9492188,24.7460938 L32.9492188,20.6445312 Z M32.9492188,28.8476562 L37.0507812,28.8476562 L37.0507812,32.9492188 L32.9492188,32.9492188 L32.9492188,28.8476562 Z" id="Shape" fill="#316DC7"></path>
                        <path d="M28.0587891,45.2539062 L41.9413477,45.2539062 L43.2610937,41.2725195 C43.2738086,41.2345117 43.2785937,41.190625 43.2914453,41.1523438 L26.7085547,41.1523438 C26.7203125,41.1881641 26.7248242,41.2289063 26.7368555,41.2644531 L28.0587891,45.2539062 Z" id="Path" fill="#316DC7"></path>
                        <path d="M63.7109375,57.5585938 L61.4538477,57.5585938 C60.5005078,52.8843164 56.3588867,49.3554688 51.40625,49.3554688 C48.5903906,49.3554688 45.9388672,50.5070508 44.0263086,52.5057422 C42.8611914,51.7595313 42.021875,50.6357031 41.5664648,49.3554688 L28.4336719,49.3554688 C27.9782617,50.6357031 27.1389453,51.7595313 25.9738281,52.5057422 C24.0611328,50.5070508 21.4096094,49.3554688 18.59375,49.3554688 C13.6409766,49.3554688 9.49935547,52.8843164 8.54615234,57.5585938 L6.15234375,57.5585938 C2.75980469,57.5585938 0,60.3183984 0,63.7109375 C0,67.1034766 2.75980469,70 6.15234375,70 L63.7109375,70 C67.1034766,70 70,67.1034766 70,63.7109375 C70,60.3183984 67.1034766,57.5585938 63.7109375,57.5585938 Z" id="Path" fill="#4CD7ED"></path>
                        <path d="M42.2776758,12.4414062 C40.8507422,8.42720703 38.9664844,4.62806641 36.5561328,1.81644531 L35,0 L33.4438672,1.81644531 C31.0333789,4.62806641 29.1492578,8.42748047 27.7223242,12.4414062 L42.2776758,12.4414062 Z" id="Path" fill="#316DC7"></path>
                    </g>
                </g>
            </g>
        </g>
    </g>
</svg>