<?xml version="1.0" encoding="UTF-8"?>
<svg width="70px" height="70px" viewBox="0 0 70 70" version="1.1" xmlns="http://www.w3.org/2000/svg" xmlns:xlink="http://www.w3.org/1999/xlink">
    <!-- Generator: Sketch 55.2 (78181) - https://sketchapp.com -->
    <title>support-2</title>
    <desc>Created with Sketch.</desc>
    <g id="Documentation" stroke="none" stroke-width="1" fill="none" fill-rule="evenodd">
        <g transform="translate(-1266.000000, -504.000000)" fill-rule="nonzero" id="Features">
            <g transform="translate(93.000000, 429.000000)">
                <g transform="translate(1078.000000, 75.000000)" id="support-2">
                    <g transform="translate(95.000000, 0.000000)">
                        <path d="M65.8203711,45.5125781 C62.2196094,41.909082 57.2232227,40.3824805 50.8066016,42.1021289 L27.925625,19.1979102 L28.2280469,18.0543945 C29.5458789,13.1098242 28.1219531,7.79488281 24.513125,4.18605469 C20.8386719,0.508730469 15.6149219,-0.840546875 10.6745898,0.516523438 C9.97007812,0.709980469 9.42169922,1.26355469 9.23507812,1.96998047 C9.04845703,2.67640625 9.253125,3.42726563 9.76951172,3.94392578 L15.2788672,9.45328125 C16.8895508,11.0679297 16.8738281,13.6538281 15.282832,15.2490625 C13.7044141,16.8317188 11.05125,16.8292578 9.47912109,15.2530273 L3.96867187,9.74216797 C3.45201172,9.22523437 2.69896484,9.02248047 1.99253906,9.21019531 C1.28597656,9.39777344 0.734453125,9.94751953 0.541679687,10.6527148 C-0.795566406,15.5387695 0.519941406,20.7949219 4.21203125,24.4870117 C7.81128906,28.0888672 12.8013867,29.6209375 19.2218359,27.8975977 L42.1045898,50.8018164 C40.3969727,57.2165234 41.8699805,62.1645117 45.5191406,65.8136719 C49.1982422,69.4955078 54.4244531,70.8348047 59.3539844,69.4822461 C60.0586328,69.2889258 60.6071484,68.7352148 60.7939063,68.0287891 C60.9806641,67.3223633 60.7761328,66.5713672 60.2594727,66.0545703 L54.7513477,60.5464453 C53.1406641,58.9317969 53.1563867,56.345625 54.7473828,54.7506641 C56.3454883,53.1607617 58.9927734,53.1860547 60.5510938,54.7486133 L66.0619531,60.2579688 C66.5786133,60.7746289 67.3316602,60.9773828 68.0379492,60.789668 C68.744375,60.6019531 69.2958984,60.0524805 69.4886719,59.3474219 C70.825918,54.4621875 69.5106836,49.204668 65.8203711,45.5125781 Z" id="Path" fill="#316DC7"></path>
                        <path d="M21.950332,36.4470313 L2.40064453,55.9991797 C-0.798710937,59.1985352 -0.798710937,64.4012305 2.40064453,67.6004492 C5.6,70.7998047 10.8026953,70.7998047 14.0019141,67.6004492 L33.5511914,48.0488477 L21.950332,36.4470313 Z M12.0752734,61.2360547 C11.2741016,62.0372266 9.97664063,62.0372266 9.17546875,61.2360547 C8.37443359,60.4350195 8.37443359,59.1372852 9.17546875,58.33625 L21.6141406,45.8952539 C22.4151758,45.0942188 23.7130469,45.0942188 24.5139453,45.8952539 C25.3149805,46.6962891 25.3149805,47.9940234 24.5139453,48.7950586 L12.0752734,61.2360547 Z" id="Shape" fill="#4CD7ED"></path>
                        <path d="M69.3978906,4.13615234 L65.8624805,0.600742187 C65.1970703,-0.0646679687 64.1644336,-0.191816406 63.3575195,0.29203125 L52.4819531,6.81666016 C51.3376172,7.503125 51.1433398,9.08181641 52.0866992,10.0253125 L52.9524023,10.8907422 L39.146543,24.6401367 L44.9482031,30.4417969 L58.7540625,16.6924023 L59.973457,17.9120703 C60.9169531,18.855293 62.4957813,18.6611523 63.1821094,17.5168164 L69.7067383,6.64125 C70.1904492,5.83419922 70.0633008,4.8015625 69.3978906,4.13615234 Z" id="Path" fill="#4CD7ED"></path>
                    </g>
                </g>
            </g>
        </g>
    </g>
</svg>