<?xml version="1.0" encoding="UTF-8"?>
<svg width="99px" height="99px" viewBox="0 0 99 99" version="1.1" xmlns="http://www.w3.org/2000/svg" xmlns:xlink="http://www.w3.org/1999/xlink">
    <!-- Generator: Sketch 55.2 (78181) - https://sketchapp.com -->
    <title>Group 8</title>
    <desc>Created with Sketch.</desc>
    <defs>
        <polygon id="path-1" points="0.007734375 0.365633075 98.3116406 0.365633075 98.3116406 98.7080103 0.007734375 98.7080103"></polygon>
    </defs>
    <g id="Home" stroke="none" stroke-width="1" fill="none" fill-rule="evenodd">
        <g transform="translate(-422.000000, -1761.000000)" id="We-offer-a-set-of-developer-tools-to-make-it-easy-to-build-secure-IoT-devices.">
            <g transform="translate(93.000000, 1184.000000)">
                <g id="Zero-Trust" transform="translate(166.000000, 577.000000)">
                    <g id="Group-8" transform="translate(163.000000, 0.000000)">
                        <g id="Group-3" transform="translate(0.000000, 0.149483)">
                            <mask id="mask-2" fill="white">
                                <use xlink:href="#path-1"></use>
                            </mask>
                            <g id="Clip-2"></g>
                            <path d="M53.4651562,0.365633075 C78.5889844,2.54909561 98.3116406,23.6860465 98.3116406,49.4354005 C98.3116406,56.877261 96.6616406,63.9315245 93.7225781,70.249354 L87.4964062,66.6447028 L87.470625,66.6447028 L83.2167187,64.1899225 C85.1632031,59.6679587 86.2460156,54.6808786 86.2460156,49.4354005 C86.2460156,30.3656331 71.9245312,14.6550388 53.4651562,12.5103359 L53.4651562,0.365633075 Z M4.59679687,70.2622739 C1.64484375,63.9315245 0.007734375,56.8901809 0.007734375,49.4354005 C0.007734375,23.6860465 19.7175,2.54909561 44.8542187,0.365633075 L44.8542187,12.5103359 C26.3819531,14.6550388 12.0604687,30.3656331 12.0604687,49.4354005 C12.0604687,54.6808786 13.1432812,59.6550388 15.0897656,64.1770026 L9.77882812,67.251938 L9.77882812,67.2648579 L4.59679687,70.2622739 Z M49.1596875,98.7118863 C32.505,98.7118863 17.7839062,90.4043928 8.889375,77.7041344 L14.0714062,74.7067183 L14.0842969,74.7067183 L19.3952344,71.6447028 C26.1628125,80.7273902 36.9651562,86.618863 49.1596875,86.618863 C61.3413281,86.618863 72.1565625,80.7273902 78.9241406,71.6317829 L83.1909375,74.0994832 L83.1909375,74.1124031 L89.4171094,77.7170543 C80.5225781,90.4043928 65.814375,98.7118863 49.1596875,98.7118863 L49.1596875,98.7118863 Z" id="Fill-1" fill="#316DC7" mask="url(#mask-2)"></path>
                        </g>
                        <path d="M73.7446875,30.6249354 C64.3732031,18.5706718 47.3446875,14.9789406 33.7708594,22.8213178 C30.2388281,24.8885013 27.2482031,27.5241602 24.8634375,30.5732558 L35.5755469,36.7618863 C36.8001563,35.4698966 38.2310156,34.3200258 39.8552344,33.3768734 C47.5896094,28.9065891 57.1802344,30.547416 63.0454688,36.8135659 L73.7446875,30.6249354 Z M53.6610938,80.547416 C57.4767188,80.0047804 61.2536719,78.7515504 64.7985938,76.6843669 C78.3724219,68.8419897 83.7735938,52.2528424 78.0501563,38.1055556 L67.3509375,44.294186 C69.8388281,52.5112403 66.4614844,61.6585271 58.7142188,66.1417313 C57.09,67.0848837 55.3884375,67.7567183 53.6482031,68.1572351 L53.6610938,80.547416 Z M22.4142188,65.3148579 C27.4028906,73.9582687 35.9107031,79.3071059 45.0759375,80.5732558 L45.0759375,68.1959948 C40.1388281,67.0590439 35.6786719,63.9582687 32.9329688,59.2166667 C30.2130469,54.4750646 29.761875,49.048708 31.2571875,44.2037468 L20.5579688,38.0151163 C17.0775,46.6068475 17.4384375,56.6585271 22.4142188,65.3148579 L22.4142188,65.3148579 Z" id="Fill-4" fill="#4CD7ED"></path>
                        <path d="M49.2847266,61.0771318 C55.5753516,61.0771318 60.7187109,55.9350129 60.7187109,49.6171835 C60.7187109,43.299354 55.5753516,38.1443152 49.2847266,38.1443152 C42.9812109,38.1443152 37.8378516,43.299354 37.8378516,49.6171835 C37.8378516,55.9350129 42.9812109,61.0771318 49.2847266,61.0771318" id="Fill-6" fill="#316DC7"></path>
                    </g>
                </g>
            </g>
        </g>
    </g>
</svg>